<svg xmlns="http://www.w3.org/2000/svg" width="80.82" height="55" viewBox="38 -26 80.82 55"><title>Car-logos_Nissan</title><g fill="#333"><path d="M116.25-10.66h-9.57c-1.24-.16-2.33-.9-2.93-2C98.68-20.87 88.97-26 78.41-26c-10.94 0-20.82 5.4-25.78 14.1v.08c-.19.75-.9 1.24-1.67 1.16H40.54a2.56 2.56 0 0 0-2.55 2.55V9c0 1.41 1.14 2.55 2.55 2.55h8.66c.75.06 1.42.48 1.79 1.14.12.18.31.44.54.73.4.53.9 1.2 1.22 1.71 5.26 8.57 15.13 13.88 25.75 13.88 10.28 0 19.57-4.47 24.86-12 .14-.21.32-.48.54-.77.88-1.18 1.66-2.43 2.34-3.74.47-.83.77-1 1.41-1h8.61a2.55 2.55 0 0 0 2.55-2.5V-8.1c0-1.41-1.15-2.56-2.56-2.56zm-64.79.72c.87-.12 1.59-.75 1.82-1.6 4.83-8.44 14.45-13.69 25.12-13.69 10.31 0 19.79 5 24.73 13 .73 1.3 2.05 2.16 3.54 2.3h9.57c.38 0 .75.12 1.06.34l-2.38 2.21c-.24-.15-.52-.23-.81-.23H42.67c-.29 0-.58.08-.82.24l-1.93-2.44c.2-.08.41-.12.63-.12l10.91-.01zm6.95 30.65c-.93-.76-1.77-1.62-2.5-2.56-.63-.77-1.27-1.61-1.85-2.42s-1.16-1.66-1.6-2.32-.86-1.36-.94-1.52c-.44-.61-.48-1.43-.1-2.08a6.49 6.49 0 0 1 2.64-1.8l5 2.94-.23.38L54.53 9c3.31 9.44 12.8 16.25 24 16.25 10.29.12 19.56-6.21 23.19-15.85l-3.75 2-.11-.18a.757.757 0 0 0-.09-.18l5.16-3 3.3 2.63c-1 2.67-4 7.25-8 6.78a24.694 24.694 0 0 1-19.65 8.71 28.08 28.08 0 0 1-20.42-8.5l-2.44-.8c.72 1.43 1.64 2.76 2.72 3.94l-.03-.09zm38.73-8.94c-2.8 7.93-11.5 10.9-18.71 11-7.22-.14-15.91-3.11-18.72-11-.08-.22-.06-.37 0-.41s.06 0 .1 0h37.4c.01 0-.01.19-.09.41h.02zM114.96-6.1V5.55c.01.44-.35.8-.79.81h-71.5c-.45 0-.81-.36-.81-.81V-6.1c.01-.44.37-.8.81-.8h71.46c.44-.01.8.35.81.79v.01h.02z"/><path d="M59.9-8.17h37.77c1.31 0 .76-1.12.46-1.72 1.37.23 2.64.83 3.68 1.75C98.5-18.3 89.32-23.2 78.51-23.2s-20 5.94-23.27 15.32a9.588 9.588 0 0 1 3.55-1.71c-.06.65.25 1.42 1.11 1.42zm.1-2c3.2-8.3 10.42-11.11 18.41-11.11 8.26 0 16.62 2.71 19.26 11.12.1.51.05.71-.51.71H60.61c-.35-.04-.86-.14-.61-.75v.03zM55.35 2.08l-3.06-7.63h-4.57V4.49h2.8v-7.95l3.22 7.95h4.43V-5.55h-2.82zm5.07-7.62h2.88V4.5h-2.88zm28.83-.01L85.66 4.49h2.89l.63-1.81h4.17L92.59.46h-2.63l1.31-3.76 2.75 7.79h2.89L93.35-5.55zM71-1.67h-3V-3.3h5.64v-2.25h-5.78c-1.51 0-2.75.74-2.75 2.88 0 1 .17 3.24 3.39 3.24h3.05V2.2h-6.14v2.28h6.25a2.992 2.992 0 0 0 2.88-3.12c.02-1.94-1.02-3.03-3.54-3.03zm34.57 3.75l-3.05-7.63h-4.56V4.49h2.78v-7.95l3.23 7.95h4.43V-5.55h-2.83zM81.62-1.67h-3V-3.3h5.64v-2.25h-5.78c-1.51 0-2.76.74-2.76 2.88 0 1 .17 3.24 3.39 3.24h3.06V2.2h-6.16v2.28h6.26a2.998 2.998 0 0 0 2.89-3.11v-.01c.02-1.94-1.02-3.03-3.54-3.03z"/></g></svg>