<svg xmlns="http://www.w3.org/2000/svg" width="80" height="40.3" viewBox="76.01 -38.6 80 40.3"><title>Car-logos_Land-Rover</title><g fill="#333"><path d="M140.09-14.85h-1.08l-.66 2h1.06c.24-.02.48-.06.71-.13.2-.06.37-.17.51-.32.16-.17.28-.36.35-.58.11-.24.11-.51 0-.75-.14-.13-.43-.22-.89-.22zm-15.76-6.6c.41.03.81-.05 1.18-.22.32-.19.58-.45.78-.76.34-.55.61-1.14.81-1.76.32-.69.45-1.45.36-2.2-.14-.4-.53-.59-1.17-.59h-.61l-1.94 5.53h.59zm-22.09 6.6h-1.11l-.66 2h1.06c.24-.02.48-.06.72-.13.2-.06.37-.17.51-.32.16-.17.27-.36.35-.58.11-.24.11-.51 0-.75-.1-.13-.41-.22-.87-.22zm4.91-11.81L105-23.02h1.76z"/><path d="M116.01-36.37c-20.86 0-37.89 8.05-37.89 17.92s17 17.92 37.89 17.92 37.89-8.05 37.89-17.92-17.03-17.92-37.89-17.92zm17.16 13l.71-2.1 6.89-.11-1.38 2.13-6.8 3.23 3.63-3.26-3.05.11zm-5.5-5.94c.57-.04 1.14.09 1.63.38.36.25.62.63.72 1.06.13.53.15 1.09.06 1.63-.09.68-.26 1.35-.49 2-.29.88-.68 1.73-1.17 2.52a7.05 7.05 0 0 1-1.33 1.5c-.41.36-.88.64-1.4.81-.5.17-1.03.26-1.56.28h-3.66l3.54-10.15 3.66-.03zm-20.91 0h2.68l-.56 10.18h-2.57l.2-1.67h-2.81l-1 1.67h-2.52l6.58-10.18zm-10.36 0h2.46l-2.68 7.63h3.83l-.87 2.5h-6.31l3.57-10.13zm-1.57 18.05l-6.9.12 1.38-2.13 6.8-3.23-3.62 3.26 3-.11-.66 2.09zm10.89-2.87a4.43 4.43 0 0 1-.76 1.44c-.31.4-.69.74-1.12 1-.31.18-.65.32-1 .4.2.09.39.21.54.37.1.17.18.34.23.53.07.2.12.42.15.63l.27 2.91h-2.84l-.35-3.07a1.74 1.74 0 0 0-.21-.77.647.647 0 0 0-.54-.23h-.23l-1.32 4.08h-2.53l3.27-10h4.21c.58-.04 1.16.05 1.71.25.37.17.63.51.7.91.08.52.02 1.06-.18 1.55zm9.48 2.16c-.31 1.04-.8 2.01-1.43 2.89-.54.72-1.22 1.32-2 1.76-.76.42-1.61.63-2.48.62a3.5 3.5 0 0 1-2.11-.54 2.53 2.53 0 0 1-.91-1.72c-.1-.99.03-2 .39-2.93a8.45 8.45 0 0 1 2.36-3.83c.97-.89 2.23-1.38 3.54-1.37 1.09-.14 2.15.39 2.7 1.34.47 1.23.45 2.6-.06 3.81v-.03zm.52-7.21l-1-5.56-2 5.56h-2.31l3.6-10.1h2.3l1 5.6 2-5.6h2.32l-3.62 10.15-2.29-.05zm1.72 12.32l.19-10h2.64l-.52 7.23 4.17-7.23h2.56l-6.3 10h-2.74zm15.2-4.27h-3.93l-.64 2h4.36l-.74 2.28h-6.89l3.27-10h6.76l-.7 2.15h-4.22l-.52 1.59h3.93l-.68 1.98zm10.93-3a4.43 4.43 0 0 1-.76 1.44c-.31.4-.69.74-1.12 1-.31.19-.65.32-1 .4.2.09.38.22.54.37.1.17.17.35.23.53.07.2.12.42.14.63l.28 2.91h-2.87l-.35-3.07c0-.27-.07-.53-.2-.77a.679.679 0 0 0-.55-.23h-.22l-1.33 4.08h-2.53l3.27-10h4.2c.58-.04 1.16.05 1.71.25.37.17.63.51.7.91.09.52.04 1.05-.14 1.55z"/><path d="M111.85-14.7c-.55.02-1.07.26-1.44.67-.56.63-.96 1.38-1.18 2.2-.3.69-.38 1.44-.25 2.18.15.42.55.69 1 .67.56 0 1.1-.24 1.48-.65.57-.68.98-1.48 1.2-2.34.29-.65.36-1.38.21-2.07a.999.999 0 0 0-1.02-.66z"/><path d="M116.01-38.6c-22 0-40 9.06-40 20.15s18 20.15 40 20.15 40-9 40-20.15-18-20.15-40-20.15zm0 39.12c-21.55 0-39.12-8.52-39.12-19s17.57-19 39.12-19 39.12 8.52 39.12 19S137.55.53 116.01.53V.52z"/></g></svg>