<svg id="Слой_1" data-name="Слой 1" xmlns="http://www.w3.org/2000/svg" viewBox="0 0 64.78 40.86"><defs><style>.cls-1{fill:#999}</style></defs><title>Car-logos_Honda</title><path class="cls-1" d="M15.81 21.18a14.66 14.66 0 0 0 .75 2.7 7.65 7.65 0 0 0 .75 1.44 5.37 5.37 0 0 0 2.32 1.88 10.09 10.09 0 0 0 1.19.43 16.63 16.63 0 0 0 3.44.61c1.11.09 2.23.17 3.35.22 1.62.06 3.23.08 4.49.11h3.34c1.4 0 2.8-.08 4.2-.19a27.57 27.57 0 0 0 3.12-.37 11.22 11.22 0 0 0 2.47-.72 5.47 5.47 0 0 0 2.9-2.8 11.86 11.86 0 0 0 .63-1.7 26.17 26.17 0 0 0 .68-3.4c.15-1.13.28-2.28.39-3.41s.17-2.35.17-3.48a49.9 49.9 0 0 0-.05-5.5 9.05 9.05 0 0 0-.4-2.06 5.55 5.55 0 0 0-2-2.83 6.87 6.87 0 0 0-2-1 15.81 15.81 0 0 0-3-.61C41.32.33 40.07.23 38.82.17S36.24.06 34.94 0h-5.2c-2 0-3.91.12-5.86.3-1 .09-1.94.19-2.9.37a10.8 10.8 0 0 0-2.37.68 5.52 5.52 0 0 0-2.9 2.73 7.53 7.53 0 0 0-.66 2.29 20.87 20.87 0 0 0-.17 2.53v3.26c0 1.94.21 3.88.44 5.81.12 1.1.28 2.15.49 3.21zm.84-10.55c0-.93.06-1.86.11-2.79a10.21 10.21 0 0 1 .39-2.43 4.65 4.65 0 0 1 1.72-2.49 6 6 0 0 1 1.61-.79 10.31 10.31 0 0 1 2-.43c.92-.12 1.84-.22 2.76-.31.64-.06 1.29-.1 1.95-.13 1.08 0 2.15-.11 3.23-.12h4.75c1.2 0 2.39.09 3.6.16s2.56.2 3.83.39a10 10 0 0 1 2.4.63 4.65 4.65 0 0 1 2.27 1.84 5.42 5.42 0 0 1 .66 1.63 10.92 10.92 0 0 1 .26 1.76 51.24 51.24 0 0 1 .13 5.3c0 1.05-.09 2.1-.2 3.14-.08.86-.16 1.71-.26 2.56a22 22 0 0 1-.83 4.1 8.27 8.27 0 0 1-.59 1.35 4.78 4.78 0 0 1-2.5 2.28 9.43 9.43 0 0 1-2.12.56 36.16 36.16 0 0 1-3.76.37q-2.58.14-5.18.14h-.41c-1.49 0-3-.05-4.48-.11-1.09 0-2.18-.12-3.26-.21a16.92 16.92 0 0 1-2.67-.42 7.23 7.23 0 0 1-1.26-.44 4.77 4.77 0 0 1-2.38-2.35 11 11 0 0 1-.76-2.21 25.06 25.06 0 0 1-.55-3.15c-.12-1.19-.24-2.38-.34-3.56a40.49 40.49 0 0 1-.12-4.27zM7.51 34.28h.24l.72.08a.5.5 0 0 1 .49.47A.38.38 0 0 1 9 35v1.19H4.5V34.9a.49.49 0 0 1 .47-.49h.39l.59-.07v-.51a2.93 2.93 0 0 0 0-.48H0v1h.24l.76.05a.51.51 0 0 1 .5.46 1.73 1.73 0 0 1 0 .25v3.67a1.45 1.45 0 0 1 0 .27.5.5 0 0 1-.49.45l-.72.08H.05v1h5.87v-1L5 39.51c-.37 0-.54-.19-.55-.56s0-.8 0-1.21h4.5v1.16A.67.67 0 0 1 9 39a.5.5 0 0 1-.47.46h-.4l-.57.07v1h5.86v-1h-.28l-.7-.08a.49.49 0 0 1-.46-.44 1.84 1.84 0 0 1 0-.3v-3.62a2 2 0 0 1 0-.29.51.51 0 0 1 .5-.46h.41l.53-.07v-1H7.51zm26.71-.96v1h.1l.84.1a.52.52 0 0 1 .51.5.79.79 0 0 1 0 .14v3.49a.71.71 0 0 1 0 .13l-.15-.19q-1.84-2.41-3.66-4.82a.82.82 0 0 0-.69-.36H26v1h.2l.74.08a.52.52 0 0 1 .52.49 1.75 1.75 0 0 1 0 .25v3.64a1.69 1.69 0 0 1 0 .2.53.53 0 0 1-.54.54h-.41l-.51.07v1h4.68a4.73 4.73 0 0 0 0-1h-.27l-.68-.08a.5.5 0 0 1-.48-.5v-3.74l.12.16c1.22 1.61 2.45 3.21 3.66 4.83a.87.87 0 0 0 .75.37h3.63v-5.69a.52.52 0 0 1 .59-.53h.41l.53-.07v-1c-.31-.06-4.59-.05-4.72-.01zm17.29 3.22a3.12 3.12 0 0 0-1.23-2.28 4.1 4.1 0 0 0-1.09-.58 7.08 7.08 0 0 0-2.43-.39h-7.28v1l.76.08c.47 0 .61.2.61.67v3.74a1.57 1.57 0 0 1 0 .25.51.51 0 0 1-.51.47h-.42l-.53.07v1h7.11c.42 0 .84 0 1.26-.06a5.44 5.44 0 0 0 1.85-.51 3.18 3.18 0 0 0 1.74-1.91 3.93 3.93 0 0 0 .16-1.55zM48 38a2.25 2.25 0 0 1-.22.55 1.33 1.33 0 0 1-1 .64 4 4 0 0 1-.62.06h-2.41v-4.54h2.52a2.72 2.72 0 0 1 .81.12 1.35 1.35 0 0 1 .85.8 3.22 3.22 0 0 1 .21 1.16A4 4 0 0 1 48 38z" transform="translate(-.03)"/><path class="cls-1" d="M24.28 34.15a5.24 5.24 0 0 0-1.8-.8 11.22 11.22 0 0 0-2.77-.35 11.8 11.8 0 0 0-2.53.24 5.77 5.77 0 0 0-1.8.68 3.47 3.47 0 0 0-.11 5.91 4.66 4.66 0 0 0 .94.47 8.51 8.51 0 0 0 2.3.48 13.12 13.12 0 0 0 3.49-.12 6 6 0 0 0 1.91-.66 3.47 3.47 0 0 0 .37-5.83zm-2.07 3.7a1.81 1.81 0 0 1-1.45 1.49 4.6 4.6 0 0 1-2.2 0 1.79 1.79 0 0 1-1.4-1.5c-.06-.29-.08-.58-.11-.87a5 5 0 0 1 .14-1 1.79 1.79 0 0 1 1.35-1.36 4.52 4.52 0 0 1 2.24 0A1.81 1.81 0 0 1 22.21 36a4.29 4.29 0 0 1 0 1.86zM63.2 39c-.54-.84-1.09-1.68-1.64-2.52s-1.22-1.84-1.82-2.77a.92.92 0 0 0-.83-.48H53.4v1h.22l1 .12A.38.38 0 0 1 55 35l-.07.12-2.44 4a1.13 1.13 0 0 1-.11.17.63.63 0 0 1-.46.26h-.39l-.55.07v1h4.69v-1h-.33c-.19 0-.38 0-.57-.07a.33.33 0 0 1-.24-.55c.08-.15.19-.29.27-.45a.26.26 0 0 1 .28-.15h4.24s.1 0 .12.06a6.27 6.27 0 0 1 .35.55.31.31 0 0 1-.17.48 1.84 1.84 0 0 1-.41.09l-.68.07v1h6.33v-1c-.29 0-.57-.08-.85-.1a1 1 0 0 1-.81-.55zm-7.54-2L57 34.86c.11.08 1.32 1.91 1.45 2.18-.11.04-2.52.05-2.79-.04zM22 4.25c0 .63.08 1.26.12 1.89.06 1 .13 2.06.2 3.09.06.85.11 1.69.16 2.53s.14 2 .2 2.94c.05.78.1 1.57.16 2.35.08 1.07.16 2.14.23 3.21.07.87.13 1.75.2 2.62s.17 2 .25 3v.26a29 29 0 0 0 3.51.25l.07-.23c.3-1.1.6-2.21.91-3.31a9.33 9.33 0 0 1 .68-1.74 2.19 2.19 0 0 1 1.7-1.21 13.06 13.06 0 0 1 2-.16 12.73 12.73 0 0 1 2 .16 2.14 2.14 0 0 1 1.64 1.17c.08.14.15.29.21.44a12.07 12.07 0 0 1 .6 1.7c.28 1 .54 2 .8 3l.07.23a23.49 23.49 0 0 0 3.52-.26C42 18.32 42.52 10.47 43 2.6a19.92 19.92 0 0 0-2.43-.19v.17L39.55 7q-.73 3.25-1.59 6.46a11.7 11.7 0 0 1-.73 2 3.66 3.66 0 0 1-3 2.14 11.62 11.62 0 0 1-1.55.1 11.82 11.82 0 0 1-2.25-.14 3.63 3.63 0 0 1-2.29-1.35 5.07 5.07 0 0 1-.65-1.21 20.9 20.9 0 0 1-.73-2.33c-.81-3.13-1.52-6.28-2.2-9.44l-.19-.83a21 21 0 0 0-2.43.18v.15c.06.52.06 1.02.06 1.52z" transform="translate(-.03)"/></svg>