<svg xmlns="http://www.w3.org/2000/svg" width="118.68" height="49.98" viewBox="57 -23.98 118.68 49.98"><title>Car-logos_Mini</title><g fill="#333"><path d="M116.41 21.67c11.42 0 20.67-9.25 20.67-20.67 0-11.42-9.25-20.67-20.67-20.67-11.42 0-20.67 9.25-20.67 20.67v.01c0 11.41 9.25 20.66 20.66 20.66h.01zm0-39.8c10.57 0 19.13 8.56 19.13 19.13s-8.56 19.13-19.13 19.13c-10.57 0-19.13-8.56-19.13-19.13s8.56-19.13 19.13-19.13z"/><path d="M60.23-7.23c.94 1.14 2.08 2.48 3.4 3.95 1.22 1.37 2.61 2.85 4.14 4.42 1.25 1.26 2.6 2.59 4 3.94 1.55 1.45 3.21 2.92 5 4.41 1.57 1.33 3.21 2.65 4.94 3.94 1.93 1.46 3.96 2.88 6.09 4.26h10c9.22 10.28 25.03 11.14 35.3 1.92.67-.6 1.31-1.24 1.92-1.92h9.86a126.378 126.378 0 0 0 30.8-29h-37.53c-6.82-12-22.08-16.2-34.09-9.38a24.99 24.99 0 0 0-9.38 9.38H57s1.12 1.57 3.21 4.11l.02-.03zm12.52 12.3c-1.38-1.28-2.74-2.59-4.08-3.94h22.75c.01 1.32.12 2.64.33 3.94h-19zm87.2 0h-18.87c.21-1.3.32-2.62.33-3.94h22.61c-1.34 1.35-2.7 2.66-4.07 3.94zm11.73-12.3c-1 1.15-2.11 2.49-3.43 3.95h-27.21a24.58 24.58 0 0 0-1-3.95h31.64zm-31.7 16.71h15c-1.66 1.37-3.33 2.69-5 3.94h-11.87c.71-1.26 1.32-2.57 1.82-3.93l.05-.01zm-23.52-30.11c11.95 0 21.63 9.68 21.63 21.63s-9.68 21.63-21.63 21.63S94.83 12.95 94.83 1c.01-11.92 9.66-21.59 21.58-21.62l.05-.01zM94.68 13.43H82.79a113.52 113.52 0 0 1-5-3.94h15.12a25.78 25.78 0 0 0 1.77 3.94zM92.77-7.23a24.58 24.58 0 0 0-1 3.95H64.48a121.2 121.2 0 0 1-3.42-3.95h31.71z"/><path d="M113.8-4.29h2.61v10.7h-2.61zm-7.67 10.71l2.69-6.29v6.29h2.64v-10.7h-2.9l-3 7.06-2.78-7.06h-3v10.7h2.24V-.02l2.56 6.44h1.55zm14.83-6.46l4.98 6.46h2.02V-4.29h-2.28v6.51l-5-6.51h-1.96V6.42h2.24zm9.34-4.25h2.61v10.7h-2.61z"/></g></svg>