<svg xmlns="http://www.w3.org/2000/svg" width="42.2" height="70.72" viewBox="37.99 -69.46 42.2 70.72"><title>Car-logos_Maserati</title><g fill="#333"><path d="M59.09-69.46c-5.68 0-11 3.72-15 10.46s-6.1 15.51-6.1 24.9 2.16 18.24 6.1 24.9 9.31 10.46 15 10.46c5.69 0 11-3.71 15-10.46s6.1-15.49 6.1-24.84-2.16-18.24-6.09-24.9c-3.93-6.66-9.31-10.52-15.01-10.52zm0 69.68C53.8.22 48.8-3.31 45-9.73c-3.8-6.42-5.95-15.15-5.95-24.37S41.16-51.97 45-58.47c3.84-6.5 8.8-9.95 14.09-9.95s10.31 3.53 14.1 9.95 6 15.16 6 24.43-2.11 17.87-5.95 24.37C69.4-3.17 64.4.23 59.09.23V.22z"/><path d="M68.94-36.08v-.36H49.26v.36h9.83zM59.09-34h9.85v-.36H49.26v.36zm10.89-1.49H48.21v.37h21.77zm-2.44 4.11c.81-.04 1.44-.72 1.4-1.53v-.04h1v-.44h-21.6v.44h1c-.06.81.56 1.51 1.36 1.57h.04c1 0 1.31-.61 1.31-1.48 1 0 4.46 0 4.46 4.18h5.33c0-4.18 3.5-4.18 4.46-4.18-.11.87.27 1.48 1.24 1.48zm-4.75 3.18h-7.38c-.1 0-.18.08-.18.18v1.46c.01.1.08.17.18.18h7.38c.1-.01.17-.08.18-.18v-1.48a.183.183 0 0 0-.18-.16zm-14.6-9.69v1.09h21.77v-1.09h-.95c0-5.19.95-11.64 4.57-16.41-2.34.53-5.21 3-6.38 4.56 1-.32 1.81-1 2.65-1.27-.84 1.8-3.29 9.23-3.29 13.12h-2.34c-2.77-4.66-4.36-7.2-4.36-16.73 1.48.85 2 1.48 3.61 1.8-1.81-1.8-4.41-5.82-4.41-9.74 0 3.92-2.6 7.94-4.4 9.74 1.59-.32 2.12-.95 3.61-1.8 0 9.53-1.58 12.07-4.36 16.73h-2.33c0-3.89-2.45-11.32-3.29-13.12.84.32 1.7 1 2.65 1.27-1.16-1.54-4-4-6.37-4.56 3.62 4.77 4.62 11.26 4.62 16.41h-1zm11.89-4.66c.32 1.8 1.49 3.18 2.23 4.66h-2.23v-4.66zm-2 0v4.66h-2.23c.76-1.48 1.92-2.86 2.24-4.66h-.01zm8.13 26.92h1.09l-.56-2.1z"/><path d="M61.95-22.58v-3.19c0-.1-.08-.18-.18-.18h-5.33c-.1-.01-.18.07-.19.17v3.2H41.07c2.69 12.81 9.75 22 18 22s15.35-9.15 18-22H61.95zM48.5-13.9h-.73v-4.45l-1.21 3.54-1.13-3.54v4.45h-.73v-5.66h1.2l.71 2.47.71-2.47h1.2l-.02 5.66zm3.62 0l-.23-.88H50.3l-.2.88h-1l1.53-5.66h.85l1.61 5.66h-.97zm4.54-.74c-.11.26-.3.48-.54.63-.26.15-.56.22-.86.21-.51 0-.89-.17-1.74-.8l.58-.74c.73.49.92.57 1.16.57.22.02.43-.07.57-.23.13-.15.2-.35.2-.55a.6.6 0 0 0-.36-.59c-.1 0-.34-.19-.66-.34a5.29 5.29 0 0 1-1-.7c-.31-.24-.51-.61-.54-1 0-.28.07-.56.19-.82.11-.22.29-.41.51-.53.84-.36 1.82-.12 2.41.58l-.63.66c-.22-.24-.5-.4-.81-.48-.2-.05-.41.01-.57.14-.09.09-.14.22-.13.35 0 .13.05.25.13.34.23.23.49.44.77.6.4.23.72.4.9.54.43.33.47.53.5.62.1.23.14.49.12.74-.01.28-.08.55-.2.8zm3.47.74h-2.61v-5.66h2.53v1h-1.72v1.25h1.56v.95h-1.56v1.55h1.8v1-.09zm3.76 0h-.8l-.63-1.26h-.47v1.23h-.8v-5.66h.8c1.21 0 2.45.37 2.45 2.09.14.93-.39 1.82-1.26 2.16l.71 1.44zm3.9 0l-.22-.88h-1.6l-.2.88h-1l1.53-5.66h.89l1.61 5.66h-1.01zm3.9-4.7h-1.17v4.7h-.81v-4.7h-1.17v-1h3.15v1zm.91 4.7v-5.66h.8v5.66h-.8z"/><path d="M50.55-15.63h1.09l-.56-2.1zm11.43-3.07v2.74c.66 0 1.56-.13 1.56-1.46 0-1.1-.79-1.28-1.56-1.28z"/></g></svg>