<svg xmlns="http://www.w3.org/2000/svg" width="34.5" height="44" viewBox="0 0 34.5 44"><path fill="#B20503" d="M11.5 11.5C5.16 11.5 0 15.76 0 21c0 2.41 1.08 4.68 3.06 6.45l-1.27 5.38 6.66-2.66c1.01.23 2.03.34 3.05.34 6.34 0 11.5-4.26 11.5-9.5s-5.16-9.51-11.5-9.51M4.62 29.54l.45-1.92c.13-.55-.06-1.12-.49-1.49C2.92 24.72 2 22.9 2 21c0-4.14 4.26-7.5 9.5-7.5S21 16.86 21 21s-4.26 7.5-9.5 7.5c-.91 0-1.84-.11-2.74-.32-.3-.07-.62-.05-.9.07l-3.24 1.29z"/><g fill="#B20503"><path d="M22.5 41c.55 0 1-.45 1-1s-.45-1-1-1-1 .45-1 1 .45 1 1 1"/><path d="M30.5 0h-16c-2.21 0-4 1.79-4 4v8h2V8h20v28h-20v-6h-2v10c0 2.21 1.79 4 4 4h16c2.21 0 4-1.79 4-4V4c0-2.21-1.79-4-4-4m2 40c0 1.1-.9 2-2 2h-16c-1.1 0-2-.9-2-2v-2h20v2zm0-34h-20V4c0-1.1.9-2 2-2h16c1.1 0 2 .9 2 2v2z"/><path d="M23.5 3h-2c-.55 0-1 .45-1 1s.45 1 1 1h2c.55 0 1-.45 1-1s-.45-1-1-1"/></g></svg>