<svg id="Слой_1" data-name="Слой 1" xmlns="http://www.w3.org/2000/svg" viewBox="0 0 59.78 59.78">
  <defs>
    <style>
      .cls-1 {
        fill: #999;
      }
    </style>
  </defs>
  <title>Car-logos_BMW</title>
  <g>
    <path class="cls-1" d="M289.11,287A29.89,29.89,0,1,0,319,316.89,29.93,29.93,0,0,0,289.11,287Zm0,59a29.06,29.06,0,1,1,29.06-29.07A29.1,29.1,0,0,1,289.11,346Z" transform="translate(-259.22 -287)"/>
    <path class="cls-1" d="M272.07,305.16l.09.07,0,0,1.75-2.18.64-.8a.92.92,0,0,0,.13-.93.9.9,0,0,0-.84-.53,1,1,0,0,0-.73.4l-.77,1-1.58,2,.82.66Z" transform="translate(-259.22 -287)"/>
    <path class="cls-1" d="M289.11,288.35a28.54,28.54,0,1,0,28.55,28.54A28.54,28.54,0,0,0,289.11,288.35Zm-4.61,1.78,2.68-.3,1.93,5.65,1.93-5.65,2.67.3.29,8-2.08-.3-.2-5.35-1.88,5.35h-1.49l-1.88-5.35-.2,5.35-2.08.3Zm-18,13.22-.64-.52-.08-.06.11-.14,1.66-2.08,1.94-2.42.37-.46a2,2,0,0,1,.83-.61,1.94,1.94,0,0,1,2.55,1.36,2.06,2.06,0,0,1,0,1.07l.14-.12a2.16,2.16,0,0,1,3.43,1.48,2.22,2.22,0,0,1-.07.85,4.19,4.19,0,0,1-.89,1.36l-2,2.49-1.66,2.07-.12.15s-.05,0-.06,0l-.62-.49-2.42-1.94Zm22.63,31.39a17.84,17.84,0,1,1,17.84-17.84A17.84,17.84,0,0,1,289.11,334.73Zm17-27.07-1-1.75,3.53-4.63-5.29,2.43-1.49-1.38,4.83-6.34,1.49,1.38L305.36,301l4.46-2,1.3,1.62-3,3.9,4.18-1.92,1,1.75Z" transform="translate(-259.22 -287)"/>
    <path class="cls-1" d="M272,300.06a.89.89,0,0,0-1.21-1,1.51,1.51,0,0,0-.56.53l-1.88,2.34a2.25,2.25,0,0,0-.14.18l.38.31,1,.81,1-1.24,1-1.23A2,2,0,0,0,272,300.06Z" transform="translate(-259.22 -287)"/>
    <path class="cls-1" d="M272.17,316.89h16.94V300A17.41,17.41,0,0,0,272.17,316.89Z" transform="translate(-259.22 -287)"/>
    <path class="cls-1" d="M289.11,333.83A17.41,17.41,0,0,0,306,316.89H289.11Z" transform="translate(-259.22 -287)"/>
  </g>
</svg>
