<svg xmlns="http://www.w3.org/2000/svg" width="47.63" height="61.05" viewBox="22 -29.05 47.63 61.05"><title>Car-logos_Porsche</title><g fill="#333"><path d="M22-9.16c.13 3.83.27 8.41.43 13 .04 1.94.33 3.87.86 5.74 1.89 6.25 5.5 11.85 10.42 16.15 3.07 2.83 6.78 4.89 10.81 6 1.29.44 2.69.33 3.9-.29 1.8-1 3.63-1.91 5.38-3 5.37-3.3 9.67-8.07 12.4-13.75 1.85-3.61 2.94-7.56 3.22-11.61.15-2.8.15-5.61.17-8.41v-19.29a.853.853 0 0 0-.67-1h-.01c-2.09-.59-4.16-1.27-6.28-1.75a79.036 79.036 0 0 0-15.1-1.71c-5.91-.16-11.81.48-17.54 1.9-2.58.6-5.09 1.44-7.51 2.51-.34.12-.56.45-.52.81.05 4.69.04 9.31.04 14.7zm1.45 11.88c-.11-2.61-.25-5.23-.31-7.84-.07-3.44-.07-6.88-.12-10.32a.67.67 0 0 1 .45-.72c4.07-1.97 8.43-3.31 12.91-3.95 2.65-.37 5.33-.53 8-.77.15-.01.3-.01.45 0 .12.01.22.11.22.23v10.48c0 .12-.1.22-.22.22h-6.89c-.12 0-.17-.08-.09-.18.31-.31.79-.29 1.13-.49.07-.03.11-.11.08-.18-.01-.04-.04-.06-.08-.08a2.05 2.05 0 0 0-2.05.29c-.2.16-.37.34-.52.55-.22.39-.65.61-1.09.57-.33 0-.67.02-1 .07a.17.17 0 0 1-.19-.15v-.05c.14-.55.47-1.04.92-1.39.16-.15.37-.23.53-.37.05-.04.1-.1.13-.16.05-.08.02-.18-.06-.23-.01-.01-.02-.01-.03-.02a.375.375 0 0 0-.21 0c-.85.16-1.59.69-2 1.45-.08.15-.14.3-.2.46-.11.26-.15.66-.34.75-.49.21-1.01.36-1.54.45-.06 0-.24-.22-.23-.33.02-.6.25-1.17.67-1.6.13-.14.26-.3.41-.48s0-.19-.08-.2c-.47-.07-.94.12-1.23.49-.53.59-.85 1.35-.89 2.15a.52.52 0 0 1-.39.55c-.28.1-.56.23-.84.36s-.47 0-.47-.31c-.04-.71.16-1.42.58-2 .04-.04.07-.09.1-.14.04-.07.02-.15-.05-.19a.145.145 0 0 0-.07-.02.99.99 0 0 0-1 .53c-.36.69-.53 1.46-.48 2.24 0 .46-.76 1.17-1.21 1.11-.11 0-.22-.14-.3-.24s-.22-.4-.38-.45c-.23-.1-.48-.1-.71 0-.14.12-.12.48-.09.71.03.11.09.21.17.3.07.09.05.22-.04.29 0 0-.01 0-.01.01l-.46.32a.67.67 0 0 0-.14.94c.17.23.48.33.76.23.38-.25.88-.22 1.22.08.25.1.53.07.75-.09.13-.23.15-.51.06-.76-.08-.27-.27-.47.1-.66 2.66-1.52 5.62-2.43 8.67-2.68.19-.01.37-.01.56 0h.12c.07 0 .13.13.13.25v3.62c0 .29-.39.54-.5.85s-.51.29-.8.33-.67.06-1 .1-.51-.15-.45-.53c.09-.82.56-1.56 1.26-2l.12-.09c.06-.06 0-.12-.1-.13-.71.03-1.36.41-1.75 1-.21.4-.34.83-.4 1.28-.1.78-.07.79-.85 1l-.83.21h-.1c-.06 0-.13-.1-.15-.22-.17-.91.15-1.84.84-2.46.09-.09.07-.18-.05-.19-.52-.01-1.01.26-1.28.7-.43.62-.56 1.4-.37 2.13.07.34 0 .5-.32.6-.28.11-.55.25-.82.39-.3.16-.47.07-.55-.26-.2-.74-.07-1.54.35-2.18l.12-.18c.07-.1 0-.2-.1-.19-.42.03-.8.27-1 .64-.37.6-.48 1.32-.31 2 .18.81.2.88-.44 1.24-.11.07-.25.07-.36 0l-.47-.4a.544.544 0 0 0-.78-.04c-.02.01-.03.03-.04.04-.15.22-.19.5-.1.75.26.45.21.7-.24 1a.68.68 0 0 0-.28.92c.01.03.03.05.05.08.28.26.72.26 1 0 .11-.08.21-.17.31-.26.22-.23.42-.2.66 0 .14.14.32.23.52.26.26-.02.5-.13.68-.31.1-.13 0-.44 0-.64-.07-.14-.16-.27-.27-.38a.177.177 0 0 1-.03-.25l.03-.03c2.6-1.55 5.52-2.48 8.53-2.71.12-.01.21.08.22.2v5.42c0 .13-.1.23-.22.24h-12.1c-.69.1-.71.1-.74-.58zm11.27 20.81l-.24 1c0 .12-.09.21-.14.2s-.08-.11-.08-.23v-.57c0-.14.05-.28.14-.39l.1-.11c.08-.09.17-.15.21-.12.03.07.03.15.01.22zm10.63.34c-.19.19-.56.33-.37.65.08.08.08.22 0 .3-.32.24-.3.32.15.71.09.08.11.14.06.13h-.54c-.1.1-.15.24-.12.38.11.11.25.2.4.24.1 0 .25 0 .31.11s-.06.2-.07.3c-.01.15-.01.29 0 .44 0 .14-.05.27-.16.35-.18.07-.27.27-.2.45l.03.06s-.07.13-.1.2-.2.42-.14.48c.13.1.29.17.45.2.12 0 .2.14.2.22s-.09.1-.19 0c-.06-.03-.12-.06-.19-.08-.11 0-.29-.08-.34 0-.12.1-.19.25-.2.41 0 .1.18.22.31.27.15.06.31.1.47.13.12 0 .2.11.18.17s-.13.09-.24 0c-.16-.07-.33-.13-.5-.18l-1.08-.29h-.23c-.01 0-.05 0-.1-.1a.404.404 0 0 0-.3-.17h-.29c-.09 0-.16-.07-.16-.16 0-.02 0-.04.01-.06.02-.07.04-.14.05-.21.04-.14.04-.3 0-.44 0-.09-.25-.2-.32-.17-.13.1-.24.22-.31.36-.03.06-.06.12-.08.18-.03.06-.11.08-.16.05a.12.12 0 0 1-.05-.05.818.818 0 0 0-.36-.18h-.29a.16.16 0 0 1-.14-.18c0-.02.01-.04.02-.06.17-.32.31-.66.43-1 0-.06 0-.14-.11-.23a.248.248 0 0 0-.32-.06c-.09.04-.16.1-.2.18-.11.34-.13.71-.22 1.06h-.15c-.08 0-.15-.09-.13-.21.04-.21.04-.42 0-.63-.05-.16-.74-.27-1.13-.24a.35.35 0 0 1-.31-.15.472.472 0 0 0-.64-.17c-.11 0-.17 0-.14-.12.03-.14.07-.28.13-.41.16-.32 0-.47-.28-.57-.18-.11-.39-.17-.6-.18-.18.05-.35.12-.5.23-.1.06-.17 0-.14-.11l.15-.6c0-.15.14-.34.09-.44a.46.46 0 0 0-.41-.17c-.12.06-.18.27-.25.42-.03.05-.05.11-.07.17 0 .1-.1.17-.16.16s-.1-.12-.09-.24a1.13 1.13 0 0 1 0-.26c.12-.33.2-.67.3-1s-.13-.36-.38-.31c-.11.03-.22 0-.29-.09v-.19h.08c.42.06.86 0 1.23.29.06.05.21 0 .34 0 .13-.04.26-.01.36.08l.13.14c.06.08.17.1.25.04.01-.01.03-.02.04-.04l.3-.4c.08-.09.21-.12.32-.07.28.09.7 0 1 .34.24.18.52.27.82.27.12 0 .26-.23.38-.36s.12-.15.17-.23.15-.16.19-.14 0 .14 0 .24l-.16.28c-.06.11-.03.25.07.33l.18.14c.06.05.15.05.2-.01a.09.09 0 0 0 .03-.07c0-.14.07-.27.1-.38.03-.14.11-.27.22-.36.12-.07.21 0 .29.13.05.11.17.17.29.13l.25-.09c.12-.04.26 0 .34.1l.12.15c.06.07.16.09.24.03l.03-.03.24-.32c.07-.1.19-.15.31-.15.09 0 .1.08 0 .14-.05.04-.1.08-.14.13-.06.1-.16.28-.12.33.11.11.24.19.39.24.13.05.28.06.42.11s.3.19.37.15c.14-.09.23-.24.26-.4.06-.41.11-.51.41-.39.07.12.14.26.06.35zM68.17 4.2c-.49 4.47-1.97 8.78-4.34 12.61-1.9 3.18-4.35 5.99-7.23 8.31a46.87 46.87 0 0 1-9 5.57c-.12.06-.26.11-.41.18-.07.03-.15 0-.19-.07-.01-.02-.02-.05-.01-.07V13c0-.12.1-.26.22-.23.34.07.73.41 1 .08.06-.11.18-.16.3-.13.23.13.5.2.77.18.16 0 .23-.36.36-.68a.53.53 0 0 1 .29-.28c1.38-.62 2.63-1.51 3.65-2.63.1-.09.21-.15.34-.19 3.35-1.2 6.63-1.29 9.78.63.25.15.49.34.82.58.1.07.17 0 .16-.1.02-.22-.01-.44-.09-.65-.24-.42-.53-.82-.86-1.17-.31-.33-.33-.53.13-.74s.94-.4 1.51-.62c.11 0 .12-.14 0-.21a.894.894 0 0 0-.41-.24 2.19 2.19 0 0 0-2.18.63c-.16.18-.45.44-.62.41-.45-.11-.89-.29-1.3-.51-.03-.15-.01-.3.07-.43.35-.39.71-.75 1.1-1.1.11-.1.22-.18.35-.24a.16.16 0 0 0 .04-.22c-.01-.01-.02-.03-.04-.04a1.52 1.52 0 0 0-1.73 0c-.43.31-.8.71-1.08 1.17-.29.5-.57.83-1.19.76-.18-.02-.36-.02-.54 0a.163.163 0 0 1-.18-.16v-.04c.13-.78.61-1.47 1.31-1.85.11-.06.1-.15 0-.21a.701.701 0 0 0-.28-.12 2.54 2.54 0 0 0-2.57 1.93c-.27.91-.33 1-1.24 1.14-.12 0-.18-.06-.12-.17.18-.29.33-.6.44-.93.24-.85.43-1.72.59-2.59.05-.28.13-.4.44-.4h11.49c.39.04.49.21.45.57zM23.63-24c2.57-1.13 5.25-2 8-2.6 5.6-1.24 11.35-1.75 17.08-1.5 5.68.16 11.33.96 16.83 2.4.89.26 1.76.57 2.62.92.2.1.34.28.38.49v6.68c.01.05.01.09 0 .14 0 .08-.12.11-.24.07-.9-.32-1.78-.66-2.66-1a62.609 62.609 0 0 0-10.73-2.59l-.44-.06c-2.5-.37-5.02-.52-7.55-.46-.87 0-.87 0-.87.87v3.9c0 .48.12.63.62.63h21.54c.12 0 .22.1.22.22v.12c0 .12-.1.22-.22.22H46.72c-.72 0-.72 0-.72.74v4.71c.01.1.03.2.07.3.02.09.11.15.21.12.02 0 .04-.01.05-.02l.23-.12c.11-.06.23-.1.35-.11.42 0 .58-.16.48-.5v-.3l.11-.1h.06s.12 0 .2.14c.26.29.51.33.61 0 .07-.31.18-.61.3-.9 0 0-.06-.09-.16-.17a.212.212 0 0 0-.31 0c-.07.07-.14.15-.19.24-.04.08-.07.16-.09.24 0 .12-.1.2-.16.19s-.09-.12-.07-.23 0-.14 0-.2.16-.33.12-.38c-.14-.12-.3-.22-.47-.29l-.18-.11c-.1-.06-.09-.16 0-.25.19-.13.25-.4.13-.6-.08-.1-.22-.14-.34-.1-.07.04-.16.01-.2-.06a.188.188 0 0 1-.02-.08v-1c.03-.09.09-.17.18-.21.09-.02.19.01.26.07.05.06.09.13.12.2.05.07.14.09.21.04.02-.01.03-.03.04-.04l.34-.34.13-.13c.07-.08.15-.11.18-.08s0 .11 0 .18c-.03.04-.06.09-.08.14 0 .13-.08.32 0 .4.1.1.25.15.39.12.12-.06.2-.23.27-.38.05-.11.08-.23.11-.35 0-.12.12-.14.19 0 .22.27.4.43.62.26s.2-.07.25 0 .22.39.56.24c0 0 .11 0 .15.08s.41.3.6.06c.06-.13.09-.27.08-.41 0-.12.08-.22.16-.22s.13.09.12.21 0 .14 0 .21c-.03.15-.03.31 0 .46.08.09.21.13.33.11.11-.11.2-.25.25-.4.05-.11.09-.22.12-.33.01-.07.08-.12.15-.11.03.01.06.02.08.05l.21.19c.08.09.21.09.3.01l.01-.01.29-.33c.09-.1.23-.15.36-.13l1.26.22c.09.01.16.1.14.19 0 .02-.01.03-.01.05-.04.1-.07.2-.08.31 0 .12.03.24.08.35.05.11.17.18.29.15.09 0 .17-.05.19-.1.12-.33.21-.66.29-1 .04-.11.15-.19.27-.17.35 0 .74-.08 1.1.2.08.07.29 0 .53-.08s.18 0 .13.15l-.21.54s-.07.12-.06.13c.12.16.26.3.42.41.19.12.4.18.62.19.27 0 .48-.15.39-.49 0-.07.07-.16.09-.24s.14-.34.1-.48a.324.324 0 0 0-.39-.24c-.05.01-.1.04-.14.08h-.06a.127.127 0 0 1 0-.12s.1-.06.22-.06c.28-.03.57.02.83.13.13.12.31.17.49.14.11-.06.24-.06.35 0 .13.12.25.22.36.21s.26-.17.42-.34c.08-.08.2-.13.31-.11.13.02.25.02.38 0 .47 0 .93.13 1.33.37.09.06.33-.1.48-.2a.2.2 0 0 0 .08-.12c0-.07.07 0 .08.08s0 .22 0 .32c.01.13.11.23.24.24.32 0 .37-.27.37-.59-.01-.08.05-.15.13-.15.03 0 .05 0 .07.01l.23.1c.09 0 .2.17.25.15.32-.18.51 0 .76.17.08.05.32-.15.47-.25.04-.03.08-.07.11-.11.05-.07.07 0 0 .09-.14.35 0 .42.51.53.26.06.49.36.77.2.1-.06.19-.05.23.07.03.13 0 .27-.08.37-.25.28-.23.35.15.65.1.08.08.16 0 .19-.15.03-.29.08-.43.14-.05.11-.05.23 0 .34.14.08.3.14.46.18.12 0 .26.16.2.27s-.47.47-.13.72c.1.08.09.11 0 .14-.47.13-.27.61-.4.93-.05.11 0 .17.08.17h.16c.12.01.21-.08.22-.2 0-.11 0-.2.08-.21s.09.09.09.21v.52c.01.12-.09.23-.21.24h-12.6c-.45 0-.62.09-.6.58 0 1.32.07 2.64.06 3.95 0 .53.2.64.68.64h12.21c.13 0 .24.09.26.22v.14c.02.11-.06.21-.17.23H55.91c-.74 0-.74 0-.73.75v4.71c0 .56 0 .57.54.33h.27l.32-.14c.09-.05.13-.16.09-.25 0-.01-.01-.02-.02-.03-.06-.09-.13-.17-.2-.25-.05-.05-.1-.09-.16-.13-.09-.07 0-.11.07-.07.45.16.47.08.63-.57 0-.05.1-.09.11-.16s.11-.37 0-.46a.703.703 0 0 0-.37-.17c-.12 0-.22-.13-.22-.21v-.14c0-.18.2-.44.14-.51-.12-.1-.27-.17-.42-.21a.306.306 0 0 1-.18-.29c0-.18 0-.39.07-.63 0-.1.09-.18.19-.17h.03l.2.05c.13 0 .31.11.39.06.13-.09.21-.23.22-.39 0-.33.09-.37.29-.31.07.02.12.1.09.18-.01.03-.02.05-.04.06-.19.22-.3.43-.14.66.04.06.08.11.14.15l.2-.06c.19-.07.31-.2.26-.5 0-.08.05-.18.14-.29.03-.06.1-.09.16-.06.03.01.05.03.06.06v.05c.07.12.18.21.32.23.23 0 .31-.09.38-.43.02-.12.13-.2.25-.18.35 0 .72 0 1 .23.05.04.1.1.13.16h.43c.12 0 .16.09.08.18a.76.76 0 0 0-.12.19c-.04.13-.04.26 0 .39.07.11.18.17.31.17.14-.04.26-.14.33-.27.09-.28.15-.57.21-.87.02-.12.14-.21.26-.19l1.44.21h.22l.1.13v.1c.04.08.08.16.13.23.09.02.17.02.26 0h.1c.12 0 .18 0 .14.14-.03.06-.05.12-.07.18 0 .16-.11.35-.05.47.1.11.25.16.4.12.11-.07.15-.27.2-.42s0-.2.07-.3l.09-.27a.212.212 0 0 0-.13-.27h-.01l-.28-.09h-.08c-.04 0-.08-.04-.08-.08 0 0 .09-.06.22-.06h.64c.21 0 .42.09.64.11.14.02.27.08.38.17.31.28.4.26.68-.12.09-.1.22-.15.35-.15.31 0 .66-.11.94.06.09.04.15.13.15.23 0 0-.12.06-.23 0-.19-.05-.37-.12-.55-.19-.34-.16-.47 0-.55.3-.01.12-.01.24 0 .36 0 .19-.15.43-.07.56s.22.12.43.16c.09.01.16.09.16.18 0 .01 0 .03-.01.04l-.06.18c0 .14-.11.32-.06.43s.3.2.37.16c.11-.12.19-.26.24-.41.03-.11.07-.22.12-.33.23-.36.14-.57-.28-.62h-.23c-.03-.05-.06-.1-.07-.15 0-.09 0-.16.1-.16h.14c.16.06.31.14.5.23.12.05.18.19.14.31-.1.3-.18.61-.25.92-.02.1-.02.21 0 .31.04.13.01.27-.08.37-.11.11-.22.22-.2.31s.17.23.32.36c.1.09.15.22.15.36 0 .43-.03.92-.09 1.45-.01.12-.11.22-.23.22H55.69c-.42 0-.57.14-.58.55-.08 3.86-3.16 7-6.54 8-.56.19-1.13.32-1.72.38-.55 0-.66.28-.65.77v18.03c0 .09-.12.21-.22.14s-.16-.38-.17-.58v-7.26c0-.65-.12-.78-.82-.78h-12.8c-.2-.03-.39-.1-.55-.21-.1-.06-.18-.14-.17-.21s.13-.11.24-.11h13.42c.72 0 .73 0 .73-.75v-4.56c0-.64 0-.65-.66-.65l-17.31.09c-.62 0-.74 0-.85-.63-.02-.07.02-.15.1-.17.03-.01.06-.01.08 0l.31.06c.15 0 .32.1.44.05s.22-.29.18-.34a.927.927 0 0 0-.42-.31c-.3-.1-.6-.18-.85-.24a.235.235 0 0 1-.17-.27c0-.21.07-.39.11-.56s0-.21 0-.21 0-.08.07-.18l.08-.14c.06-.1.02-.23-.08-.29h-.01c-.11-.06-.22-.11-.33-.16-.3-.07-.59-.18-.86-.32-.23-.17-.13-.27 0-.36.1-.1.15-.24.13-.38-.08-.3-.31-.36-.68-.27-.12 0-.17 0-.11-.14.06-.11.19-.16.31-.12.15.08.33.12.5.12.08 0 .13-.17.19-.35.05-.12.17-.19.3-.18l.6.07c.14.02.26.09.36.19.22.23.31.19.59-.15.08-.09.13-.07.13 0 0 .37.17.49.59.38.12 0 .18 0 .14.15-.04.11-.07.22-.1.33-.03.14-.03.3 0 .44.07.11.19.16.32.15.12-.08.22-.19.27-.33.08-.18.15-.37.21-.56 0-.09.06-.23 0-.27-.13-.09-.26-.17-.41-.23l-.18-.07c-.1 0-.16-.11-.14-.16s.13-.08.25-.06c.28-.01.56.07.81.21.38.33.57.24.72 0s.15-.1.18 0c.04.14.11.26.2.37h.22a.58.58 0 0 1 .41 0l.62.32c.11.05.18.14.17.19s-.11.09-.21.09c-.05.02-.12.02-.17 0-.18-.18-.35-.29-.55-.07s-.11.32-.08.34c.11.06.23.11.36.14.14.03.28.08.41.14.1.08.22.13.35.13.25 0 .31-.26.2-.51 0 0 .13-.16.18-.25s.16-.27.12-.35-.21-.18-.33-.25l-.18-.08c-.11 0-.16-.12-.13-.19a.21.21 0 0 1 .26 0c.34.19.71.33 1.09.4.31 0 .4-.18.35-.42s0-.2.13-.2h.92c.05.13.07.26.06.4 0 .16-.17.39-.11.47s.33.13.49.2.19.08.19.13c.01.08.01.17 0 .25 0 .12-.11.14-.18 0s-.09-.13-.13-.15c-.14-.07-.3-.1-.45-.07-.1.09-.15.23-.12.37.06.12.24.17.39.24s.29.1.41.17.55 0 .5-.16c-.06-.24.04-.48.24-.62.08-.07.09-.2.02-.28l-.02-.02-.31-.25c-.05-.03-.1-.06-.15-.07-.08-.04-.11-.15-.07-.23 0-.1.1-.08.18 0 .24.25.7.08.91.3s.19.16.3.11.4-.26.19-.59c-.06-.11 0-.18.09-.19s.27 0 .33 0a.498.498 0 0 0 .8 0c.09-.08.12-.06.08.05-.11.24-.2.49-.26.75 0 .07.08.16.17.25.09.08.23.08.32 0 .09-.07.17-.16.24-.25.03-.06.05-.12.06-.18 0-.1.11-.15.22-.1.35.21.74.36 1.14.44.17 0 .34.06.48.17.11.09.25.14.39.16h.3c.12 0 .23 0 .25.07s0 .09-.11.14c-.05.03-.09.07-.12.11-.06.11-.1.23-.11.35.32.22.68.38 1.05.5.09 0 .24-.2.42-.42.09-.1.22-.14.35-.11l.85.24.29.09.22.05c.12 0 .16.13.11.22-.04.06-.06.12-.08.18v.45c.5.2.4.67.51 1.05v.11c.05.09.15.13.25.12.17 0 .23-.16.23-.38v-2c0-.31-.12-.45-.44-.48-2.01-.21-3.91-1.01-5.46-2.31-.22-.15-.48-.22-.74-.21-4.67 0-9.31.02-13.92.06-.39 0-.64-.08-.68-.52-.01-.12.08-.21.2-.22h13.85c.12 0 .23 0 .24-.08s-.05-.15-.14-.23c-.89-.97-1.45-2.2-1.61-3.51-.1-.6-.15-1.2-.15-1.81 0-4-.05-8.06-.08-12.1 0-.82 0-.83.81-.83h7.29c.47 0 .6-.14.6-.61-.05-3.58-.08-7.16-.09-10.73 0-.45-.14-.63-.62-.61-6.79.1-13.51 1.44-19.82 3.95-.61.25-1.2.52-1.83.81-.07.04-.16.01-.2-.06-.01-.02-.02-.04-.02-.06v-6.33c.12-.25.35-.42.62-.47z"/><path d="M59.39-1.78c.14.04.28.08.42.13.14.05.28.12.38.08.16-.05.24-.22.19-.38l-.03-.06-.09-.18h-.21c-.21 0-.43.07-.57-.2a.415.415 0 0 0-.31 0c-.08.12-.16.39-.12.41.1.09.22.15.34.2zm4.04-.14c-.08.02-.17.02-.25 0-.17-.09-.35-.16-.53-.21 0 0-.05.07-.1.15-.04.11.02.22.12.27l.33.17c.08 0 .17 0 .25.08l.25.09c.08.04.18.01.21-.07.01-.02.02-.04.02-.07v-.19c.03-.08.03-.18 0-.26 0 0-.19-.04-.3.04zM37.42-8.3V3.58c-.01 1.31.34 2.6 1 3.73a8.919 8.919 0 0 0 5.86 4.14c.73.24 1.51.33 2.28.26 2.16-.35 4.18-1.3 5.82-2.76a6.385 6.385 0 0 0 2.36-5.09V-8.48c0-.44-.12-.58-.57-.58h-16c-.68.06-.75.06-.75.76zm8.61-.18h7.39c.5 0 .67.12.67.65V4.06a5.993 5.993 0 0 1-2.28 4.46 10.818 10.818 0 0 1-5.29 2.6c-.33.04-.67.02-1-.06a9.548 9.548 0 0 1-5.38-2.58 7.422 7.422 0 0 1-2.06-5.09c-.07-3.76 0-7.53 0-11.29 0-.44.13-.58.58-.57 2.42.01 4.9 0 7.38-.01h-.01zm16.6-12.18c.72.23 1.46.4 2.19.62.88.26 1.75.54 2.62.83.09.03.2-.01.23-.11 0-.01.01-.03.01-.04.11-.79 0-.82-.76-1.1s-1.89-.62-2.84-.91c-.56-.17-.67-.27-.48-.86.04-.11.16-.17.28-.14l3.59 1.1c.09.04.19 0 .22-.08.01-.02.01-.04.02-.07.07-.67 0-.71-.71-1-1.06-.35-2.14-.67-3.22-1a.313.313 0 0 1-.21-.29V-24c0-.09.06-.16.15-.17.02 0 .04 0 .06.01l3.65 1c.11.03.23-.04.26-.15v-.01c.15-.71.08-.76-.68-1s-1.64-.5-2.47-.73c-.66-.18-1.32-.33-2-.49h-.25a.11.11 0 0 0 0 .08v4.4c-.07.17.15.36.34.4zm-38.74 1.88c0 .1.08.18.18.18h.04c.94-.17 1-.33 1.06-1.25-.03-.3.17-.57.46-.63 1.12-.41 2.24-.82 3.37-1.22.46-.1.78-.53.74-1v-1.52a.705.705 0 0 0-.63-.77h-.06c-.27-.03-.53-.01-.79.07-1.33.45-2.67.93-4 1.42-.17.1-.28.28-.29.48v3.14l-.08 1.1zm1.3-3.8a.34.34 0 0 1 .21-.29c.91-.3 1.83-.62 2.77-.9.15 0 .52.1.52.16 0 .27 0 .74-.15.8-1 .42-2.05.77-3.13 1.15-.08.03-.16 0-.2-.08-.01-.02-.01-.04-.01-.06l-.01-.78zm19.3-1.95h2.88c.32 0 .54.11.53.45s-.3.3-.53.3h-2.43c-.34 0-.67 0-1 .06-.12.01-.22.11-.22.23v.49c0 .12.1.22.22.22h3.7c1.22 0 1.33-.47 1.38-1.47-.01-.17-.03-.34-.07-.5.01-.4-.31-.72-.71-.73h-.04l-3-.09c-.26 0-.58.13-.63-.28s.27-.48.59-.5c.63 0 1.25-.05 1.87-.06h1.44c.12 0 .22-.06.23-.14v-.14c.08-.51-.1-.71-.65-.7-1 0-1.92-.06-2.88 0-1.55 0-1.83 0-1.73 2 .08.64.38.87 1.05.86zm-13.97 1.61v1.2c0 .73.39 1 1.09.82 1.14-.28 2.28-.58 3.43-.84.74-.17 1-.44 1-1.18v-2.58c0-.66-.38-1-1-.9-1.27.23-2.54.51-3.81.77-.46.06-.79.46-.76.92v1.34a.41.41 0 0 0 0 .22c.04.07.05.15.05.23zm1.66-1.86c.74-.16 1.48-.32 2.22-.45.37-.06.58.12.57.51s0 .54 0 .81c0 1.29.19 1.06-1.1 1.4-.54.14-1.07.26-1.6.42s-.61 0-.61-.43v-1.56c-.03-.33.19-.63.51-.7h.01zm5.06 2.61c.81.08.91-.07.93-.9v-.1c0-.34.12-.48.46-.5.53 0 1.07-.1 1.61-.16.92-.1 1 0 1.35.86 0 .14.2.32.32.34.25.03.49.03.74 0 .09 0 .16-.08.16-.16 0-.02-.01-.05-.02-.07l-.54-1.37a.552.552 0 0 1 0-.4c.22-.47.29-1 .21-1.52 0-.71-.29-1-1-1-1.38.08-2.75.21-4.13.34-.16.05-.28.18-.32.34v4.05c0 .13.1.24.23.25zm1-3.55c.04-.13.14-.22.27-.26.75-.09 1.5-.15 2.25-.22.36 0 .52.13.54.49s0 .73-.43.78c-.79.11-1.58.16-2.43.24a.202.202 0 0 1-.22-.18v-.02c-.01-.28-.01-.55.01-.83h.01zM56.18-22l.64.12c.1.02.19-.04.22-.14v-1.63c0-.09.07-.17.16-.18.02 0 .04 0 .06.01.93.21 1.79.4 2.65.61.08 0 .17.23.18.36v1.32c.02.15.12.28.25.35.2.07.4.12.61.15.09.03.18-.02.21-.11.01-.02.01-.05.01-.07v-4.33a.4.4 0 0 0-.22-.27c-.21-.05-.43-.09-.65-.12-.1-.02-.19.05-.21.15v1.34c.01.09-.06.18-.15.19-.02 0-.05 0-.07-.01-.91-.19-1.75-.35-2.58-.55-.1 0-.22-.23-.23-.36v-1.06c0-.12-.11-.3-.2-.33a3.52 3.52 0 0 0-.65-.1c-.1-.02-.2.05-.22.16v4.24c0 .12.08.22.19.26zm-5.64-.65c.64 0 1.28.11 1.92.18l2.48.28c.12.01.23-.07.26-.19.13-.65 0-.72-.67-.81-1-.14-2-.23-3.06-.37-.14 0-.37-.18-.38-.27v-2.13c0-.11.09-.2.2-.2h.02l3.68.29c.11.01.21-.07.22-.18v-.58c0-.13-.1-.23-.22-.24-1.44-.12-2.85-.24-4.25-.33a.709.709 0 0 0-.77.65v3.3c-.05.4.16.57.57.6zm10.9 9.46h.3l.3.1c.11.04.23-.02.27-.13l.1-.3c.03-.1.15-.16.25-.13.01 0 .01 0 .02.01l.24.08c.15.03.3.03.45 0 .06 0 .12-.24.08-.29-.1-.11-.23-.2-.37-.26h-.28l-.3-.13a.2.2 0 0 0-.27.09c0 .01-.01.02-.01.02l-.12.28a.57.57 0 0 1-.25.28c-.09 0-.16 0-.16-.12v-.2c.34-.23.31-.44.13-.63a.32.32 0 0 0-.36-.05.4.4 0 0 0-.18.54c0 .06-.11.17-.16.27s-.14.27-.09.33c.11.11.26.2.41.24zm6.09 1.45l-.35-.12c-.13 0-.3-.14-.4-.09a.41.41 0 0 0-.16.16c-.06.1-.09.21-.05.23s0 .11 0 .19c-.04.05-.06.1-.08.16-.04.15-.04.32 0 .47 0 .07.22.16.26.14.24-.2.34 0 .5.13s.38.07.4 0c.15-.32.26-.66.35-1 0-.06-.17-.18-.27-.25s-.1 0-.2-.02zm-17.9-.88c.13.02.26-.02.34-.12.1-.27.18-.55.25-.83a.268.268 0 0 0-.14-.3c-.23-.1-.49-.22-.76-.31-.09 0-.23.06-.34.12-.06.04-.09.11-.08.18.12.26 0 .43-.2.58-.04.05-.06.11-.06.17.32.19.65.36.99.51zm-17.2 27.25l-.27-.13c-.09 0-.2-.09-.23-.16s.05-.18.08-.28c.07-.15.11-.31.11-.48 0-.06-.32-.18-.36-.13-.11.14-.19.29-.24.46 0 .08 0 .17-.07.26l-.09.29c-.04.11.02.23.13.27h.01l.22.07c.13.05.22.16.25.29v.16c0 .12.11.15.21.07.06-.04.11-.09.16-.15.06-.08.11-.16.15-.24.07-.09.05-.21-.03-.28-.01-.01-.02-.01-.03-.02zm19.49-25.28c.03-.11.05-.22.07-.33 0-.15.18-.35.13-.41-.13-.1-.29-.17-.45-.2l-.28-.07-.39-.07a.137.137 0 0 0-.17.1c-.01.03-.01.06 0 .08v.13c.01.07.03.15.05.22h.29c.07-.01.14.04.15.11.01.04 0 .07-.03.1-.04.08-.06.16-.08.24-.03.13 0 .27.07.38.09.08.21.11.33.08.13-.09.24-.22.31-.36zm2.91-.82h-.37c-.09-.01-.18.06-.18.15v.14c.01.09.04.19.08.27.09.02.18.02.27 0h.12c.12 0 .21.06.19.12-.02.04-.04.07-.06.1-.1.15-.17.31-.2.49 0 .06.32.22.37.18.12-.13.22-.28.28-.45.04-.1.07-.2.1-.3 0-.13.15-.3.11-.37-.11-.11-.24-.19-.38-.24a.954.954 0 0 0-.33-.09zm-26.27 25.3c.12.08.24.14.36.2.11.05.24.05.35 0 .1-.09.16-.23.15-.37 0-.11-.19-.2-.32-.26s-.35-.06-.5-.14-.54-.07-.52.25 0 .35-.18.49c-.08.14-.08.31 0 .45.07.08.3 0 .45 0a.2.2 0 0 0 .12-.08l.09-.1a.757.757 0 0 1-.09-.18v-.24c0-.03.08-.03.09-.02zM66.63 1.3v.05c0 .05-.09.31-.11.47-.04.13-.04.28 0 .41 0 .09.26.18.32.15.12-.1.21-.23.26-.37.03-.1.05-.2.06-.31 0-.12.1-.14.18 0 .24.27.43.43.67.09a.44.44 0 0 0-.05-.4 6.78 6.78 0 0 0-1.07-.29c-.04-.1-.14.11-.26.2zm-27 10.89h.12c.07.01.11.07.1.14.01.04.01.08 0 .12-.32.25-.2.43 0 .66.06.07.16.09.24.03l.03-.03c.08-.13.14-.23.19-.34.05-.14.09-.28.12-.42 0-.13.1-.3.06-.39s-.24-.13-.37-.18c-.12-.05-.25-.09-.38-.11-.17-.03-.34-.03-.51 0 0 0-.1.26-.06.29.14.09.3.17.46.23zM58.16-.46c.1-.1.17-.23.22-.36a.43.43 0 0 0 0-.16c0-.09.09-.13.18-.08l.18.08c.13 0 .31.08.4 0a.4.4 0 0 0 .14-.37c0-.11-.24-.28-.3-.26-.32.13-.46-.06-.59-.24a.19.19 0 0 0-.27-.03l-.03.03c-.08.06-.13.15-.15.24.01.26-.07.52-.22.73 0 .06.06.27.14.4.09.06.2.07.3.02zm-5.68-12.13c.11.05.22.08.34.1.15 0 .31.11.43.06s.18-.3.14-.34c-.12-.11-.26-.2-.42-.25a.739.739 0 0 0-.21 0c-.12 0-.14-.1-.05-.19s.42-.39.1-.65c-.08-.06-.37 0-.39 0-.14.34-.24.69-.31 1.05-.01.04.23.16.37.22zm12.36-.35c.14.05.28.08.42.1.15.03.3.03.45 0 .07 0 .16-.28.12-.33-.12-.12-.26-.21-.42-.27-.1-.03-.2-.05-.3-.05-.12 0-.15-.09-.06-.16s.12-.1.14-.14c.03-.09.06-.18.08-.27.03-.12-.04-.25-.16-.28a.331.331 0 0 0-.24 0c-.11.06-.12.29-.17.43s-.08.21-.13.32-.15.27-.11.34c.1.14.23.24.38.31zm-6.59 2.27c.05.01.09.01.14 0 .17.04.34.04.51 0v-.36c-.31-.17-.65-.3-1-.38-.09 0-.34.23-.33.3.08.28-.06.43-.22.63s0 .18.08.31.14.2.19.2.15-.08.2-.19l.16-.31.05-.15c-.01-.06.02-.12.08-.13.07-.02.13.02.14.08zM64.31-12h-.23a1.31 1.31 0 0 1-.27-.06c-.17 0-.38-.17-.5-.11s-.18.26-.1.41.2.24.32.19.27-.14.36 0 0 .27-.08.36c-.23.27-.23.44 0 .54s.32 0 .35 0c.16-.32.28-.66.38-1 .01-.11-.14-.25-.23-.33zM64.52.7l.3.13c.1 0 .2.12.3.16s.27.11.35.07a.7.7 0 0 0 .26-.33c.06-.14.1-.3.12-.45.04-.14.04-.3 0-.44a.38.38 0 0 0-.37-.07c-.1.07-.14.25-.19.39-.03.08-.05.17-.07.26 0 .12-.11.15-.19 0l-.25-.28a.136.136 0 0 0-.19-.05.12.12 0 0 0-.05.05l-.12.23a.19.19 0 0 0-.02.27c.03.03.08.05.12.06zm-3.59-12.82a.99.99 0 0 0-.17-.11c-.16-.07-.32-.11-.49-.13a.75.75 0 0 0-.42 0c-.09.07-.13.18-.11.29.06.11.21.25.32.24.45 0 .63 0 .24.46-.06.07 0 .34.1.43.12.06.27.06.39 0 .1-.27.17-.54.23-.82.04-.13.01-.27-.09-.36zM37.51 13.44c0-.12.09-.16.19-.09.06.05.13.08.21.09.09.02.17.02.26 0a.23.23 0 0 0 .15-.28c0-.12-.06-.23-.09-.23-.31 0-.55-.23-.79-.26-.58-.06-.25.55-.44.83-.07.1-.13.2-.08.31.04.07.09.14.16.18.24.06.4-.14.43-.55zm3.64.47l-.22-.14c-.07-.04-.1-.13-.06-.2a.17.17 0 0 1 .06-.06c.07-.06.13-.11.14-.16.01-.07.01-.14 0-.21a.248.248 0 0 0-.26-.19c-.11 0-.21 0-.24.08-.15.26-.26.54-.31.83 0 .1.2.35.27.34.2-.06.41.04.51.22.07.12.2.19.34.18.16-.03.27-.19.23-.36-.04-.13-.31-.24-.46-.33zm14.32-25.6l.27.09h.17c.51.29.51.29.65-.3a.36.36 0 0 1 .07-.1c.28-.5.32-.56-.1-.69-.12 0-.28 0-.28.14s.07.4-.06.53a.21.21 0 0 1-.24 0l-.24-.11a.22.22 0 0 0-.29.11.22.22 0 0 0 .02.31c.01.01.02.01.03.02zm-6.79 2.05h.05c.13 0 .25-.08.29-.2v-.12c.01-.08.09-.14.17-.12.02 0 .04.01.06.02.05.03.11.06.17.08.13.05.28.05.41 0 .09-.06.15-.33.1-.37-.1-.07-.21-.13-.33-.17-.12-.05-.22-.06-.23 0s-.09 0-.18-.1c-.26-.22-.51-.23-.59 0-.07.24-.11.48-.14.73a.2.2 0 0 0 .14.25h.08zm9.47 11.27c-.12 0-.24.03-.34.09-.07.06-.06.21-.08.32l-.06.25c0 .11 0 .3.15.3s.23-.16.34-.28a.16.16 0 0 1 .22-.04c.01.01.03.02.04.04.03.05.07.09.11.12.1.07.23.1.35.08a.4.4 0 0 0 .22-.3c-.01-.66-.79-.12-.95-.58zm7.62-2.28c.07.09.15.17.24.23.14.08.29.12.45.14.12.03.24.03.36 0 .06-.03.11-.07.15-.13.06-.1.06-.23 0-.33a.362.362 0 0 0-.15-.15 2.93 2.93 0 0 0-.82-.22c-.07 0-.14 0-.21.12-.1.08-.11.22-.03.32 0 .01 0 .01.01.02zM36.79 14.11c-.16-.07-.33-.12-.51-.13-.14 0-.32-.07-.4 0-.1.1-.14.25-.1.39 0 .1.22.15.35.21l.45.16.13.07c.1.03.21 0 .27-.09.08-.09.16-.18.15-.26s-.2-.27-.34-.35zm-3.5-.22c-.12-.05-.24-.08-.37-.1-.16-.05-.32-.07-.49-.06-.09.11-.12.25-.08.38.05.08.11.14.19.19.1.07.21.09.25 0s.12 0 .19 0c.04.04.09.07.14.09.14.05.3.05.44 0 .08 0 .18-.26.14-.3-.12-.09-.26-.16-.41-.2zm32.94-24.32c-.12-.05-.24-.09-.37-.12-.14 0-.32-.11-.43-.06-.11.08-.18.22-.16.36.04.08.11.15.18.2.1.07.2.09.23.05s.13 0 .22 0c.05.04.12.07.18.09.15.05.3.05.45 0 .09-.11.12-.26.07-.39-.05-.05-.23-.09-.37-.13zM36.63 12.9c.12-.06.19-.23.25-.38s0-.26 0-.3c.18-.09.26-.31.17-.5-.02-.03-.03-.06-.06-.08a.285.285 0 0 0-.34-.1h-.11a.4.4 0 0 0-.22.3v.45c0 .15-.08.32 0 .43.07.11.18.18.31.18zM59.12.27c-.05.14-.05.3 0 .44.09.1.23.15.37.12.12-.06.18-.24.24-.38.05-.13.09-.26.11-.39 0-.15.1-.33 0-.44-.1-.1-.24-.15-.38-.12a.41.41 0 0 0-.16.16c-.07.1-.09.2 0 .23s0 .12 0 .21c-.07.04-.13.1-.18.17zm3.12-1.19c.06.12.24.18.37.24s.26.11.4.15c.11 0 .26.11.34.07.08-.05.15-.12.2-.2.08-.08.08-.21 0-.3-.09-.06-.18-.12-.28-.17-.14-.07-.29-.12-.45-.15-.13 0-.31-.08-.4 0-.12.08-.19.22-.18.36z"/><path d="M54.11-10.93a.46.46 0 0 1-.47-.13c-.08-.08-.32 0-.45 0s-.11.27-.06.34c.11.1.24.18.39.22h.28c.09 0 .35.22.47.18s.23-.25.19-.42a.642.642 0 0 0-.12-.25s-.11-.01-.23.06zm12.37-1.48c.04-.09.07-.18.09-.27a.25.25 0 0 0-.14-.29.331.331 0 0 0-.24 0c-.11.06-.15.27-.21.43-.02.08-.04.17-.05.25l-.05.34c-.02.12.06.23.18.26h.21a.58.58 0 0 0 .12-.29v-.31c.05-.02.08-.07.09-.12zM35.56 13.84a.407.407 0 0 0-.25-.13.25.25 0 0 0-.29.14l-.1.26c-.03.1-.06.2-.08.3v.3c-.02.11.05.23.16.26h.18a.72.72 0 0 0 .15-.27v-.32c.03-.02.05-.04.07-.07.07-.16.23-.38.16-.47zm20.07-26.27c.1.07.36-.06.54-.13.04-.02.07-.04.09-.08 0-.05 0-.11-.12-.2s0-.17.11-.32c.09-.14.12-.32.08-.48 0-.05-.28-.15-.33-.1-.12.12-.2.26-.26.42-.05.1 0 .26-.09.32-.28.2-.27.43-.02.57zM29.78 12.42c.12-.06.27-.29.24-.36-.11-.23 0-.3.13-.44.07-.14.07-.3 0-.44 0-.07-.25-.14-.34-.1-.07.04-.13.09-.17.16-.07.1-.1.2-.07.24s0 .12-.05.21c-.04.05-.07.1-.1.16-.05.14-.05.3 0 .44.09.11.23.16.36.13zm4.69 1.01c-.13 0-.37.17-.37.24.06.25-.02.52-.21.7 0 0 .08.31.19.39.13.04.27 0 .37-.09.09-.27.17-.54.23-.82.03-.12.01-.24-.06-.34a.275.275 0 0 0-.15-.08zM62.7 1.28a.404.404 0 0 0-.34 0c-.09.1-.13.24-.11.38 0 .1.21.17.33.21.11.01.23.01.34 0l.33.08c.09.03.18-.02.21-.11.01-.02.01-.04.01-.06V1.6a.739.739 0 0 1 0-.21h-.21c-.18.12-.39.15-.56-.11zm3.14-14.72c.16.1.34.16.53.18.1.02.2.02.3 0 .11-.04.18-.16.16-.28 0-.11 0-.22-.11-.24-.25-.09-.51-.16-.77-.2-.12-.03-.24 0-.34.07-.04.04-.07.09-.07.14.06.14.16.26.3.33zm-1.14 2.56c-.12.06-.18.23-.25.37-.06.12-.11.26-.15.39 0 .12-.11.26-.07.35s.1.1.22.17c.09.06.21.03.26-.06.01-.01.01-.02.02-.03l.14-.31c.06-.12.11-.25.15-.38 0-.13.1-.31 0-.39a.42.42 0 0 0-.32-.11zm-14.63-1.26c-.03.16-.03.31 0 .47 0 .07.29.15.32.12.09-.14.17-.28.22-.44.03-.09.07-.18.12-.27l.12-.18a.23.23 0 0 0 0-.31.575.575 0 0 0-.29-.17c-.1 0-.24.22-.31.36-.08.13-.14.27-.18.42zM53.79-14c.03.01.07.01.1 0 .06-.02.12 0 .15.05.02.03.05.05.08.07.13.06.3.16.41.12s.21-.29.17-.35a.94.94 0 0 0-.4-.28c-.11-.06-.23-.11-.36-.13-.16-.04-.33-.04-.49 0a.4.4 0 0 0-.06.38c.07.14.24.14.4.14zm-5 1.9c.06-.03.1-.08.13-.14a.23.23 0 0 0-.05-.3c-.08-.07-.17-.14-.27-.19a2.19 2.19 0 0 0-.56-.14.66.66 0 0 0-.39.06c-.06.11-.06.23 0 .34.08.11.2.19.33.23.16.06.33.11.5.13.1.02.21.03.31.01zM33.26 12.64c.17-.37.31-.74.42-1.13 0 0-.08-.1-.19-.18a.243.243 0 0 0-.32 0c-.09.1-.18.19-.16.23.12.27 0 .42-.17.6-.06.11-.06.24 0 .35.12.1.27.15.42.13zm-2.84.77a2.76 2.76 0 0 0-.06-.4.739.739 0 0 1 0-.21h-.21a.46.46 0 0 1-.52-.19h-.35c-.07.08-.12.17-.14.28.32.19.66.36 1 .52.09.03.19.03.28 0zM43.63 13a.36.36 0 0 0-.22-.09c-.15.06-.28.17-.36.31-.08.14-.14.3-.17.46 0 .13-.08.3 0 .39.08.11.22.17.36.16.11-.06.17-.24.23-.38s.07-.24.13-.35c.03-.07.07-.13.11-.19.06-.1.03-.24-.07-.3 0-.01-.01-.01-.01-.01zM64.9 0c.15-.06.27-.17.35-.31.09-.17.16-.35.19-.54v-.35a.469.469 0 0 0-.22-.09.235.235 0 0 0-.27.17v.13c-.03.08-.03.18 0 .26 0 0 0 .07-.06.1a.36.36 0 0 0-.1.07c-.08.11-.12.24-.12.38.05.09.13.15.23.18z"/><path d="M64.45 1.64c.12-.01.23-.11.24-.23 0-.27-.14-.43-.52-.38a.302.302 0 0 1-.24-.09c-.18-.21-.36-.23-.55 0s-.14.3 0 .42c.05.05.1.1.16.14h.39c.1.18.31.16.52.14zm-5.21-.54a.427.427 0 0 0-.35 0c-.06 0-.11.1-.1.12.07.17.2.31.35.41.23.14.5.19.76.13.12-.03.2-.15.19-.27 0-.09 0-.18-.07-.2-.25-.08-.52-.15-.78-.19zm4.09-12.42a.223.223 0 0 0-.24-.2h-.01c-.17 0-.34.08-.48-.15h-.36c-.09.07-.13.18-.12.29.07.12.18.22.31.28h.36c.07 0 .35.37.53.1.03-.1.04-.21.01-.32zm-4.35.01c.19.1.4.17.61.19.15.02.3-.02.42-.12.04-.15 0-.31-.11-.42-.26-.1-.52-.18-.79-.24-.12-.03-.25 0-.34.08-.04.05-.07.11-.07.17.04.15.14.27.28.34zM62.54.53c-.05.13-.05.27 0 .4.09.11.22.16.36.14.1 0 .18-.2.23-.33.06-.13.09-.26.11-.4.03-.16.03-.33 0-.49a.341.341 0 0 0-.28-.13c-.07.06-.14.13-.19.21-.07.1-.11.2-.07.23s0 .13-.07.21c-.04.05-.07.1-.09.16zm-1.09-.81h.36c.03.06.06.12.08.18v.25c-.03.01-.05.04-.06.07-.06.15-.08.32-.07.48 0 .07.28.17.31.15.1-.13.18-.28.24-.43V.16c0-.05.33-.42.06-.58-.08-.05-.23 0-.38.08l-.2.07a.67.67 0 0 1 0-.2c0-.18.09-.36.12-.54.04-.13.04-.27 0-.4a.349.349 0 0 0-.33-.12c-.12.1-.2.23-.25.38v.3c0 .09-.06.26-.1.38-.04.07-.01.16.07.2.05.03.1.02.15-.01zM53.63-11.3c.07 0 .19 0 .24-.12.06-.1.12-.21.17-.32.05-.13.1-.26.14-.4 0-.12.14-.29.1-.34a.548.548 0 0 0-.38-.18c-.49 0-.21.55-.36.81s-.14.2-.11.3c.02.06.04.11.07.17 0 0 .05.05.13.08zm9.22.61c-.15-.02-.3-.06-.44-.11-.13 0-.3-.1-.38-.05a.41.41 0 0 0-.13.36c.06.12.23.18.36.24s.27 0 .3 0c.07.18.27.27.45.2a.3.3 0 0 0 .08-.04c.11-.06.18-.19.16-.32a.356.356 0 0 0-.4-.28zM61.33 1.08c0-.06 0-.15-.14-.22a.27.27 0 0 0-.21-.07c-.29.09-.47-.05-.69-.19a.28.28 0 0 0-.22 0c-.11.05-.18.17-.16.29 0 .08.04.15.09.2.27.15.56.26.86.31.1-.01.18-.05.25-.12.08-.05.16-.12.22-.2zM57.52.32c.14.05.29.02.4-.07.06-.12 0-.41 0-.44-.26-.1-.53-.18-.8-.23-.12-.03-.24 0-.34.07-.05.05-.1.11-.08.15s.27.39.33.37a.41.41 0 0 1 .49.15zm-7.28-11.59c-.06-.08-.3-.08-.42 0-.1.08-.15.2-.13.32.09.13.22.22.36.28.08 0 .26-.05.31 0s.38.36.57.09c.04-.11.04-.24 0-.35.01-.08.01-.15 0-.23-.07.01-.15.03-.22.05-.16.09-.36.04-.45-.12-.01-.01-.01-.03-.02-.04zM60.63-.17a.66.66 0 0 0-.28 0c-.12.02-.21.13-.21.25 0 .11 0 .22.06.24.26.1.52.18.79.23.12.03.25-.01.35-.09.05-.06.1-.12.08-.16s-.34-.36-.37-.34c-.21.17-.25-.06-.42-.13zm-.54-12.68c.06.11.11.21.14.2.27-.04.54.04.73.23 0 0 .19 0 .35-.11.08-.03.12-.12.09-.21-.01-.02-.02-.04-.03-.05-.11-.14-.19-.24-.24-.22a.892.892 0 0 1-.7-.21c-.05 0-.15 0-.25.07-.1.06-.14.19-.09.3zm4.2.55c.09.09.17.16.22.16.23-.09.5 0 .63.21.11.04.24.02.33-.05.07-.1.1-.37.06-.39-.35-.17-.72-.32-1.09-.44 0 0-.1.08-.19.18-.07.1-.06.25.04.33zM30.53 14c0 .12-.1.3 0 .39s.28.19.36.14.19-.24.25-.38c.04-.11.07-.23.08-.35 0-.15.13-.32.09-.44a.408.408 0 0 0-.37-.15c-.07.04-.13.1-.17.18-.06.11-.09.21 0 .24s0 .12-.05.2c-.07.04-.14.1-.19.17zM53.5-13.1c.17-.07.36-.01.45.15.1.08.23.1.35.07.07-.03.12-.08.16-.15.08-.09.08-.23 0-.32-.1-.1-.19-.18-.23-.16-.26.13-.37-.06-.55-.16a.694.694 0 0 0-.45 0c-.07.08-.09.2-.06.3.06.12.24.3.33.27zm-8.99 26.38a.55.55 0 0 0-.42-.17c-.06 0-.1.08-.15.16s-.08.21 0 .24 0 .11 0 .2c-.03.05-.06.1-.08.16-.04.14-.04.3 0 .44 0 .08.28.17.31.14.12-.13.21-.27.27-.43.05-.12.09-.24.12-.37-.07-.13 0-.32-.05-.37zm6.66-25.38c.22.09.45.16.69.21.1.02.2.07.27.14 0 0 .11 0 .17-.1s.1-.15.07-.2a.951.951 0 0 0-.37-.4.989.989 0 0 0-.44-.17 1.71 1.71 0 0 0-.32 0c-.12.01-.2.12-.18.23v.02c.03.13.05.24.11.27zM61.55-11a.43.43 0 0 0-.22-.09c-.11 0-.26.17-.32.29-.08.18-.14.37-.16.56 0 .13 0 .32.06.39s.35.06.38 0c.14-.27.26-.55.36-.83a.28.28 0 0 0-.1-.32zM28.17 12.64c.07-.05.09-.14.04-.21-.01-.02-.03-.03-.04-.04-.2-.17-.32-.3-.37-.27-.28.15-.4 0-.58-.17a.403.403 0 0 0-.38.07c-.07.08-.07.35 0 .38.32.17.65.3 1 .39.09.02.2-.05.33-.15zm5.46.15c.03.07.09.12.15.16.1.07.21.09.23.06s.12 0 .22.06a.4.4 0 0 0 .18.1c.14.05.3.05.44 0a.37.37 0 0 0 .1-.33c-.1-.11-.23-.2-.37-.25-.12-.06-.26-.1-.39-.12a.859.859 0 0 0-.45 0c-.09.08-.13.2-.11.32zm.16.36c-.2-.08-.41-.14-.63-.18a.609.609 0 0 1-.31-.18c-.05-.08-.14 0-.19.06-.05.1-.08.2-.09.31 0 .12.21.34.27.33.22-.07.46 0 .61.18.06.06.33 0 .43-.13s-.01-.37-.09-.39zm4.28.65c-.08-.08-.17-.16-.26-.22-.06 0-.15 0-.19.14l-.08.22c-.08.21-.15.42-.19.64 0 .13 0 .36.11.41.14.03.29 0 .41-.09.04-.32.15-.64.33-.91 0 0-.06-.11-.13-.19zm18.56-27.1c-.03.12.01.24.09.33.29.15.6.26.92.34.07 0 .15-.05.25-.13.09-.09.09-.22 0-.31-.08-.11-.15-.2-.2-.19-.25.02-.5-.06-.7-.22-.09-.05-.31.07-.36.18zM66.51 0a.16.16 0 0 0-.22-.04c-.02.01-.03.03-.04.04-.1.14-.18.25-.15.31.09.24 0 .33-.13.5s0 .17 0 .3c.04.11.15.18.27.16.1 0 .19 0 .2-.08.06-.31.16-.61.29-.89 0 0-.1-.19-.22-.3zM30.33 12.8h.21c.2 0 .39 0 .52.21h.33c.1-.1.15-.23.15-.37 0-.08-.18-.17-.29-.2-.14-.01-.27-.01-.41 0h-.34c-.09-.02-.18.04-.2.14v.15c.02-.03.03.07.03.07zm7.8-.38c.06.12.24.18.38.25s.27.08.4.13l.16.08c.1.05.22.01.28-.08.06-.08.12-.15.1-.22s-.18-.25-.31-.32c-.16-.07-.32-.12-.49-.14-.13 0-.31-.12-.39-.07a.42.42 0 0 0-.13.37zm-11.57-1.55a.243.243 0 0 0-.26.17c0 .08 0 .17-.07.26-.01.03-.01.06 0 .09 0 0 0 .14-.14.21h-.07c-.07.06-.09.16-.03.24l.03.03.13.13c.05.07.15.09.22.04.01-.01.03-.02.04-.04l.17-.31c.06-.1.11-.21.14-.32.04-.14.04-.3 0-.44 0 0-.09-.04-.16-.06zm1.22 2.19c-.1-.07-.37-.08-.39 0-.16.32-.29.65-.38 1 0 .06.08.14.21.27.03.07.12.1.19.06.03-.01.05-.04.06-.06.15-.32.29-.58.39-.85.07-.14.03-.31-.08-.42zm12.3 1.34c-.12-.08-.25-.14-.39-.19a.552.552 0 0 0-.4 0c-.08.07-.12.33-.08.37.1.07.21.12.33.16.11 0 .22.05.24 0s0 0 .07 0h.05c.14.08.3.14.46.17.05 0 .19-.28.17-.3-.14-.08-.29-.15-.45-.21zm-12.73-2.76c.11 0 .22.06.24 0s.06 0 .11.09c.02.05.06.1.11.13.13.05.27.05.4 0 .09-.1.14-.23.15-.36-.3-.17-.62-.32-.94-.45-.09-.03-.2 0-.27.06-.07.09-.12.2-.13.32.1.08.21.15.33.21zm31.96-23.81c.12-.06.19-.23.27-.37.06-.12.11-.26.14-.39.05-.12.07-.24.06-.37a.469.469 0 0 0-.19-.18.194.194 0 0 0-.27.04c-.01.01-.01.01-.01.02l-.15.29c-.05.12-.09.25-.12.38 0 .14-.13.31-.08.42.08.11.21.17.35.16zm3.14-.32c-.06.12-.15.33-.1.39.11.11.26.16.41.15.09 0 .18-.19.23-.32.06-.15.11-.3.13-.46.04-.13.04-.27 0-.4a.362.362 0 0 0-.34-.1.41.41 0 0 0-.16.16c-.07.1-.09.21-.05.24s0 .12-.06.2a.35.35 0 0 0-.06.14zM58.95-.58c-.07-.1-.2-.13-.3-.07-.08.04-.15.1-.2.18-.11.18-.18.39-.2.6 0 .11.03.23.08.33.03.11.1.19.2.25.07 0 .18 0 .25-.15.05-.06.07-.13.07-.2-.04-.25.03-.51.19-.71 0 0-.02-.13-.09-.23zM42.46 13.35c-.23-.12-.48-.21-.74-.26a.405.405 0 0 0-.33.14c-.05.08 0 .32 0 .35.24.12.51.21.8.33.11.06.23.06.34 0 .04-.04.07-.09.09-.15a.453.453 0 0 0-.16-.41zm14.38-24.6c.04.05.09.09.15.12.11.05.24.02.31-.07.08-.09.14-.17.12-.21-.1-.26 0-.39.17-.56s0-.26 0-.35a.313.313 0 0 0-.3-.11c-.1 0-.26.2-.24.27.07.22-.02.47-.21.6-.06.05-.04.23 0 .31zM28.58 14.51v.2c-.02.14-.07.27-.15.39l-.09.12c-.07.09 0 .17.09.17h.3c.13 0 .24-.09.26-.22 0-.1 0-.2.07-.29s.18-.35.13-.46a.346.346 0 0 0-.39-.22.64.64 0 0 0-.19.08c0 .08-.01.15-.03.23zM56.91 2.53c.13-.01.26-.09.33-.2.08-.12.15-.26.19-.4a.57.57 0 0 0 0-.26.248.248 0 0 0-.26-.19c-.14 0-.27 0-.3.08-.09.25-.15.51-.18.77-.02.09.04.18.13.2.03.01.06.01.09 0zm-3.68-12.2c.15.02.3.02.45 0h.24c.01 0 .1 0 .2-.08.07-.06.09-.16.03-.24l-.03-.03a.567.567 0 0 0-.18-.12c-.17-.08-.35-.13-.53-.16a.945.945 0 0 0-.41 0c-.08.07-.12.18-.1.28.05.16.17.29.33.35zM31.35 15.08l-.19-.06h-.23c-.01 0-.06 0-.1-.08-.03-.04-.07-.07-.11-.1-.1-.05-.26-.1-.34-.05-.1.08-.16.19-.16.32 0 .11.13.29.21.29h.88c.12 0 .23-.06.24-.12s-.09-.17-.2-.2zM60.51 1.67c-.1 0-.17.21-.21.34-.02.14-.02.29 0 .43 0 .12.07.16.17.09.17-.1.33-.22.48-.36.07-.12.07-.28 0-.4-.12-.1-.29-.14-.44-.1zM52.14-9.62c.18-.11.34-.23.49-.38a.42.42 0 0 0 .06-.39.4.4 0 0 0-.37-.14c-.1 0-.2.2-.24.32-.04.16-.07.32-.07.48-.04.14.03.18.13.11zm5.24-.2c-.25-.11-.51-.2-.78-.28 0 0-.09 0-.15.12-.07.08-.07.2 0 .28.04.05.09.08.15.09h.76c.26 0 .23 0 .23-.07s-.1-.09-.21-.14zM67.4-13c.09 0 .19-.08.32-.19.07-.06.09-.16.03-.24l-.03-.03c-.14-.12-.25-.22-.32-.2a.52.52 0 0 0-.24.2c-.08.09-.08.23 0 .32.06.08.14.13.24.14zm-8.95 2.7c-.09.02-.17.07-.23.14-.09.09-.09.23 0 .32.06.09.15.16.25.2.06 0 .16-.09.28-.23a.19.19 0 0 0 .02-.27c-.01-.01-.01-.02-.02-.02-.12-.08-.23-.16-.3-.14zm2.28-3.26c.08-.06.14-.12.14-.17-.04-.14-.1-.27-.19-.38a.173.173 0 0 0-.24-.03l-.03.03c-.11.13-.21.22-.19.29.04.1.1.19.18.26.1.08.23.08.33 0zM38.56 13.93c-.11.07-.17.27-.2.43s0 .08.06.13c.07.07.17.11.27.1.08 0 .14 0 .17-.06.1-.14.13-.31.1-.47a.425.425 0 0 0-.4-.13zM64.23-.19c.11-.15.2-.25.19-.34a.477.477 0 0 0-.32-.34c-.16.03-.3.14-.35.3 0 .11.1.22.22.38.04.07.13.1.2.06a.17.17 0 0 0 .06-.06zM34.54 11.36c.12-.11.21-.2.2-.25a.774.774 0 0 0-.19-.28.212.212 0 0 0-.31 0c-.08.05-.13.13-.16.22 0 .09.08.18.18.3a.19.19 0 0 0 .28.01zM59.55-10.9a.177.177 0 0 0-.25-.03l-.03.03c-.09.12-.16.22-.14.28.04.09.1.16.18.21.1.08.23.08.33 0 .08-.07.15-.15.14-.21s-.15-.17-.23-.28zm.42 10.2c.12-.14.22-.24.21-.33a.506.506 0 0 0-.36-.32c-.11 0-.31.21-.32.33s.08.19.2.31c.05.08.16.09.24.04l.03-.03zm-9.34-9.6a.173.173 0 0 0-.24-.03l-.03.03c-.1.14-.18.24-.16.32.03.09.09.16.17.21.1.08.23.08.33 0 .08-.06.13-.15.16-.24-.01-.08-.12-.17-.23-.29zM39.76 13.32c-.14 0-.33.22-.33.34.04.16.17.29.33.33.09 0 .18-.09.29-.21a.19.19 0 0 0 .02-.27c-.01-.01-.01-.02-.02-.02-.13-.11-.22-.19-.29-.17zm21.6-11.49c-.12.14-.2.23-.18.29.03.1.09.19.17.26.09.09.22.09.31 0 .07-.06.13-.12.13-.17a.839.839 0 0 0-.19-.39.142.142 0 0 0-.19-.04.12.12 0 0 0-.05.05zm-3.28-.55c.06.08.14.15.23.18.08 0 .17-.08.29-.19.08-.08.08-.2.01-.28L58.6.98c-.11-.12-.19-.21-.24-.2a.8.8 0 0 0-.27.18c-.09.09-.09.23-.01.32zM44.56 14.16c-.12.13-.23.23-.21.29.04.1.12.19.21.25.1.08.24.08.34 0 .08-.07.15-.15.15-.22s-.08-.18-.19-.29c-.06-.09-.19-.11-.28-.05l-.02.02zM67.29.85c.09 0 .19-.08.31-.19.07-.06.09-.16.03-.24L67.6.39c-.14-.12-.25-.22-.36-.23s-.29.24-.3.38.22.3.35.31zM54.77-11.78a.46.46 0 0 0 .33-.33c0-.09-.1-.19-.22-.31a.19.19 0 0 0-.27-.02c-.01.01-.02.01-.02.02-.1.13-.19.23-.18.31.05.17.19.29.36.33zm-5.91.48c.06.16.19.28.35.34.07 0 .16-.07.28-.18.07-.06.09-.16.03-.24l-.03-.03a.715.715 0 0 0-.33-.18c-.1-.01-.32.24-.3.29zm9.2-.26c.05.08.16.1.24.04.02-.01.03-.03.04-.04.1-.14.19-.25.18-.34s-.24-.25-.39-.26-.3.22-.28.31c.05.11.12.21.21.29zM47.91-9.63c.16-.05.28-.18.32-.34 0-.11-.12-.21-.25-.35-.05-.07-.15-.1-.22-.05a.12.12 0 0 0-.05.05c-.1.15-.18.26-.16.34.05.17.19.31.36.35zm15.94-.77c-.19.05-.37.12-.54.22 0 0 .07.08.16.15.1.09.21.17.33.24.12-.07.2-.17.25-.3 0-.09-.16-.32-.2-.31zm-4.15-3.29c.09 0 .19-.07.32-.18a.16.16 0 0 0 .04-.22c-.01-.01-.02-.03-.04-.04-.13-.12-.23-.22-.33-.21s-.14.08-.22.16c-.08.1-.08.23 0 .33.09.08.16.15.23.16zm-3.14 3.08c0 .14.2.35.32.36s.19-.09.32-.2c.07-.05.1-.15.05-.22a.12.12 0 0 0-.05-.05c-.13-.1-.23-.18-.32-.18s-.34.22-.32.29zm-8.42-2.47c.09 0 .17-.09.29-.21.08-.08.08-.2.01-.28l-.01-.01c-.11-.1-.2-.18-.25-.16a.86.86 0 0 0-.26.2c-.09.09-.09.22 0 .31.05.07.13.13.22.15zm16.02-.21c.08-.13.1-.28.06-.43a.481.481 0 0 0-.12-.16.24.24 0 0 0-.3 0c-.06.04-.1.1-.13.17-.02.15.02.3.12.41.11.07.25.08.37.01zM57.19-.75c.11.03.22-.04.24-.14 0-.01 0-.02.01-.03.01-.1.01-.21 0-.31a.238.238 0 0 0-.06-.11l-.08-.08h-.14c-.06 0-.11 0-.13.06s-.17.37-.11.45c.06.09.16.15.27.16zm-2.38-11.97c.09.08.23.08.32 0 .08-.06.13-.15.17-.24 0-.06-.06-.15-.17-.27a.177.177 0 0 0-.25-.03l-.03.03c-.11.12-.2.21-.2.3.03.09.08.16.16.21zM42.25 14.25a.257.257 0 0 0-.33 0c-.07.06-.14.12-.14.19s.07.2.16.34c.04.07.13.1.2.06a.17.17 0 0 0 .06-.06c.12-.14.22-.24.21-.32s-.07-.14-.16-.21zm5.31-28.14a.277.277 0 0 0-.33-.08c-.28.15-.31.28-.14.55.07.1.21.14.32.08.29-.17.33-.3.15-.55zm11 1.42a.41.41 0 0 0 .18-.21c0-.08-.06-.19-.16-.34-.05-.07-.15-.1-.22-.05a.12.12 0 0 0-.05.05c-.13.13-.24.23-.23.32s.07.16.15.23c.09.08.24.08.33 0zM63.84.6c.1 0 .2-.09.34-.2.07-.05.09-.14.04-.21-.01-.02-.03-.03-.04-.04a.678.678 0 0 0-.35-.17c-.11 0-.32.22-.3.29s.19.33.31.33zM52.87-11.54c.09 0 .19-.08.34-.2.07-.05.09-.14.04-.21-.01-.02-.03-.03-.04-.04-.16-.11-.26-.19-.36-.18s-.31.22-.29.31c.05.15.16.27.31.32zM65.95 1.51c-.1 0-.3.17-.28.22.03.12.08.23.14.33.06.11.14.19.19.19s.12-.09.18-.2c.06-.11.1-.23.13-.35 0 0-.23-.18-.36-.19zm-1.87.35c-.08.04-.15.1-.2.18-.08.1-.08.23 0 .33.07.08.14.14.2.14s.19-.11.3-.23c.07-.06.09-.16.03-.24l-.03-.03c-.13-.09-.22-.17-.3-.15zm-7.36-3.21c-.1-.1-.22-.18-.35-.23 0 0-.11.06-.18.13-.08.1-.08.23 0 .33.07.08.15.16.24.21.05 0 .15-.06.28-.16.08-.05.1-.16.05-.23-.01-.02-.02-.04-.04-.05zM65-11.06c.14-.04.26-.12.36-.22.07-.06.09-.16.03-.24l-.03-.03c-.13-.1-.22-.19-.27-.17-.1.04-.18.11-.25.19-.08.09-.08.24 0 .33.04.09.11.2.16.14zm-34.22 23c.06 0 .16-.05.29-.15a.16.16 0 0 0 .04-.22c-.01-.01-.02-.03-.04-.04-.13-.11-.22-.2-.32-.2-.08.02-.15.06-.2.12-.09.09-.09.23 0 .32.06.07.14.13.23.17zM61.3-11.67c.04.1.11.19.19.26.09.08.22.08.31 0a.42.42 0 0 0 .16-.25c0-.08-.1-.17-.21-.28a.19.19 0 0 0-.27-.02c-.01.01-.02.01-.02.02-.11.12-.18.21-.16.27zM28.7 13c.09 0 .18-.03.25-.09.1-.06.16-.16.13-.22a.756.756 0 0 0-.23-.24.472.472 0 0 0-.25-.11c-.06 0-.12.06-.18.14-.08.09-.08.24 0 .33.07.09.17.15.28.19zM65.17 1.38c-.1-.01-.19-.01-.29 0-.05.02-.09.05-.12.09-.06.05-.06.14 0 .2.03.04.07.06.12.07.1.01.21.01.31 0a.2.2 0 0 0 .2-.2.2.2 0 0 0-.2-.2l-.02.04zM52.95-11.07c0-.08-.08-.16-.17-.25a.177.177 0 0 0-.25-.03l-.03.03-.09.12a.23.23 0 0 0 0 .31c.07.06.15.11.24.13.11.02.3-.24.3-.31zM60.57-.46c.06.07.16.09.24.03l.03-.03c.09-.14.16-.25.14-.34a.51.51 0 0 0-.4-.26c-.08 0-.27.24-.25.33.06.11.14.2.24.27zm1.25-11.7c.17-.04.3-.15.37-.31 0-.08-.08-.18-.2-.31a.173.173 0 0 0-.24-.03l-.03.03c-.11.13-.2.23-.2.33s.21.31.3.29zm-10.19-.7c.12-.14.22-.24.21-.33s-.22-.28-.35-.3-.3.18-.3.29.08.19.17.32c.04.08.14.11.22.07.02-.02.04-.03.05-.05zm4.8-1.14c.1-.13.18-.23.18-.33s-.07-.12-.15-.18a.243.243 0 0 0-.32 0c-.07.06-.12.14-.15.23 0 .06.07.15.18.27.06.07.16.09.24.03l.02-.02zm-5.71.88c.16-.05.28-.17.34-.33 0-.06-.07-.15-.17-.27a.178.178 0 0 0-.25-.04c-.01.01-.03.02-.04.04-.1.12-.19.2-.19.3s.22.32.31.3zm16.42 2.92c-.09.03-.17.08-.22.16-.09.09-.09.22 0 .31.06.05.12.09.2.11.08 0 .18 0 .31-.12.07-.03.1-.1.07-.17a.12.12 0 0 0-.07-.07c-.1-.13-.2-.23-.29-.22zM31.93 13.23c.07.08.19.09.27.02.01-.01.02-.01.02-.02.09-.11.16-.2.14-.26a.585.585 0 0 0-.17-.21.23.23 0 0 0-.31 0c-.07.06-.11.15-.13.24-.01.06.07.13.18.23zm24.12-24.38c-.09.04-.16.1-.21.18-.08.09-.08.24 0 .33a.4.4 0 0 0 .22.14c.07 0 .14-.07.23-.18.09-.09.09-.22 0-.31-.1-.09-.18-.18-.24-.16zm7.7-1.21c.09 0 .17-.08.28-.19.08-.08.08-.2.01-.28l-.01-.01c-.12-.11-.22-.2-.25-.18-.16.08-.28.22-.34.38-.03.06.19.29.31.28zM57.79.89a.634.634 0 0 0-.21-.3.178.178 0 0 0-.25-.04c-.01.01-.03.02-.04.04-.09.11-.17.2-.15.26.05.16.17.28.33.33.1.01.34-.18.32-.29zm-8.06-13.16c-.12-.11-.21-.19-.27-.17-.16.06-.28.19-.33.35 0 .09.2.31.3.31s.18-.09.29-.2c.08-.06.1-.17.05-.25-.01-.02-.03-.03-.04-.04zm5.9 1.99c-.1.13-.18.23-.16.29.04.09.11.17.19.23.09.08.23.08.32 0 .06-.05.11-.13.12-.21a.662.662 0 0 0-.21-.31.16.16 0 0 0-.22-.04c-.02.01-.03.03-.04.04zm9.74 8.78c.08 0 .18-.07.32-.17.08-.06.09-.18.03-.25l-.03-.03c-.11-.11-.2-.19-.27-.19-.09.02-.17.07-.24.13-.08.09-.08.23 0 .32.05.09.11.17.19.19zm-8.28-12.18c.1 0 .19-.09.31-.2.08-.06.09-.18.03-.25l-.03-.03c-.12-.11-.2-.19-.26-.18-.16.05-.29.18-.35.34-.02.09.2.33.3.32zm3.07 3.07c-.09.13-.17.23-.16.33s.23.27.34.26.33-.21.32-.31-.1-.19-.22-.3c-.06-.07-.17-.09-.24-.03-.02.02-.03.03-.04.05zm-26 22.68h.08c.09 0 .17-.08.17-.17 0-.02 0-.04-.01-.06v-.16a.266.266 0 0 0-.23-.2c-.11.03-.18.13-.17.24v.17c0 .09.07.17.16.18zm27.8-13.82c.12-.04.22-.12.3-.22.08-.06.09-.18.03-.25l-.03-.03c-.11-.09-.21-.17-.27-.15a.51.51 0 0 0-.32.35c-.04.05.19.32.29.3zM41.03 12.67c.06 0 .31-.12.3-.17-.04-.18-.1-.35-.18-.51 0 0-.09.05-.19.13-.09.06-.16.14-.21.23-.04.03.15.25.28.32zm-2.4 2.08a.38.38 0 0 0-.38-.1c-.18.08-.19.26-.15.49.01.08.08.15.16.14.03 0 .06-.01.08-.03l.34-.17c.07-.03.1-.12.06-.19-.01-.03-.04-.05-.06-.06l-.05-.08zm-9-.23a.51.51 0 0 0-.32.35c0 .09.02.19.07.27 0 .11.14.17.22.13.1-.07.19-.16.27-.25.06-.07.11-.14.1-.19s-.2-.32-.34-.31zm8.4-3.02c.07-.05.13-.11.12-.16a.993.993 0 0 0-.17-.36c-.05-.07-.14-.09-.21-.04-.02.01-.03.03-.04.04-.11.12-.19.22-.18.29.03.09.09.16.16.22.09.08.22.08.32.01zm-1.86 2.19c.07.08.2.09.28.02l.02-.02c.11-.12.2-.21.19-.29a.484.484 0 0 0-.37-.29c-.11 0-.28.21-.3.35s.08.12.18.23zm2.97-.5l-.09-.09a.178.178 0 0 0-.25-.04c-.01.01-.03.02-.04.04-.09.12-.16.21-.16.3s.25.29.33.27c.09-.04.16-.1.22-.18.07-.09.06-.21-.01-.3zM61.72 1.05c-.16.05-.28.17-.33.33 0 .06.08.14.2.25.07.08.19.09.27.02.01-.01.02-.01.02-.02a.69.69 0 0 0 .17-.3c0-.11-.24-.33-.33-.28zm5.44-13.21c.08 0 .16-.08.27-.17a.19.19 0 0 0 .02-.27c-.01-.01-.01-.02-.02-.02-.11-.1-.19-.18-.26-.17-.15.06-.27.18-.31.34-.02.08.19.29.3.29zm-.93 10.85c.12 0 .29-.19.33-.34s-.07-.13-.17-.23a.212.212 0 0 0-.31 0c-.11.1-.21.18-.19.24s.22.32.34.33zm-28.6 13.7c.06 0 .14-.05.26-.14.08-.06.09-.18.03-.25l-.03-.03c-.09-.1-.17-.18-.25-.18-.07.01-.14.04-.19.1-.08.09-.08.23 0 .32.04.07.11.14.18.18zm-4.34 2.52c-.08-.09-.21-.09-.3-.01l-.01.01-.14.12c-.09.08-.13.2-.08.27s.16.08.27 0l.22-.12c.07-.05.1-.15.05-.22a.12.12 0 0 0-.05-.05h.04zm-3.19-1.19a.177.177 0 0 0-.25-.03l-.03.03c-.1.1-.17.18-.17.27.01.08.05.15.11.2.09.08.23.08.32 0 .08-.05.13-.13.17-.21.01-.06-.06-.14-.15-.26zm35.44-24.88c0 .07.08.16.19.28.05.07.15.1.22.05a.12.12 0 0 0 .05-.05c.08-.09.13-.2.16-.32 0-.08-.22-.29-.27-.27-.15.06-.28.17-.35.31zM42.93 14.41c-.08.02-.15.06-.19.13-.09.09-.09.24 0 .33.04.07.11.12.19.14.08 0 .16-.07.28-.16.07-.06.09-.16.03-.24l-.03-.03c-.11-.1-.2-.17-.28-.17zm-7.3-.95c.1-.11.18-.18.16-.23a.747.747 0 0 0-.32-.36s-.3.17-.28.25c.03.12.09.23.18.32.05.08.16.09.24.04l.02-.02zm.38 1.48a.649.649 0 0 0-.32-.16c-.05 0-.1 0-.16.11-.07.08-.07.21 0 .29.05.06.1.1.15.11.12-.01.23-.05.32-.12.11-.08.11-.17.01-.23zM62.06-9.94a.79.79 0 0 0-.3-.12s-.09.06-.14.14c-.05.06-.04.15.02.2.02.02.05.03.07.03l.22.07c.11 0 .24 0 .27-.07s-.03-.19-.14-.25zm.49 12.15c-.1-.07-.2-.12-.32-.14 0 0-.11.12-.19.25s0 .19.1.19h.3c.12 0 .24 0 .26-.09s-.07-.14-.15-.21zm2.41-.13c-.1.01-.2.06-.27.13-.1.08-.16.17-.14.22s.14.08.26.08h.36c.12 0 .15-.07.08-.17s-.2-.26-.29-.26zm-5.71-12.15c-.09.01-.17.06-.23.12-.1.08-.16.18-.14.21.07.06.17.09.26.08h.2c.12 0 .23 0 .25-.07s0-.13-.13-.22a.402.402 0 0 0-.21-.12zm-7.86.01c-.1 0-.19.03-.27.09-.1.06-.18.16-.16.22s.13.11.25.12h.46c.02 0 0-.13-.1-.23s-.11-.2-.18-.2zm8.17 12.13c-.07 0-.16.12-.28.26s0 .17.08.17h.32c.12 0 .23 0 .25-.06s0-.13-.13-.21a.487.487 0 0 0-.24-.16zm8.14.17a1.93 1.93 0 0 0-.34-.11s-.06.06-.1.12 0 .17.13.21l.21.07c.12 0 .24 0 .26-.07s-.04-.17-.16-.22zM40.98 14.75l-.08.08c-.07.04-.09.13-.05.19.01.02.03.04.05.05.1 0 .19.08.25 0 .26-.13.16-.24.05-.35-.07-.05-.16-.03-.22.03zm-16.2-25.41c.24-.04.47-.12.69-.23.12-.06.26-.06.38 0 .34.25.68.53 1.15.17s.12-.75-.09-1.2c-.05-.12 0-.25.12-.3 4.61-2.16 9.28-3.75 14.48-2.18.12 0 .17 0 .11-.13a.873.873 0 0 0-.29-.37c-.46-.31-.95-.58-1.45-.82-.3-.14-.34-.28-.2-.54.28-.6.87-.99 1.53-1h.42c.12 0 .22 0 .23-.08s-.08-.12-.19-.16c-.16-.08-.33-.13-.51-.15-.98-.17-1.96.29-2.46 1.15-.12.19-.28.49-.44.5h-2c-.09 0-.17-.07-.17-.17v-.04c.32-1.08 1.04-2 2-2.58.1-.07.08-.15 0-.17-.16-.03-.31-.03-.47 0-1.3.29-2.33 1.27-2.68 2.56-.06.16-.14.39-.27.42-.71.2-1.42.37-2.18.55-.08.03-.18 0-.21-.09-.01-.03-.01-.06-.01-.08-.01-1.05.5-2.04 1.36-2.64.1-.07.08-.14 0-.15-.27-.03-.55 0-.81.09-.74.29-1.27.95-1.4 1.74-.08.38-.13.76-.16 1.15 0 .32-.17.43-.44.52-.64.21-1.28.42-1.91.67-.37.15-.5 0-.53-.32-.07-.66.12-1.33.55-1.84.24-.29.5-.56.82-.92.08-.09 0-.17-.07-.16-.74.01-1.42.38-1.82 1-.52.76-.69 1.71-.48 2.61.03.15-.01.3-.11.42-.27.21-.57.35-.9.43-.16 0-.35-.34-.57-.42-.24-.11-.51-.14-.77-.06-.19.08-.41.47-.36.62.18.35.05.78-.3.96a.3.3 0 0 1-.1.04.538.538 0 0 0-.11.84c.13.21.37.35.62.36zm35.64 23.44c-.32.16-.59.39-.79.68-.25.46-.79.68-1.29.53l-.55-.08c-.31 0-.36-.2-.27-.45.18-.66.59-1.23 1.14-1.63l.18-.14c.09-.08.08-.19 0-.22-.62-.14-1.25.13-1.59.66-.28.46-.53.93-.76 1.42-.09.17-.21.41-.35.44-.33.06-.66.1-1 .11a.243.243 0 0 1-.26-.2c-.12-1 .25-1.99 1-2.66.08-.09.06-.15-.07-.13-.22.03-.43.1-.62.2-.81.34-1.34 1.12-1.36 2 0 1-.46 1.24-1.25 1.33h-.1c-.47.12-.61 0-.66-.47-.13-.67.06-1.37.52-1.88.09-.09.07-.17-.06-.17-.5.01-.95.31-1.17.76-.3.56-.37 1.2-.21 1.81.05.21-.01.44-.16.6-.35.29-.77.49-1.21.59-.22 0-.5-.39-.76-.6a.606.606 0 0 0-.86.07c-.01.02-.03.03-.04.05-.24.21-.26.58-.04.82l.04.04.14.14c.08.08.08.21 0 .29-.66.75-.68.92-.36 1.28s.6.38 1.27 0c.1-.08.25-.08.35 0 .3.33.54.8 1.13.4.12-.09.19-.24.19-.39-.08-.32-.17-.63-.29-.93-.04-.12.01-.25.12-.31.6-.35 1.23-.66 1.87-.94 1.49-.5 3.05-.77 4.62-.8 1.51-.19 3.04.26 4.2 1.25.05.04.1.06.16.07.1 0 .14 0 .12-.16-.04-.2-.1-.39-.2-.57-.23-.29-.47-.56-.74-.82-.4-.45-.44-.79 0-1.19.28-.22.58-.4.9-.55.07-.04.09-.13.05-.19a.12.12 0 0 0-.05-.05c-.28-.2-.65-.2-.93-.01zm-2.44 7.29c-.27.05-.53.14-.78.26-.32.21-.63.46-.9.73-.33.28-1.16.33-1.39 0s0-.75.21-1c.24-.24.5-.45.78-.63.1-.08.21-.14.33-.2.11-.06.1-.13 0-.15a.81.81 0 0 0-.22 0c-.92.03-1.72.64-2 1.52a1 1 0 0 1-1 .82c-.36 0-.48-.06-.58-.37-.12-.45-.01-.92.28-1.28.11-.16.22-.34.35-.55s0-.17-.1-.14a2.088 2.088 0 0 0-1.44 2.4c.02.45-.33.84-.78.86h-.03c-.41 0-.52-.36-.53-.67-.01-.33.02-.67.07-1 0-.12 0-.2-.09-.18a.37.37 0 0 0-.11.05c-.63.43-.8 1.28-.4 1.93.18.25.13.6-.11.78-.02.01-.04.03-.06.04-.32.25-.53.38-.88 0a.87.87 0 0 0-.8 0c-.33.18-.14.51 0 .75.08.12.17.23.27.33.08.07.09.2.02.28l-.02.02a.39.39 0 0 0-.14.17c-.08.23-.2.58-.1.7s.47.17.72.17.25-.16.34-.27c.26-.31.51-.43.81-.06.05.06.14.14.2.14s.52.06.62-.06c.1-.19.1-.42 0-.61-.12-.16-.26-.3-.43-.41a.19.19 0 0 1-.02-.27c.01-.01.01-.02.02-.02.89-.85 1.99-1.44 3.18-1.73 1.58-.38 3.14-.46 4.49.72h.09s.06-.12 0-.23c-.03-.09-.07-.18-.12-.26-.12-.16-.26-.3-.43-.42a.54.54 0 0 1-.08-.93c.27-.3.56-.59.84-.89.07-.06.12-.14.15-.23 0 0-.11-.18-.23-.11zM38.58 25l.29.09c.08.03.18-.01.21-.09.01-.02.01-.03.01-.05v-.18a.223.223 0 0 0-.2-.24h-.21c-.09 0-.18-.04-.25-.11 0 0 0-.12.12-.17.05-.02.1-.05.13-.1.06-.12.1-.36.06-.39s-.43-.13-.44-.09c-.17.36-.31.74-.42 1.12.11.08.24.14.37.18.11.03.22.03.33.03zm2.5.78c.13.09.28.17.44.21.08 0 .17 0 .26.05l.29.09c.11.03.23-.03.27-.14l.08-.26c.05-.13.12-.26.21-.37.15-.2.12-.38-.18-.47a.478.478 0 0 0-.29 0l-.2.07a.67.67 0 0 0 0 .2c.06.14.14.3 0 .39a.21.21 0 0 1-.26 0 .234.234 0 0 0-.07-.07.747.747 0 0 0-.44-.09c-.09.11-.13.25-.11.39zm2.48.49c-.27.18-.16.33-.06.48.04.06.07.12.1.18.07-.03.14-.05.21-.05.19-.04.38.02.5.17.11.06.23.06.34 0 .1-.1.15-.24.15-.38-.03-.22-1.04-.53-1.24-.4zm-.62.49a.859.859 0 0 0-.45 0c-.08 0-.16.26-.12.32s.28.28.37.25.32 0 .39.11c.06.1.18.15.3.12.32-.12.37-.2.25-.44s-.1-.19-.1-.18l-.2-.05-.44-.13zm-3.58-2.26c.15-.08.34-.02.42.13 0 .01.01.02.01.03h.39c.09-.08.13-.2.11-.32-.1-.12-.23-.2-.38-.26h-.27c-.18-.23-.41-.32-.57-.08-.06.08 0 .23 0 .38.05.11.18.16.29.12zm3.99 3.32l-.11-.18h-.46a.378.378 0 0 0-.49-.12.38.38 0 0 0-.22.31c0 .51.82.11.94.53.08.03.18.03.26 0 .09-.06.21-.19.2-.27-.03-.1-.07-.19-.12-.27zm-1.45-.31l-.21-.13a.16.16 0 0 0-.22.04l-.03.06-.09.32c0 .06 0 .14-.07.17-.35.21-.26.41-.11.6.08.08.21.08.3 0 .12-.1.24-.2.23-.24-.12-.32.06-.45.23-.58.06-.06.06-.15.01-.21-.01-.01-.03-.02-.04-.03zm.66-2.86c.09.08.19.11.22.07s.12 0 .21 0c.05.04.11.07.17.09.14.04.3.04.44 0 .08 0 .18-.23.15-.26-.09-.12-.21-.23-.35-.3-.14-.08-.3-.14-.46-.18a.935.935 0 0 0-.47 0c-.09.08-.12.2-.1.32.04.1.11.19.19.26zm-4.37.85a.88.88 0 0 0-.36-.38c-.14-.07-.28-.12-.43-.14-.13 0-.32-.12-.38-.07-.11.1-.17.26-.15.41 0 .09.24.14.38.19s.24.08.35.14l.14.09c.09.07.2.07.29 0 .1-.12.17-.2.16-.24zm5.98 1.79a.52.52 0 0 0-.19.17c-.08.09-.11.19-.07.23s0 .12 0 .22c-.04.05-.07.11-.09.17 0 .12-.08.3 0 .38s.29.19.35.14c.11-.11.18-.24.22-.39.05-.11.09-.22.12-.33 0-.15.13-.32.08-.44a.395.395 0 0 0-.42-.15zm-4.74-2.2c.02.31-.07.61-.26.85 0 0 0 .13.14.25.08.08.21.08.3 0 .1-.08.18-.14.19-.21 0-.25.09-.49.24-.69 0-.07-.08-.36-.19-.42-.17 0-.32.08-.42.22zm.71 1.62c-.25-.09-.51-.16-.78-.2-.11-.03-.24 0-.33.07-.04.04-.07.09-.07.15 0 .12.15.27.28.33.18.1.38.17.58.2.09.01.17.01.26 0 .12-.03.2-.15.17-.27-.03-.15-.05-.25-.11-.28zm1.22-.15a.825.825 0 0 0-.37-.39c-.15-.07-.31-.11-.47-.12h-.22c-.12.02-.21.12-.2.24 0 .12 0 .22.07.25.24.11.48.2.74.26.13.04.26.01.36-.08.06-.05.1-.11.09-.16zm1.92-1.4a.408.408 0 0 0-.37.15 2.4 2.4 0 0 0-.31.82c0 .09.07.19.17.31.09.09.22.09.31 0 .07-.04.12-.09.15-.16.12-.27.2-.54.25-.83a.403.403 0 0 0-.2-.29z"/><path d="M41.63 25.09h.34a.739.739 0 0 1 0-.21v-.28c.3-.26.25-.46.1-.66a.135.135 0 0 0-.19-.06c-.03.01-.05.04-.06.06-.08.14-.17.29-.25.44-.04.07-.06.14-.07.21v.39c.01.06.07.11.13.11zm-4.92-1.14a.257.257 0 0 0-.33 0c-.08.05-.14.12-.17.21 0 .09.07.19.17.32.07.08.19.08.27.01l.01-.01c.13-.13.24-.22.22-.3a.48.48 0 0 0-.17-.23zM43.95 26c.1 0 .19-.08.32-.18.08-.06.09-.18.03-.25l-.03-.03c-.11-.11-.2-.2-.26-.18-.16.04-.29.15-.35.3-.03.13.19.34.29.34zm-.15 2.81c-.09.02-.18.06-.25.13-.09.09-.09.23 0 .32.05.08.12.14.21.17.08 0 .19-.06.32-.14.07-.06.09-.16.03-.24l-.03-.03c-.12-.12-.21-.21-.28-.21zM40.83 25c.09 0 .18-.1.28-.21.08-.08.08-.2.01-.28l-.01-.01c-.12-.11-.22-.19-.27-.17-.1.05-.18.12-.25.21-.09.09-.09.23 0 .32.04.03.16.14.24.14zm-.2.81c.06 0 .15 0 .24-.08s.17-.16.14-.22a.804.804 0 0 0-.22-.23.564.564 0 0 0-.24-.13c-.09 0-.31.25-.29.28.08.16.21.3.37.38zm-1.82-.41c-.08-.08-.21-.08-.3 0-.1.11-.19.2-.17.24.04.1.11.18.19.25.09.08.23.08.32 0 .08-.06.14-.14.17-.24 0-.05-.1-.14-.21-.25zm-.39.79c-.07 0-.16.08-.27.19-.08.06-.09.18-.03.25l.03.03c.12.1.21.2.3.19s.14-.09.22-.18c.08-.1.08-.23 0-.33a.497.497 0 0 0-.25-.15zm5.66-1.61c-.09.11-.17.2-.16.27.03.09.09.16.16.21.1.08.23.08.33 0 .09-.07.16-.14.16-.21s-.09-.18-.2-.3c-.07-.07-.18-.08-.25-.01-.02.01-.03.02-.04.04zm-1.37 4.09c-.08.07-.07.29 0 .42.03.06.07.11.13.14a.2.2 0 0 0 .27 0c.04-.04.07-.09.09-.15v-.4a.405.405 0 0 0-.49-.01zM37.4 24.7c.06 0 .16-.07.27-.17.08-.06.09-.18.03-.25l-.03-.03a.691.691 0 0 0-.3-.2c-.09 0-.3.22-.28.32.05.15.16.27.31.33zm4.47 1.81h-.25c-.18.23-.08.39.22.58.06.04.14.03.18-.02.02-.02.03-.06.03-.09v-.27a.223.223 0 0 0-.18-.2zM41.33.38c-.37-.58-.65-.61-1 0-.48.84-.94 1.69-1.4 2.55-.02.07-.02.14 0 .21 0 .12 0 .24.07.25s.15 0 .25-.09.41-.25.42-.38c.11-.76.41-1.47.89-2.07.05-.07.11-.13.18-.18.08-.08.2-.08.28-.01l.01.01c.13.18.25.36.36.56.19.4.29.87.85.94.06 0 .16.19.14.28-.04.1-.13.18-.24.21-.29.07-.59.12-.89.16s-.51.21-.47.58c.07.52.1 1.05.08 1.57-.06.63.35 1 .72 1.37.05.07.15.1.22.05a.12.12 0 0 0 .05-.05l.29-.4c.07-.1 0-.17-.09-.17-.56 0-.69-.36-.69-.85 0-.25-.06-.5-.06-.75 0-.79.2-.94.94-.74.5.21 1.07.21 1.57 0a.6.6 0 0 1 .73.05c.55.41 1.23.59 1.91.5.2-.02.41-.02.61 0 .12 0 .2 0 .16.08-.04.09-.04.18 0 .27.14.33.27.66.38 1 .06.21.08.54 0 .66-.49.48-1.05.88-1.55 1.35-.25.24-.48.5-.69.77-.08.09-.11.21-.06.26s.16 0 .26 0c.15-.09.29-.2.43-.31.14-.12.21-.32.36-.41.65-.4 1.31-.77 2-1.15.28-.14.43-.44.38-.75 0-.14.02-.27.06-.4a.13.13 0 0 1 .16-.11c.02 0 .05.02.07.03.24.22.52.4.81.54.46.16.51.44.3.77-.37.55-.81 1.06-1.2 1.6-.2.27-.36.56-.54.85-.06.1-.09.21-.06.24.09.03.18.03.27 0l.36-.07a.24.24 0 0 0 .18-.26c0-.42.24-.63.61-.79.21-.08.41-.21.57-.37.26-.3.46-.65.7-1s.38-.6 0-1c-.62-.75-.55-1.08 0-1.87.24-.34.4-.74.47-1.15.1-.63.22-.74.85-.57.23.05.46.07.7.07h.22s-.07-.13-.17-.2l-.14-.11a.26.26 0 0 1-.06-.33l.28-.47c.06-.11 0-.14-.09-.09-.35.18-.46.2-.59 0a.24.24 0 0 1 .08-.32l.42-.28c.1-.07.09-.15 0-.2l-.57-.21a.151.151 0 0 1-.11-.2c.01-.02.02-.05.03-.06.23-.29.46-.52.36-.87 0-.12-.12-.12-.17 0-.02.06-.06.12-.1.17-.07.06-.15.12-.24.16-.06.05-.15.04-.2-.02a.114.114 0 0 1-.03-.08.58.58 0 0 1 0-.32c.16-.27.34-.54.53-.79.07-.11.13-.23.18-.35.06-.11 0-.15-.1-.1-.68.33-1.3.63-1.39 1.42 0 .12 0 .21-.08.19a.658.658 0 0 1-.17-.23l-.09-.18c-.06-.1-.18-.13-.24 0-.21.3-.06.61.14.91s.54.77.78 1.18c.22.34.17.79-.12 1.07a.19.19 0 0 1-.27.03l-.03-.03c-.69-.76-1.62-.65-2.54-.61-.4.03-.81.03-1.21 0-.41 0-.76-.28-.85-.68-.14-.43-.01-.91.34-1.2.36-.29.69-.13 1 .1h.08v-.24l-.25-.73c0-.12 0-.18.14-.13l.45.2c.07.04.16.06.24.05 0 0 0-.12-.06-.23l-.34-.59c-.06-.1 0-.17.11-.15h.24c.12 0 .17-.05.09-.15s-.36-.37-.52-.56c-.13-.16-.23-.33-.32-.52a.21.21 0 0 1 .07-.29c.01 0 .01-.01.02-.01l.45-.24s-.05-.09-.17-.13c-.38-.12-.79-.12-1.17 0-.19.05-.39.05-.58 0a.2.2 0 0 1-.16-.22c0-.01 0-.02.01-.03l.16-.5v-.07c0-.07-.11 0-.22 0-.83.44-1.5 1.27-2.63 1.1-.12 0-.15 0-.08.13l.09.11c.08.07.09.19.02.27-.01.01-.01.02-.02.02l-1.56 1.07c-.1.06-.09.16 0 .21.48.24.83.53 1.32.2h.35c.08.01.14.09.12.17 0 .02-.01.04-.02.06-.17.25-.3.47-.45.68L42.32.32l-.23.32c-.07.09-.21.12-.31.06-.17-.07-.33-.18-.45-.32zm4-4c.43 0 .71.33.82.94.16.87.06 1.52-.27 1.75-.1.06-.21 0-.21-.14.09-.81-.06-1.63-.43-2.36-.03-.07.01-.17.13-.16l-.04-.03zm-5.98-2.14c-.14 0-.28-.04-.4-.12-.03-.03-.08-.04-.11-.01l-.01.01v.16c-.02.04-.02.08 0 .12.15.08.32.13.49.13.38.03.71-.26.74-.64v-.09a.774.774 0 0 0-.53-.75c-.28-.13-.37-.24-.37-.42-.01-.17.13-.31.3-.32h.03c.11 0 .22.03.31.08.03.03.08.04.11.01l.01-.01v-.16a.13.13 0 0 0-.05-.13.86.86 0 0 0-.42-.09.66.66 0 0 0-.69.63v.06c0 .33.23.63.55.72.26.12.35.23.35.43.03.19-.1.36-.29.39h-.02zm.85-1.83h.51v2c-.01.05.03.09.08.1h.17c.05 0 .09-.04.09-.09v-2.01h.51c.05 0 .09-.04.09-.09v-.16c0-.05-.04-.09-.09-.1h-1.37c-.06 0-.1.04-.1.1v.16c0 .05.04.09.09.09h.02zm2.35 2.18c.51 0 .8-.4.8-1.09v-1.35c0-.06-.04-.1-.1-.1h-.16c-.05.01-.09.05-.09.1v1.37c0 .33-.08.72-.44.72s-.42-.26-.42-.72v-1.37c0-.06-.04-.1-.1-.1h-.16c-.05.01-.09.05-.09.1v1.36c.01.94.48 1.08.76 1.08zm1.03-2.18h.51v2c-.01.05.03.09.08.1h.17c.05 0 .09-.04.09-.09v-2.01h.51c.05 0 .09-.04.09-.09v-.16c0-.05-.04-.09-.09-.1h-1.37c-.05.01-.09.05-.09.1v.16c0 .05.04.09.09.09h.01z"/><path d="M45.16-7.59h.47v2c-.01.05.03.09.08.1h.17c.05 0 .09-.04.09-.09v-2.01h.51c.05 0 .09-.04.09-.09v-.16c0-.05-.04-.09-.09-.1h-1.37c-.05.01-.09.05-.09.1v.16c-.01.05.02.1.07.1.03.01.05 0 .07-.01zm1.69 1.83a1 1 0 0 0 .78.33c.2 0 .4-.04.58-.11.04-.02.07-.06.07-.11V-6.7c0-.05-.04-.09-.09-.1h-.56c-.06 0-.1.04-.1.1v.15c.01.05.05.09.1.09h.31v.62c-.1.02-.19.02-.29 0-.44 0-.72-.35-.72-.93s.29-.92.76-.92c.13-.01.26.02.38.07.04.02.09.01.11-.03.01-.01.01-.02.01-.03v-.15c.01-.05-.01-.11-.06-.13-.15-.06-.31-.09-.47-.09a1.146 1.146 0 0 0-1.12 1.28c-.03.36.08.72.31 1.01zm1.68.31h.16c.05 0 .1-.03.11-.08l.18-.66h.65l.19.66c.01.05.05.08.1.08h.18c.02.01.04.01.06 0a.11.11 0 0 0 0-.08l-.65-2.31a.137.137 0 0 0-.1-.08h-.21c-.05 0-.1.03-.11.08l-.65 2.31a.11.11 0 0 0 0 .08c.03.02.06.02.09 0zm.53-1.08l.18-.65c0-.09 0-.18.06-.26l.06.26.18.64-.48.01zm1.43 1.08h.14c.05.01.09-.03.1-.08v-.96h.19c.21 0 .3.12.36.43.03.18.06.36.11.53.02.05.06.08.11.08h.16c.02.01.05.01.07 0a.11.11 0 0 0 0-.08c0-.11-.08-.34-.13-.61a.653.653 0 0 0-.25-.48c.22-.13.34-.37.33-.62a.698.698 0 0 0-.16-.48.767.767 0 0 0-.61-.21c-.15-.02-.3-.02-.45 0-.05.01-.08.05-.08.1v2.27c-.01.05.02.1.06.11h.05zm.25-1.37v-.79h.2c.21-.02.4.13.42.34v.07c.02.21-.13.4-.34.42h-.07l-.21-.04zm1.13-.77h.51v2c-.01.05.03.09.08.1h.17c.05 0 .09-.04.09-.09v-2.01h.51c.05 0 .09-.04.09-.09v-.16c0-.05-.04-.09-.09-.1h-1.37c-.05.01-.09.05-.09.1v.16c0 .05.04.09.09.09h.01z"/></g></svg>