<svg xmlns="http://www.w3.org/2000/svg" width="60" height="60" viewBox="28 -29 60 60"><title>Car-logos_Wolksvagen</title><g fill="#333"><path d="M63.76-20.74c-3.73-.97-7.64-.97-11.37 0L58.09-5l5.67-15.74zM80.48 1c.02-2.73-.46-5.44-1.42-8L68.37 20.9A22.529 22.529 0 0 0 80.48 1z"/><path d="M69.32-18.43L62.69-.29h-9.28L46.79-18.5c-2.43 1.4-4.59 3.24-6.35 5.43l9.39 24.36 3.44-8.9h9l3.44 8.9 9.49-24.65a22.488 22.488 0 0 0-5.88-5.07z"/><path d="M58.01-29c-16.57 0-30 13.43-30 30s13.43 30 30 30 30-13.43 30-30c-.04-16.55-13.45-29.96-30-30zm0 56.16c-14.46 0-26.18-11.72-26.18-26.18 0-14.46 11.72-26.18 26.18-26.18S84.19-13.48 84.19.98V1c-.04 14.44-11.74 26.13-26.18 26.16z"/><path d="M57.82 7.16l-5.8 15v.47c1.95.54 3.97.82 6 .81 1.91 0 3.82-.24 5.67-.71l-.07-.56-5.8-15.01zM35.53 1c0 8.21 4.49 15.76 11.69 19.69L36.8-6.47c-.85 2.4-1.28 4.93-1.27 7.47z"/></g></svg>