<svg xmlns="http://www.w3.org/2000/svg" width="113.02" height="36.59" viewBox="55 -17.59 113.02 36.59"><title>Car-logos_Bentley</title><g fill="#333"><path d="M55.31-13.58l1.35.7c.32.17 1.62.82 1.62.82v.12c0 .06-.11.49-.16.75l-.2 1c0 .14 0 .31.12.39l1.33.63 1.69.77c-.01.19-.01.37 0 .56 0 .19.07.8.09.94s0 .41.23.54c.29.17.61.3.93.39l1.06.3 1.22.33s.07.37.18.82c.07.41.18.82.32 1.22.07.18.21.32.39.39.33.09.66.17 1 .23.25.06.78.14 1.16.19l1.21.12.08.16c.16.27.34.54.53.79.15.25.32.48.51.7.18.19.28.37.49.43.48.12.96.22 1.45.29l1.81.22c.44.05 1.26.06 1.26.06s.07.32.18.6c.1.29.25.56.44.8.16.26.43.43.73.47.28 0 1 .11 1.23.11h2.93s0 .14.08.26c.11.24.24.48.39.7.12.19.26.36.43.51.18.18.42.29.67.32.41.01.82-.01 1.22-.08.51-.06 1.01-.15 1.5-.27l1.12-.27c.11.2.22.39.35.58.13.2.29.38.47.54.13.09.22.19.75.22.55-.01 1.09-.1 1.62-.26.51-.12 1.25-.36 1.25-.36s0 .09.07.31.29.79.55 1.44c.22.55.47 1.09.75 1.61.29.55.63 1.09 1 1.59.4.54.87 1.12 1.17 1.45s1.55 1.58 1.93 1.9 1.31 1 1.72 1.3 1.1.7 1.51.92 1.39.7 1.85.91 1.13.43 1.13.43.13.27.21.47.47.94.53 1 .19.11.29.08.68-.25.88-.33.74-.29.74-.29l.42.64c.12.18.43.62.48.71.07.07.17.09.26.06.07 0 .42-.26.68-.39l.84-.44.38.47c.1.11.58.68.65.76.06.08.17.1.26.05.08 0 .53-.39.7-.51l.68-.49.56.56c.21.21.44.41.68.59.05.03.12.03.17 0l.13-.12c0-.06.4-.39.54-.54l.55-.53c.07.06.14.12.22.17.12.07.47.36.68.51.15.14.31.25.49.34.09 0 .16.05.2 0s.47-.53.61-.71.47-.59.47-.59l.67.38c.13.06.76.42.82.44s.19.06.25 0 .37-.53.48-.7.44-.66.44-.66l.7.29.92.34c.1.03.22 0 .29-.08.05-.08.29-.53.41-.8s.37-.76.37-.76.61-.24 1.14-.48 1.75-.9 2.42-1.31c.69-.44 1.36-.91 2-1.41.48-.39 1.36-1.18 1.57-1.39l.77-.81c.52-.57 1-1.17 1.45-1.8.2-.29.85-1.35 1-1.6s.53-1.09.61-1.29.39-1.09.39-1.09c.17.07.34.14.51.19.29.1.59.17.89.22.2.03.41.03.61 0 .2-.08.39-.18.56-.32.17-.15.32-.31.46-.49.11-.16.2-.33.29-.5l.33.11 1 .3c.24.06.82.19 1.09.23.3.06.6.08.9.06.26-.07.49-.21.66-.42.18-.18.33-.39.44-.61.09-.17.17-.35.23-.54.13.06.26.11.39.15.4.1.8.18 1.2.23.33.05 1 .09 1.36.1.3 0 .61-.01.91-.05.19-.01.37-.11.48-.26.13-.14.24-.29.32-.47.11-.23.21-.47.29-.72.06-.21.16-.58.16-.58h3.35c.26-.01.52-.04.78-.09.19-.03.37-.13.5-.28.14-.15.25-.32.33-.51.08-.22.15-.45.2-.68 0-.12.11-.63.11-.63.12.03.25.05.37.07l1 .09h1.34c.28 0 .57-.02.85-.06.17-.07.32-.17.46-.3.21-.2.39-.41.56-.64.17-.27.32-.55.44-.85.08-.2.26-.86.26-.86h.47l1.28-.13c.37-.05.74-.13 1-.19.22-.05.42-.16.58-.31.17-.18.3-.39.38-.63.08-.27.13-.55.16-.83v-.75h.33c.17 0 .59-.09.88-.15.36-.07.71-.18 1.05-.32.2-.09.37-.2.53-.35.15-.22.27-.46.35-.71.05-.28.08-.56.08-.85v-.7l.87-.23c.32-.08 1-.38 1.2-.45s.66-.36.69-.38c.02-.18.02-.35 0-.53-.04-.3-.11-.6-.21-.89-.08-.23-.32-.79-.32-.79l1.1-.46c.31-.13 1.25-.61 1.34-.66.09-.04.17-.1.23-.18.07-.08.26-.42.3-.49s0-.12-.13-.23-.38-.49-.64-.81c-.32-.35-.65-.68-1-1-.07-.06-.25-.06-.68 0s-2.67.21-3.72.32-3.18.21-3.8.22-2.66-.07-3.63-.12-5.76-.33-6.85-.33-6.41.26-7.3.32-3.94.18-4.89.19c-1.1 0-2.19-.07-3.28-.21-.58-.07-2.65-.27-3.52-.29-.71 0-1.43.03-2.14.1-.93.09-1.86.23-2.77.42-.8.17-1.75.46-1.75.46s-1.3-.59-1.91-.83c-1.19-.41-2.4-.74-3.63-1-1.61-.32-3.24-.48-4.88-.48-1.42.02-2.84.15-4.24.39-1.29.22-2.56.53-3.8.93-.67.23-2 .75-2 .75-.49-.15-.99-.27-1.5-.35-.69-.12-3.78-.32-4.76-.32s-5.93.21-7 .25-4.18-.13-5.32-.2-5.77-.23-6.76-.22-5.13.08-5.84.12-4 .24-4.39.24h-3.24c-.76 0-2.71-.09-3.15-.14l-2.25-.24a.57.57 0 0 0-.49.19c-.16.16-.34.37-.58.64s-1.08 1.25-1.08 1.25l.08.31c.01.16.09.32.21.43zm6 3.86L60-10.31c-.28-.1-.55-.24-.79-.41-.08-.1 0-.26 0-.39a.493.493 0 0 0-.15-.43l-.34-.26.06-.3h1.06c.25 0 1.75.07 2.27.07s2.15.05 2.54 0 2.59 0 3.07 0h15.1c.18.02.37.02.55 0 .05 0 .23-.1.33 0 .09.06.16.14.2.23.06.06.13.12.2.17.09.05.17.12.24.2.05.08.11.14.19.19.11.09.14.13.09.18s-.21.26-.28.38-.1.22-.13.26c-.09.03-.18.06-.28.07 0 0 .14-.11.12-.21-.1-.2-.3-.34-.53-.34-.53 0-1.07.04-1.6.1l-3.39.31c-.46 0-4 .29-4.61.35l-3.95.24c-.54 0-2.65.15-3.3.19s-2.16.11-2.74.14-1.7 0-1.91 0c-.24-.01-.47-.07-.69-.15h-.02zM97.15 4.01c0 .08.07.16 0 .18s-.26.16-.31.18c-.1.03-.21-.01-.27-.1 0-.08-.26-.09-.41-.23a.278.278 0 0 1-.14-.33c.02-.24.02-.48 0-.72l-.14-.31s.24-.57.3-.68c.05-.09.1-.18.14-.27.03.15.07.3.12.44.09.14.17.29.24.44 0 .11.28.73.31.83.06.1.09.22.09.34-.01.08.02.17.07.23zm-2.53-6.18c-.13-.23-.21-.24-.31-.28s-.16 0-.32-.07-.26-.27-.37-.29-.09 0-.18 0c-.07.04-.15.04-.22 0 0 0 .53-.49.79-.75l1-1c.25-.25.61-.6.61-.6.06.09.16.14.27.15h.5c.15.03.3.01.44-.05.05-.05.11-.08.17-.1l-.25.33c-.15.19-.53.73-.75 1.05s-.7 1.05-.78 1.19l-.33.52c-.04.05-.08.1-.12.16a.642.642 0 0 0-.15-.31v.05zm-.28-6.17s-.41.32-.55.45c-.14.14-.28.27-.43.39-.06 0-.27-.08-.4-.15-.17-.07-.35-.12-.53-.15h-.2s.29-.26.5-.42.57-.41.74-.54.32-.21.37-.23c.06 0 .12.02.16.06 0 0 .14 0 .18.12s0 .19 0 .24.12 0 .14.09l.03.09-.01.05zm0 .39l.41-.32s.13 0 .11.09.07.09.11.09c.08-.01.16-.01.24 0 0 0 .1.05.1.13v.17c0 .01.11 0 .12 0v.08s-.45.46-.64.63-.49.49-.53.54l-.07.09a.856.856 0 0 0-.23-.33.8.8 0 0 0-.37-.23c-.1-.01-.2-.01-.3 0l.52-.48.53-.46zm-1-1.52c-.07.13-.16.26-.27.36-.2.19-.35.27-.47.38-.12.11-.25.21-.4.27-.09 0-.25-.07-.33-.09-.13-.03-.26-.08-.38-.14a.39.39 0 0 0-.23-.07l-.28.05v-.16l.66-.36c.15-.1.68-.35.89-.48.18-.11.39-.17.6-.2.13 0 .24.06.26.12 0 .1-.03.19-.08.27l.03.05zm-.81-1c-.09 0-.6.33-.79.41-.24.12-.49.23-.75.31-.14 0-.27-.02-.4-.07l-.23-.06h-.21v-.18s.43-.23.79-.39 1.1-.42 1.25-.45.32-.1.41 0 .16.09.14.16c-.06.09-.15.16-.24.22l.03.05zm-.15-1.33s-.05.06-.14.14c-.07.11-.16.19-.27.26l-.62.18c-.28.06-.7.2-.86.24-.13.07-.28.1-.43.06l-.42-.1a.248.248 0 0 0-.17 0 .11.11 0 0 1-.08 0v-.19s.45-.2.76-.31.91-.24 1.19-.3.46-.13.56-.09c.1.01.21.01.31 0h.14s.03.03-.01.06l.04.05zm-2.77 1.55c.15.06.3.13.32.22.02.11-.02.23-.09.32a.605.605 0 0 0-.08.41c-.05.05-.12.08-.19.09h-.16c0-.07-.02-.14-.06-.19a.479.479 0 0 0-.41-.13l-.86.34-1 .44c-.16.09-.34.14-.53.13-.18-.02-.36-.06-.53-.13-.15-.07-.36-.18-.42-.19h-.22c.01-.08.05-.14.1-.2.07-.06.26-.09.36-.16l.71-.25c.31-.12.9-.29 1.15-.35s.79-.24.93-.31c.14-.08.29-.13.45-.15.17 0 .34.02.5.06l.03.05zm-3 2.69l.68-.33c.23-.11 1.12-.51 1.4-.65s.72-.34.81-.37c.1-.06.2-.1.31-.13.17.02.34.05.51.09.14 0 .35.06.39.13.05.1.07.22.05.33-.04.1-.07.2-.07.31v.27l-.21.1c-.08.05-.16.09-.24.12a.497.497 0 0 0-.13-.19.407.407 0 0 0-.38-.08c-.08 0-.61.33-.81.45l-.75.48c-.11.1-.26.15-.41.13-.16 0-.32-.04-.47-.11-.15-.08-.29-.18-.43-.28-.07 0-.32-.11-.32-.18s.07-.14.07-.14v.05zm2.26 1l1.3-.74c.22-.15.46-.28.7-.39h.69c.19 0 .32 0 .33.09.02.09.02.18 0 .27-.01.1-.01.2 0 .3l-1.39 1.1c-.23.17-.76.64-.79.65s-.22-.13-.43-.22c-.14-.06-.28-.1-.43-.12a1.58 1.58 0 0 1-.36-.14c-.09-.05-.18-.08-.27-.11-.1 0-.2.03-.29.07v-.13l.94-.63zm1.28 1.34c.24-.22 1-.82 1.18-1l.76-.6c.06-.05.15-.08.23-.07.09 0 .31-.06.4-.06s.27 0 .29.12.07.38.07.48a.57.57 0 0 0 0 .26l.07.1-.22.22-.74.7c-.19.18-.56.54-.7.68l-.36.36a.715.715 0 0 0-.18-.33c-.18-.11-.38-.16-.59-.16-.19 0-.41-.18-.5-.21a.308.308 0 0 0-.19 0h-.15l.63-.49zm2.12.59c.18-.19.8-.76.95-.91.12-.14.26-.27.42-.37.17-.05.37-.16.45-.12.1.06.17.16.2.27.06.18.2.33.38.39.15.05.31.08.47.08h.16l-.36.35c-.11.13-.48.47-.68.66s-.75.74-.9.88l-.37.33a.42.42 0 0 0-.12-.25c-.15-.12-.34-.16-.53-.12a.516.516 0 0 1-.39-.13c-.11-.08-.19-.18-.24-.18-.07.01-.15.03-.21.07-.06.01-.12.01-.18 0l.95-.95zm3.68-1.24l.07-.12s.28-.33.5-.58l.56-.6c.06-.06.11-.13.16-.2-.07.17-.13.34-.18.52-.05.2-.07.4-.08.61-.02.16-.05.31-.09.46-.01.1-.01.21 0 .31-.06.04-.12.08-.19.11-.06.03-.12.07-.18.11a.878.878 0 0 0-.11-.39.473.473 0 0 0-.22-.2.672.672 0 0 0-.24-.04v.01zm-.89 5.1c.18-.01.36-.03.53-.07.21-.05.42-.08.63-.09.08 0 .08.09.09.17s0 .76 0 1c.03.3.03.6 0 .9 0 .19-.58 1.21-.7 1.5s-.46.91-.51 1c-.03.07-.07.14-.12.2 0 0-.13-.11-.26-.26a.452.452 0 0 0-.55-.14c-.19 0-1.23.33-1.41.36-.22.07-.45.1-.68.11a.503.503 0 0 1-.33-.29c-.08-.14-.18-.22-.3-.22a.81.81 0 0 1-.22 0l1.18-1.25c.22-.22 1.39-1.48 1.64-1.76s.67-.78.78-.91.19-.26.19-.26l.04.01zm1.42-1c-.05.1-.1.2-.13.31v.18c-.06.04-.12.08-.18.11H96v-.16c-.05-.1-.1-.2-.16-.29a.503.503 0 0 1-.05-.46c.06-.21.17-.47.24-.65s.15-.36.28-.66c.1-.27.22-.52.38-.76l.29-.44c.04-.06.1-.1.16-.13 0 0 .06.11.12.19s.16.17.14.23-.31.64-.38.8-.26.83-.31 1c-.06.23-.13.46-.22.68l-.01.05zm.63-5.88c-.19.22-.82.9-1.06 1.2s-.45.54-.53.61c-.07.08-.13.16-.19.24h-.07c.05-.08.08-.18.07-.28a.706.706 0 0 0-.25-.4c-.11-.06-.14-.08-.23-.06l-.2.08h-.1s.28-.32.42-.45.48-.45.6-.57a.63.63 0 0 1 .28-.2c.13.03.26.03.39 0a.9.9 0 0 0 .41-.49.56.56 0 0 0-.2-.45.76.76 0 0 0-.41-.15c-.13.01-.26.04-.38.1-.05.02-.11.04-.17.05v-.22a.527.527 0 0 0-.12-.38.55.55 0 0 0-.41-.24h-.31c-.06 0 0-.15-.08-.29a.651.651 0 0 0-.3-.37c-.13-.05-.27-.08-.41-.09-.08 0-.08-.05-.08-.16a.613.613 0 0 0-.48-.72h-.02c-.11 0-.19 0-.19-.11.03-.11.06-.22.07-.33a.461.461 0 0 0-.18-.42c-.14-.11-.31-.16-.39-.27a.703.703 0 0 0-.2-.22h-.27l-.5.08c-.17 0-.26.07-.34 0-.13-.05-.27-.08-.41-.09h-.64c-.2.01-.4.01-.6 0-.15-.01-.3-.05-.43-.12l-.26-.13a.47.47 0 0 1-.12-.09v-.12l.06-.12h1.09c.45-.02.9 0 1.34.05.33.04.67.06 1 .06h1c.52 0 1.3.05 1.86.13.51.07 1.02.19 1.51.35.57.17 1.09.44 1.55.82.28.26.44.62.43 1-.05.38-.16.74-.33 1.08-.13.25-.45.79-.51.88s-.51.54-.7.76l-.01.05zm-8.09-3.82c.09.07.19.19.16.25-.03.07-.07.13-.12.18-.01.06-.01.11 0 .17-.01.06-.01.13 0 .19-.09.03-.19.06-.28.08h-.11s.06-.17 0-.2a.992.992 0 0 0-.4-.16c-.29.02-.58.08-.85.17-.17.07-.81.24-1 .31-.21.08-.43.14-.65.16-.19-.03-.37-.1-.54-.19-.16-.07-.2-.11-.26-.14l-.18-.11c.06-.09.12-.17.19-.24.18-.07.36-.13.55-.18.14-.05.82-.21 1.13-.28s.9-.18 1.16-.26.53-.17.62-.17c.11 0 .21.04.3.11l.28.31zm-.42-1.1c-.06.1-.11.2-.14.31 0 .1 0 .21-.07.22-.11.03-.21.05-.32.06v-.17a.857.857 0 0 0-.41-.1c-.16 0-.92.08-1.16.1l-1.06.14c-.13.03-.26.03-.39 0-.2-.08-.39-.17-.58-.27a.497.497 0 0 0-.19-.13h-.16l.07-.2.09-.16h3.74c.13.01.26.04.39.07h.14s.11.09.06.13h-.01zm-25 5.63c-.4-.08-.79-.21-1.15-.39a.642.642 0 0 1-.19-.34 1.02 1.02 0 0 0-.34-.45l-.35-.19v-.23c.19.01.39.01.58 0 .2 0 1 0 1.53-.06l3.26-.15 4.2-.23c.55 0 4.46-.31 5-.36l4.28-.35 2.8-.26c.27-.01.54-.06.8-.13.09 0 .17-.07.26 0 .12.15.26.29.41.41.13.08.5.33.51.45-.02.14-.08.27-.17.38a.97.97 0 0 0 0 .34l-.39.07v-.15a.34.34 0 0 0-.22-.27c-.22-.08-.47-.11-.7-.06-.26.06-1.47.26-2 .35s-3.33.56-4 .66-3.43.55-4.08.63-3.18.43-4.06.5-2 .2-2.54.23c-.55.04-1.09.04-1.64 0-.46.01-1.38-.29-1.83-.4h.03zm4.15 3.19c-.48-.07-1-.18-1.2-.21-.19.01-.37-.1-.45-.28-.08-.22-.06-.38-.21-.53-.12-.14-.26-.27-.42-.36-.11 0-.28 0-.31-.09a.964.964 0 0 1 0-.24c.11.01.23.01.34 0 .17 0 .33-.09.53-.11l1.19-.05c.34 0 1.35-.11 1.71-.14s2-.2 2.59-.27 3.54-.49 4-.58 3-.44 3.69-.56l3.56-.64c.59-.11 1.3-.22 1.57-.28s.44-.18.59-.14c.17.07.33.16.48.25.18.08.47.18.61.23.12.03.24.09.32.19.01.14-.01.27-.07.4-.06.1-.11.21-.13.32v.23l-.36.14s.06-.17 0-.25-.25-.22-.35-.21c-.15.01-.3.04-.44.08-.17.06-2.35.72-2.69.81l-2.59.72c-.33.1-2.37.6-2.94.72l-3.26.65c-.53.1-2.54.36-3.06.38-.33.03-.67.03-1 0-.58-.03-1.16-.09-1.73-.18h.03zm7.48 2.81c-.63-.01-1.26-.05-1.88-.13-.47-.06-1.78-.27-2-.31a.868.868 0 0 1-.39-.26c-.1-.13-.23-.23-.37-.31-.18-.07-.39-.2-.53-.24l-.31-.13c-.09-.02-.17-.05-.25-.09a.19.19 0 0 1-.07-.11s1.47-.15 1.8-.21 2.58-.36 3.12-.47 2.87-.62 3.28-.73 3-.76 3.48-.89l2.67-.76c.46-.15 1.82-.55 2-.62.14-.09.3-.15.46-.16.25.05.5.12.75.2.23.04.45.1.66.19.07.06.1.15.08.24v.77c0 .05.16.2.16.2l-.38.14-.26.11v-.23a.953.953 0 0 0-.3-.19.558.558 0 0 0-.31.06c-.28.1-.55.22-.82.35l-1.88.75c-.4.16-2 .76-2.46.93s-2.77 1-3.19 1.08l-2.25.64c-.27.07-.56.12-.84.13l.03.05zm4.28 2h-1.7c-.31 0-.62-.03-.93-.1-.22-.1-.26-.22-.39-.37-.14-.16-.33-.29-.53-.36a.813.813 0 0 0-.38 0l-.06-.18c.21-.04.41-.1.61-.18l1.14-.35c.24-.07 1.11-.3 1.47-.42s2-.69 2.37-.82 2.35-.86 2.74-1l3-1.19c.26-.1.51-.21.75-.34.2-.12.42-.22.65-.29.22-.06.44-.09.66-.09.16 0 .27 0 .33.06.06.09.09.19.08.3-.01.19.05.37.17.52.18.13.38.22.59.26.17.05.35.08.53.1h.14s-.45.28-.58.33l-.59.29s0-.12-.09-.15a1.59 1.59 0 0 0-.98.17c-.15.1-1.7.93-2 1.08s-2.67 1.39-3 1.54l-2.09 1c-.2.11-.41.18-.63.22-.3-.03-.83-.02-1.3-.01l.02-.02zm5 1.53c-.45.08-1.39.24-1.58.25a.712.712 0 0 1-.61-.16c-.16-.16-.25-.42-.46-.53a.986.986 0 0 0-.5-.16c-.29 0-.31-.06-.31-.06s1.85-.93 2.12-1 3-1.53 3.39-1.73l2.81-1.52c.44-.25 1-.58 1.13-.65s.17-.15.29-.18l.2-.06.26.34c.14.18.34.31.56.37.17.02.34.02.51 0 .14-.01.28-.04.42-.07 0 0-.67.63-.78.73s-1.59 1.3-1.88 1.56S88.72.81 88.48 1c-.38.31-.77.59-1.18.86-.28.13-.57.24-.86.32-.3.07-1.53.33-1.97.43l.04-.02zm6.49.55c-.16.05-.33.02-.47-.07-.18-.11-.34 0-.58 0l-.89.24c-.33.09-.66.15-1 .2a.742.742 0 0 1-.46-.12c-.17-.16-.37-.29-.58-.38a.498.498 0 0 0-.34-.06c-.06 0-.32.2-.37.08s1-.73 1.21-.91 1.12-.88 1.35-1.08S90.18-.01 90.5-.27s1.29-1.09 1.55-1.31l.75-.71c.02.1.06.2.12.28.13.12.27.22.42.31.23.07.46.1.7.09h.49c.09 0 .22 0 .22.18v.29c-.01.04-.01.09 0 .13L93.27.63c-.29.32-1.12 1.22-1.39 1.49s-.86.97-.92 1.03l.04-.01zm11.39 12l-.21.35-.19-.09s.14-.11.09-.22a.589.589 0 0 0-.27-.27c-.14-.08-.81-.35-1.1-.5s-1.55-.82-2-1.11-1.56-1.07-2.1-1.49-1.65-1.53-2-2c-.5-.58-.97-1.19-1.41-1.83-.25-.37-.93-1.61-1.08-1.94-.08-.24-.2-.47-.36-.67-.13-.13-.17-.16-.23-.16h-.2s0-.11-.11-.33-.11-.33-.11-.33.3.38.49.37c.12-.01.24-.04.35-.08.11-.04.22-.04.33 0 .1.06.16.16.17.28.01.2.06.4.15.58.1.22.52 1.08.76 1.47s.94 1.4 1.23 1.75 1.29 1.44 1.55 1.67 1.56 1.3 2 1.62c.72.5 1.48.96 2.25 1.38.67.33 1.51.72 1.73.81s.36.09.4.16c.03.05.07.09.11.13l-.24.45zm.41-.73c-.01.03-.05.04-.08.03l-.03-.03s.09-.17.09-.33a.75.75 0 0 0-.18-.48 1.89 1.89 0 0 0-.5-.28c-.15-.07-.85-.4-1.21-.59s-1.07-.59-1.54-.91-1.08-.73-1.5-1-1-.83-1.32-1.17c-.46-.47-.9-.96-1.31-1.48-.4-.51-.77-1.04-1.1-1.59-.26-.47-.53-1-.61-1.13a1.2 1.2 0 0 0-.4-.31c-.12-.04-.24-.08-.37-.1-.08 0-.23 0-.24-.07v-.1c.17-.01.33-.04.49-.1.22-.09.82-.26 1.06-.33s.52-.19.64-.22c.09-.04.18-.06.28-.06.07 0 .11.06.19.16.08.16.17.3.28.44.13.14.31.21.5.21.22-.01.44-.05.65-.12.21-.11.41-.23.61-.36.07 0 .19-.12.23-.08s.09.12.16.13c.07.03.12.08.16.15 0 .06.53.78.81 1.11.3.35.61.68.94 1 .27.26 1.06.95 1.38 1.18s1.24.84 1.65 1.05.91.49 1.31.65.83.33.94.39c.09.04.18.11.24.19.09.06.13.14.09.22s-.46.74-.64 1.08-.52.88-.67 1.13-.5.82-.59 1-.44.69-.45.74l.04-.02zm2.41.81c-.08.19-.3.74-.38.9s-.13.28-.13.28l-.29.09s.08-.12 0-.2-.2-.22-.29-.23c-.11 0-.22.02-.32.06-.12.05-.28.05-.33-.06-.09-.15-.17-.31-.23-.47a.382.382 0 0 1 0-.33c.07-.16.6-1.13.71-1.3s.73-1.2.86-1.45.48-.82.53-1 .11-.22.06-.33-.05-.15-.11-.18h-.16l.31-.52c.11.03.22.05.33.05.18-.03.36-.03.54 0 .2.06.46.2.49.31s-.06.31-.17.57-.63 1.63-.76 1.93-.63 1.67-.7 1.9l.04-.02zm2.5.14c0 .21-.21.93-.26 1.1s-.14.46-.16.49c-.09.07-.2.13-.31.18l-.13.06s.09-.12.06-.21a.287.287 0 0 0-.24-.17c-.12 0-.26.09-.36.06a.54.54 0 0 1-.36-.36.655.655 0 0 1-.08-.51c0-.21.54-1.39.64-1.67s.56-1.45.66-1.73c.12-.24.21-.5.26-.77a.734.734 0 0 0-.15-.35c-.06-.06-.13-.1-.17-.08-.02.01-.05.01-.07 0l.16-.43h.35c.17-.03.35-.03.52 0 .23 0 .48.08.51.18.04.13.04.28 0 .41-.05.21-.44 1.78-.5 2.06s-.37 1.55-.42 1.76l.05-.02zm2.59-2.52c0 .24-.16 1.87-.16 2s0 .86-.06 1.1-.08.62-.09.79-.11.45-.11.49v.08c-.13.11-.26.21-.4.3-.1 0-.1-.06-.17-.12-.1-.06-.2-.11-.31-.15-.19-.11-.36-.27-.49-.45a.695.695 0 0 1-.08-.58c.07-.27.3-1.19.37-1.52s.29-1.25.36-1.57c.09-.33.16-.66.21-1a.579.579 0 0 0-.16-.43.463.463 0 0 0-.18-.13l-.13-.05.07-.34h.35c.13-.01.27-.01.4 0 .16-.01.31 0 .46.05.15.02.26.16.24.32 0 .01 0 .02-.01.03-.07.19-.13.98-.15 1.2l.04-.02zM96.54.01c0-5.87 6.36-11.05 14.76-11.05S126.02-5.91 126.02.01s-6.31 11-14.72 11-14.76-5.15-14.76-11zm7.48-14.13c-.15-.12-.32-.21-.51-.26-.1.01-.2.01-.3 0a.802.802 0 0 1-.19-.13l.56-.21c.17-.07.93-.34 1.44-.48s1-.28 1.68-.41 1.6-.27 2.36-.35c.77-.08 1.54-.13 2.32-.13.58 0 1.92.08 2.47.14s1.61.19 2.24.34 1.83.44 2.35.61c.41.13.82.27 1.22.44.06.08.15.14.24.18.07.03.13.07.19.11-.16.18-.31.37-.44.58-.51.88.1 2 .91 2.61 1.07.79 3 2 3.34 3.79.05.39.07.79.06 1.18l-.26-.28c-.08-.1-.12-.54-.23-.78-.19-.36-.42-.7-.7-1-.45-.46-.95-.87-1.5-1.21-.78-.52-1.62-.95-2.49-1.29-.83-.34-1.68-.61-2.55-.82-1.29-.29-2.59-.46-3.91-.52-1.22-.03-2.44.04-3.65.19-1.09.14-2.17.38-3.22.73-.6.18-1.19.41-1.75.68-.53.24-1.04.51-1.53.81l-1.12.74c-.3.19-.36.35-.55.3a.474.474 0 0 1-.33-.3s.23-.26.45-.48.72-.66 1-.92.95-.81 1.05-.91.39-.43.39-.43.09.19.25.13c.24-.1.43-.26.57-.48.25-.38.37-.82.35-1.27.01-.48-.06-.77-.21-.9zm34.41 2.25a.752.752 0 0 0-.4-.3c-.4-.07-.8-.11-1.21-.11h-1.22c-.25 0-.49-.04-.72-.13l-.15-.05a.153.153 0 0 0-.16 0c-.02-.07-.04-.14-.05-.21v-.08c.19.02.37.02.56 0l1.32-.19c.42-.07 1.23-.21 1.5-.27.23-.05.48-.05.71 0 .11.04.19.15.2.27.04.16.08.31.14.46.05.1.08.21.1.32-.07.11-.15.21-.25.3s-.33.32-.33.32c.03-.11.03-.22-.01-.33h-.03zm-3.84.16l1.4.18c.33.06 1.24.18 1.5.22s.65 0 .78 0 .18.25.2.38c.02.13.02.27 0 .4-.07.11-.17.21-.28.28-.1.08-.21.15-.32.21-.08 0 0-.17-.06-.25a.745.745 0 0 0-.38-.15l-.71-.15-1.23-.24c-.28-.04-.57-.1-.84-.18-.2-.1-.33-.27-.44-.31-.08-.04-.16-.06-.25-.08v-.15s.19-.18.24-.18c.14 0 .29.01.43.03l-.04-.01zm2.52 3.27c-.18-.14-.38-.24-.6-.29l-1.15-.35-1.06-.33c-.18-.04-.36-.11-.53-.19-.13-.09-.27-.23-.33-.26a.455.455 0 0 0-.2-.05v-.41c0-.03.21 0 .29 0 .15-.02.31-.02.46 0 .18 0 1.2.31 1.61.38s.94.22 1.28.28.56.06.63.18c.06.16.08.34.06.51.01.16.01.32 0 .48 0 0-.19.11-.31.15l-.17.07c.04-.05.06-.1.06-.16l-.04-.01zm-.6 1.72s-.11.06-.25.08h-.22s.12-.13 0-.23a.95.95 0 0 0-.41-.27c-.25-.08-.67-.26-.85-.33s-1-.44-1.21-.51-.69-.26-.84-.34a.774.774 0 0 1-.28-.19c0-.07-.21-.09-.21-.09l.06-.27v-.24c0-.02.13 0 .24 0 .09-.03.19-.03.28 0 .08 0 .43.16.61.23l1.41.51c.3.11.85.33 1.1.39.17.05.33.11.49.2.11.09.16.22.16.36v.29l-.09.14c.02.15.09.24.05.28l-.04-.01zm-1.33 1.3c-.05 0-.19.05-.28.08-.06.01-.12.01-.18 0 .05-.03.08-.09.07-.15a.365.365 0 0 0-.26-.25c-.18 0-.37-.05-.53-.09-.18-.05-.36-.14-.52-.24-.24-.12-.71-.42-1-.55s-.7-.38-.86-.48c-.09-.07-.2-.13-.3-.18a.487.487 0 0 0-.24 0c-.08.01-.15.01-.23 0 0 0 .22 0 .27-.1.01-.14.01-.27 0-.41 0-.1 0-.15.05-.16s.15.06.25.07c.14 0 .28.03.4.09.17.09.9.47 1.27.64s1.14.55 1.38.64.61.22.67.35c.07.09.07.22 0 .31-.06.09-.1.16-.08.22s.21.18.16.23l-.04-.02zm-2.44 1c-.16-.06-.33-.11-.5-.14-.22-.1-.42-.23-.61-.38-.17-.12-.59-.45-.79-.59s-.5-.38-.64-.45c-.18-.06-.38-.1-.57-.12h-.36s-.08.16-.15.12a.657.657 0 0 0-.17-.12c-.08 0-.09-.07-.09-.07v-.16c.08-.01.16-.01.24 0 .14.03.28.03.42 0 .09-.03.17-.06.25-.11.11-.06.16-.08.26-.15s.08-.15.14-.16c.11-.01.21-.01.32 0 .06 0 .47.37.71.52l1.25.76c.28.16.56.33.82.52.14.12.23.18.22.29s-.1.19-.14.28c-.04.08-.06.17-.08.26-.02.04-.04.09-.06.13l-.34.07s.09-.08.07-.16c0-.12-.06-.24-.16-.31l-.04-.03zm-1.65 1.26c-.13-.09-.26-.16-.4-.23-.22-.14-.44-.3-.64-.47-.2-.16-.75-.68-.87-.79-.19-.17-.39-.33-.6-.48-.16-.05-.32-.08-.48-.1l-.26-.06s-.07.11-.1.11h-.06l-.06-.06-.11-.12a.33.33 0 0 0 0-.14c0-.07 0-.18.07-.17.12.05.24.09.37.11h.16c.05-.08.14-.14.24-.15h.28c.11-.01.22.01.32.06.3.19.58.39.85.62l1.14.91.52.39c.07.06.27.27.23.36-.07.09-.13.19-.18.29v.29c0 .05-.13.08-.19.08h-.22c.05-.03.09-.08.12-.13.06-.15 0-.21-.09-.29l-.04-.03zm-1.79.91l-.41-.22c-.16-.09-.31-.21-.43-.35l-.53-.68c-.13-.15-.47-.57-.61-.71-.13-.16-.31-.27-.51-.33h-.28s-.12.12-.1.16-.08 0-.16-.15-.25-.46-.25-.46c.26.1.54.13.82.1.07-.08.16-.14.26-.18a.57.57 0 0 1 .49.09c.17.13 1 .94 1.09 1l.8.77c.18.16.34.33.48.52 0 .11.07.19 0 .25s-.09.1-.11.18 0 .22-.08.27c-.05.07-.13.11-.21.1h-.23s.12-.06.12-.14a.265.265 0 0 0-.11-.19l-.04-.03zm5-10.18c-.02.07-.02.14 0 .21v.08l-.11.07-.33.19a.43.43 0 0 0 0-.16.5.5 0 0 0-.31-.22c-.23-.04-.47-.06-.7-.06h-1.1a.314.314 0 0 0-.21.05c-.07.05-.09.11-.13.11h-.15s-.09 0 0 .14c.16.13.36.2.57.2l.69.12.68.13c.14.03.29.05.43.05.06 0 .17.06.17.13v.19a.34.34 0 0 0 0 .2c.02.05 0 .1-.05.13-.05 0-.25.1-.3.13-.04.01-.09.01-.13 0v-.15a.42.42 0 0 0-.25-.16c-.15 0-.56-.16-.75-.19s-.52-.13-.74-.17-.36-.11-.42-.05-.08.1-.13.1h-.14c-.05 0-.1.1-.06.14.09.09.21.15.33.18.14.06.63.18.82.26s.58.21.77.25.4.1.44.21c.06.08.06.19 0 .27-.08.07-.09.16-.11.18v.15c-.07.05-.14.09-.22.13l-.17.08c.04-.07.04-.15 0-.22-.06-.14-.22-.21-.43-.32s-.63-.25-.78-.31l-.81-.32a.889.889 0 0 0-.36-.07c-.11 0-.17.1-.14.16s.12.08.12.15v.14c0 .02 0 0 0 0 .14.1.29.19.45.27.19.09.65.33.78.4s.5.24.58.3.27.17.24.26-.06.23-.07.28 0 .08-.07.12l-.38.11v-.11s-.08-.12-.24-.22-.72-.43-.87-.5c-.2-.1-.4-.21-.59-.34-.11-.1-.23-.2-.36-.28-.07 0-.21-.11-.3 0s-.12.23-.08.28c.05.06.1.11.16.16 0 0-.09.08-.08.11.15.13.3.25.47.36.19.15.7.48.82.57s.41.27.49.34.11.16 0 .23c-.04.04-.07.09-.09.15v.13c.01.03.01.06 0 .09a.35.35 0 0 1-.14.06h-.26a.244.244 0 0 1 0-.12c0-.08-.06-.13-.17-.22s-.51-.39-.71-.52-.57-.39-.66-.49-.25-.32-.34-.4-.21-.15-.31-.11-.22.12-.23.22 0 .17 0 .21.15.1.15.13-.1.06-.08.11c.16.16.33.3.51.43l.8.65c.16.12.3.28.41.45.04.11.04.24 0 .35-.08.06-.17.09-.26.09h-.24s.05-.12 0-.17c-.13-.12-.26-.23-.41-.33l-.87-.73c-.18-.13-.33-.3-.44-.49-.07-.13-.19-.33-.34-.33a.5.5 0 0 0-.43.16c-.09.13-.09.27 0 .33s.2.14.16.16l-.15.09c.12.08.24.16.35.26l.75.64c.15.14.44.42.5.47.07.08.12.18.13.29 0 .11-.02.21-.06.31 0 .06 0 .09-.07.13-.1.02-.19.02-.29 0a.17.17 0 0 1-.1 0s.13-.09.13-.14c-.08-.12-.18-.23-.29-.32-.1-.09-.66-.56-.86-.75-.22-.18-.41-.4-.56-.64a2.69 2.69 0 0 0-.17-.55c-.11-.15-.34-.33-.44-.48-.22-.32-.43-.65-.61-1-.17-.27-.3-.56-.37-.87 0-.28 0-.45-.06-.54s-.16-.23-.21-.23h-.25c.12-.17.28-.32.46-.43.33-.2.68-.37 1.05-.49.6-.17 1.21-.29 1.83-.38.49 0 1.79 0 2.21-.06h3.51c.21-.02.41-.02.62 0 .1 0 .28.05.29.12s-.22.23-.27.31l-.06-.02zm-8.1 5.6c.12.09.35.24.42.28.16.12.3.26.42.41.08.09.26.26.24.36-.02.16-.07.31-.15.45a.42.42 0 0 1-.25.16h-.22s.18-.06.18-.14 0-.14-.16-.27c-.11-.11-.22-.24-.31-.37a4.79 4.79 0 0 1-.25-.37h-.1s0-.3-.06-.48-.1-.31-.13-.39-.08-.28-.08-.28.4.57.51.67l-.06-.03zm-.39 2.34v-.13l.27.36c.13.11.25.23.36.36.09.1.45.57.6.79l.67.91c.08.11.32.44.31.54-.02.11-.04.22-.08.32-.05.09-.1.21-.14.22h-.28a.37.37 0 0 0 .07-.14.518.518 0 0 0-.25-.31c-.17-.09-.33-.19-.49-.3-.07-.08-.27-.59-.36-.78-.13-.26-.27-.52-.43-.76-.11-.17-.19-.35-.24-.37s0 0-.09 0c-.04.02-.09.02-.13 0 .05-.12.1-.24.13-.36.04-.11.09-.22.14-.32l-.06-.03zm4.55 8.9c-.19-.12-.39-.21-.6-.29-.18-.07-.58-.19-.83-.3-.18-.06-.35-.16-.48-.29-.2-.29-.39-.59-.55-.91l-.71-1.34c-.09-.15-.16-.32-.19-.5 0-.14 0-.64-.07-.77-.07-.16-.16-.3-.28-.42-.05-.04-.1-.08-.16-.11a.636.636 0 0 0-.18-.06v-.31h.54c.16-.01.32-.01.48 0 .08 0 .2 0 .29.11.08.13.14.26.19.4.24.4.5.79.78 1.16l.76 1 .91 1.18c.16.2.49.54.56.66s.29.41.32.48-.05.15-.1.22l-.24.28c-.08.08-.18.15-.28.21v-.18c0-.07.03-.09-.1-.19l-.06-.03zm-3.5.24c-.09-.11-.2-.2-.33-.27-.15-.08-.44-.23-.47-.32a.45.45 0 0 1 0-.36c.07-.21.07-.45 0-.66-.02-.1-.06-.2-.11-.29a.29.29 0 0 0-.11-.11s.12-.41.14-.52l.09-.36.31.49c.15.2.28.41.4.63.1.21.43.73.51.91.11.15.18.34.18.53-.04.18-.11.34-.21.49-.05.09-.05.18-.17.27-.09.06-.19.11-.3.12.09-.04.18-.1.23-.19 0-.12-.04-.23-.1-.33l-.06-.03zm-.41.72c.19.02.37.02.56 0 .16.02.31-.05.4-.18.12-.15.22-.31.29-.48l.12-.28.42.18.78.27c.22.05.44.12.64.22.12.09.16.15.15.25-.04.16-.1.32-.18.47l-.5 1c-.13.21-.62 1-.87 1.35-.41.58-.86 1.12-1.35 1.64-.26.29-.55.55-.87.77-.22.11-.56.18-.81.32l-1.22.76c-.32.2-.78.47-1.11.64l-1.4.7-.74.34c-.13.07-.27.12-.42.12a.318.318 0 0 1-.27-.2l-.6-1c-.14-.28-.7-1.22-.81-1.39a.695.695 0 0 0-.41-.36.754.754 0 0 0-.29-.09c-.08.02-.17.02-.25 0a.219.219 0 0 1-.13-.12s.54-.2.8-.33.73-.31 1-.46 1.19-.64 1.56-.86c.42-.27.84-.57 1.23-.88.39-.34 1-.9 1.26-1.14.36-.38.69-.78 1-1.2.19-.25.49-.73.49-.73l.67.34c.29.16.6.28.92.36l-.06-.03zm-14 11.57v.3l-.49.49-.56.48c.03-.1.08-.19.13-.28.06-.07.11-.2.06-.28-.15-.18-.31-.35-.48-.51a.67.67 0 0 1-.26-.43c0-.15.06-1.27.12-1.75s.1-1.52.14-1.88c.05-.31.05-.64 0-.95a.88.88 0 0 0-.28-.38 2.25 2.25 0 0 0-.24-.08v-.33c.13.01.26.01.39 0 .2-.05.41-.07.62-.07.22 0 .46.07.48.2s0 .51 0 .75.1 1.5.11 1.7.12 1.59.14 1.92.15 1 .15 1.17l-.03-.07zm2.54.09c-.11.17-.24.33-.38.48-.12.12-.55.66-.55.66a.331.331 0 0 1 0-.24c.06-.06.18-.17.17-.29a.907.907 0 0 0-.24-.44c-.09-.1-.33-.23-.44-.34a.66.66 0 0 1-.19-.46c0-.28-.12-1.68-.16-2.13s-.13-1.74-.16-1.93a.895.895 0 0 0-.19-.52c-.1-.09-.21-.15-.33-.2a.43.43 0 0 0-.16 0v-.27s.31 0 .44-.07c.21-.06.43-.09.65-.1.18 0 .37 0 .4.17s.08.46.11.61.37 1.64.42 1.85.43 1.82.48 2 .17.79.16.93c.01.11.01.21 0 .32l-.03-.03zm2.29 0c-.12.18-.51.7-.51.7a.66.66 0 0 1 0-.28c.05-.08.07-.18.06-.27a1.02 1.02 0 0 0-.24-.4c-.11-.1-.35-.17-.46-.28a.768.768 0 0 1-.26-.51c-.1-.35-.32-1.3-.38-1.58s-.37-1.62-.44-1.89c-.04-.26-.12-.52-.24-.76-.11-.14-.25-.26-.41-.34a.885.885 0 0 0-.23 0h-.09l-.06-.27c.12.02.24.02.36 0 .23-.1.47-.18.71-.24.16 0 .41 0 .44.05.07.14.13.28.18.42.07.2.55 1.41.65 1.74s.65 1.61.75 1.87.35.85.38 1c.07.17.11.36.12.54-.08.19-.18.36-.3.53l-.03-.03zm2.91-1.28c0 .11-.31.58-.36.71l-.31.56c-.01-.18-.04-.36-.09-.53a.674.674 0 0 0-.26-.38c-.16-.08-.32-.16-.48-.22-.13-.1-.23-.23-.3-.38-.13-.24-.44-1.12-.55-1.39s-.53-1.33-.67-1.65c-.13-.36-.28-.72-.46-1.06a1.11 1.11 0 0 0-.46-.34h-.38l-.09-.21.67-.16c.2-.08.4-.15.61-.2h.3c.09.1.16.21.2.33 0 .12.49.9.64 1.15l.71 1.25c.12.23.58 1 .67 1.14s.21.37.3.5.2.43.27.56c.07.1.1.23.07.35l-.03-.03zM131.3 5.14c0 .14-.21.59-.32.83s-.48.95-.61 1.18-.71 1.15-1 1.49-1 1.23-1.2 1.48-1.12 1.11-1.33 1.33-1.79 1.24-2.1 1.43-1.32.77-1.55.89-1 .48-1.18.59c-.32.17-.66.32-1 .45-.16.02-.31.02-.47 0h-.47l-.06-.11s.58-.24.89-.39 1.58-.73 1.94-.95 1.11-.63 1.5-.89 1.31-.94 1.64-1.23 1.31-1.24 1.48-1.45.93-.93 1.11-1.11c.26-.24.5-.51.71-.79.31-.46.59-.93.85-1.42.11-.26.22-.44.2-.55s0-.2-.07-.21l-.2-.07.07-.22V5.3c.1.02.19.02.29 0 .18-.1.35-.22.49-.37.15-.13.28-.27.39-.43l.08-.12s.08 0 .08.07c-.03.24-.07.48-.13.72l-.03-.03zm3.46-1.3c-.1.17-.21.33-.34.48-.11.09-.36.27-.36.27s.09-.17.07-.25a.625.625 0 0 0-.33-.29c-.13-.05-.68-.18-.93-.26-.32-.09-.63-.23-.91-.4-.15-.11-.78-.86-.93-1.05l-.89-1.15c-.19-.24-.62-.85-.85-1.15s-.6-.77-.69-.86-.12-.15-.21-.2l-.13-.11.07-.23v-.14c.17.01.34.01.51 0 .18-.05.36-.07.54-.07.17-.02.32.08.38.24.16.26.36.5.59.71l1.48 1.38c.29.28 1.24 1.19 1.57 1.48l.9.81c.11.12.4.4.47.48.07.1.08.23.03.34l-.04-.03zm4.72-.9c-.12.25-.26.49-.41.72-.1.12-.21.23-.33.33-.04.03-.08.06-.13.07 0 0 .13-.16.1-.25a.554.554 0 0 0-.24-.34c-.24-.08-.48-.14-.72-.19-.23 0-1.13-.26-1.49-.37-.3-.05-.59-.17-.85-.33-.21-.16-.78-.68-1.06-.95L133.17.55l-1.25-1.17c-.24-.24-.9-.82-1-.95-.15-.16-.31-.32-.47-.47-.08-.07-.15-.06-.19-.16a.28.28 0 0 1 0-.22c.01-.03.03-.07.05-.1.15.02.3.02.45 0 .17-.05.34-.09.51-.11.14-.03.29-.03.43 0 .27.13.53.29.77.47.21.17 1.09.85 1.36 1.05S135.42.02 135.7.21s1.46 1 1.78 1.18l1.21.72c.24.13.48.27.7.43.1.15.21.24.13.47l-.04-.07zm5.05-1.31c-.07.14-.22.57-.29.7-.08.18-.18.35-.29.51-.11.09-.16.14-.22.15h-.08s.12-.14.12-.19a.59.59 0 0 0-.17-.32.565.565 0 0 0-.33-.13c-.25.01-.5.01-.75 0-.41-.04-.81-.1-1.21-.18a5.29 5.29 0 0 1-.95-.24c-.31-.14-1-.51-1.37-.72s-1.5-.92-1.87-1.16-2-1.4-2.25-1.58-.84-.62-1.09-.8c-.23-.19-.47-.37-.72-.53-.14-.06-.55-.2-.68-.27s-.29-.1-.33-.19a.375.375 0 0 1 0-.21s.57-.14.72-.2c.19-.07.38-.1.58-.1.27.1.54.22.79.36.24.14 1.35.73 1.7.92l2.14 1.08c.34.16 1.4.7 1.78.86s1.73.77 2.11.91.91.36 1.23.47l.93.28c.19.06.53.15.56.23.03.12.03.25-.02.37l-.04-.02zm5.31-2.12c0 .11-.13.43-.19.6-.06.2-.15.39-.27.56-.1.08-.22.14-.34.17.07-.05.11-.13.11-.22a.309.309 0 0 0-.15-.23.4.4 0 0 0-.29-.12h-2.34c-.33.02-.67.02-1 0-.34-.04-.67-.11-1-.21-.43-.12-1.48-.5-2-.69l-2.23-1-2.21-1.09c-.46-.24-1.11-.55-1.46-.74l-1.31-.72c-.19-.08-.39-.15-.59-.2-.16-.03-.33-.08-.48-.15-.08-.04-.16-.07-.25-.09v-.23c.27-.06.54-.13.81-.22.25-.12.52-.18.79-.19.39.08.76.19 1.13.33.31.12 1.43.51 1.72.64s2.86 1 3.28 1.09l3.09.93c.47.13 2.61.67 3.11.78s1.34.24 1.6.3.5.1.52.22c.05.16.05.34-.01.5l-.04-.02zm5-2c-.11.26-.24.5-.41.72-.11.16-.25.3-.4.42-.05.04-.1.07-.15.1.05-.07.08-.15.08-.24a.418.418 0 0 0-.32-.24c-.26-.02-.51-.02-.77 0-.67-.01-1.34-.07-2-.16-.81-.13-2-.31-2.87-.51s-2-.48-2.86-.72-2.24-.65-3.12-.93l-2.5-.84-2.16-.77c-.17-.08-.35-.12-.54-.14-.19.01-.37.01-.56 0-.17-.02-.33-.05-.49-.11-.09 0-.17 0-.21-.12a.17.17 0 0 1 0-.14c.15.01.29.01.44 0l.63-.15c.16-.05.21-.08.23-.16s0-.3 0-.39l.07-.19s.33.08.46.09c.27.03.54.07.8.14.19 0 2.4.6 2.75.7l3.29.78c.44.08 2.49.54 2.95.63s3.52.66 4 .75 2.24.35 2.65.39 1 .11 1.14.14.23.09.2.23c-.07.26-.17.52-.3.76l-.03-.04zM159-5.1c-.05.19-.12.38-.21.55-.06.12-.14.22-.24.3l-.17.08s.09-.17 0-.27a.666.666 0 0 0-.34-.28c-.26.02-.51.05-.76.1-.28 0-.76.09-1.09.12s-.75.06-1 0-.6 0-.95-.1l-2.08-.3-2.55-.43c-.61-.12-2.82-.56-3.24-.67s-2.06-.44-2.47-.54l-2.61-.61-1.86-.44-1.11-.26c-.16-.04-.34-.04-.5 0-.15 0-.45.12-.54.15-.08.03-.17.03-.25 0a.442.442 0 0 1-.24-.11c.16-.05.32-.11.48-.18.17-.07.43-.14.52-.28s.1-.16.09-.26a.43.43 0 0 0 0-.16h.74c.21 0 1.22.17 1.53.21l2.27.33 3.81.53 3.44.43 3.61.39 2.5.22c.53.05 1.67.11 2.16.12.33-.02.67-.02 1 0 .13 0 .23.13.2.22s-.07 1.03-.12 1.18L159-5.1zm3.34-3c-.07.27-.2.52-.37.73-.09.07-.19.14-.29.19 0 0 .07-.15 0-.24a.49.49 0 0 0-.34-.22c-.12 0-.83.19-1.18.23-.46.06-.92.1-1.38.1a51.336 51.336 0 0 1-4.61-.3l-3.49-.38-3.31-.41-3.22-.44-2.41-.33-2-.3c-.37 0-.59-.1-.75-.1h-1.13s.37-.23.53-.36.34-.24.39-.37c.01-.06.01-.12 0-.18 0 0 1.13 0 1.39.06l1.84.12 3 .21 4 .27 3.36.2 3.4.17 3.56.11h2.7c.16 0 .34 0 .35.18.04.39.03.78-.01 1.17l-.03-.11zm2.74-2.93c0 .13.06.29 0 .33-.12.08-.25.15-.38.21h-.13c.03-.06.03-.12 0-.18a.682.682 0 0 0-.31-.22c-.16 0-.32.03-.47.1-.21.08-.82.26-1.16.33-.36.09-.73.14-1.1.14H159l-3.11-.11-3.52-.18c-.71 0-2.86-.16-3.38-.19s-3-.19-3.56-.21-3.15-.21-3.58-.26-1.34-.1-1.62-.12c-.28-.01-.55-.05-.82-.1-.14 0-.14-.09-.26-.12h-.27l.39-.43c.06-.09.13-.17.21-.24.13.01.27.01.4 0 .17-.07 1.25 0 1.55-.07h13.11c.65 0 3.75 0 4.28-.05l3.39-.06h1.6c.21-.02.42-.02.63 0 .11 0 .12.12.16.18s.17.56.25.79c.1.16.19.33.26.5l-.03-.04zm-41.27-4.49c.5-.09 1.91-.34 2.49-.38s1.59-.09 2.07-.09 1.53.05 2.29.12 1.86.24 2.57.28 1.92.08 2.46.06l2-.07c.53 0 2.47-.08 3.12-.12s2.4-.14 3-.16 2.64-.08 3.22-.08 3 .11 3.68.14l2.74.15 1.87.09h4.19l2.72-.2 2.5-.24c.38-.05.75-.07 1.13-.07.19.03.36.12.5.25l.54.59c.16.16.31.34.44.53 0 .08.16.27.13.33s0 .19-.11.24l-.4.18a.29.29 0 0 0-.14-.2c-.14-.08-.3-.1-.45-.08l-.88.38c-.3.15-.61.26-.93.35-.22 0-1 .07-1.58.08s-2.15 0-2.84 0H143.3c-.46 0-1.08 0-1.68.07s-1.43.13-1.67.14c-.23.02-.46 0-.68-.05-.06-.03-.12-.05-.19-.07h-.28v-.11l.48-.1c.23 0 .4-.14.8-.23s1.35-.26 1.84-.34 2.67-.47 3.3-.55 2.26-.26 2.83-.31 2.2-.17 2.78-.19 1.85-.09 2.17-.08 1.43 0 1.86.05.68 0 .68 0l.08-.29h-4.57c-.44 0-1.1-.06-1.63-.07s-2.11 0-2.71 0-2.27.21-2.81.28-2.35.32-3.19.48-2.14.41-2.76.52-1.39.27-2.1.34-2.11.1-2.62.08-2 0-2.81 0-2.05 0-2.8.11c-.6.07-1.19.19-1.76.37-.35.11-.69.26-1 .46-.28.19-.39.41-.39.48v.12l.21.06-.31.25c-.14.14-.24.32-.28.52 0 .19-.1.65-.11.85-.04.14-.04.29 0 .43.06.16.38.7.49.93s.44.75.53.9.25.37.37.56c.15.24.27.49.35.76.02.19.02.38 0 .57v1c.01.12-.01.24-.06.34 0 0-.13.13-.14.22s-.07.29-.08.4-.11.33-.11.33c-.05-.09-.09-.19-.12-.29.01-.18.01-.37 0-.55-.24-.75-.44-1.5-.59-2.27-.11-.61-.36-1.18-.73-1.67-.28-.42-.46-.84-.79-1.38-.51-.6-1.11-1.1-1.79-1.49-.53-.36-.89-.91-1-1.54 0-.25-.14-.64-.44-.47.08-.15.19-.28.33-.39.41-.32.86-.58 1.34-.76.59.03 1.81-.32 2.3-.44l-.03-.06zm-21.21-.22c.29-.12 1.76-.62 2.22-.74s1.85-.45 2.63-.58c1.28-.19 2.57-.29 3.86-.3 1.04.01 2.08.07 3.11.18.63.08 1.9.31 2.41.42s1.38.35 1.87.51 1.23.42 1.52.55c.18.06.36.14.53.23.05 0 .06.12.21.19l.38.15c-.06.05-.13.09-.2.12l-.39.17-.24.12s0-.17-.07-.22a4.11 4.11 0 0 0-.82-.39c-.37-.13-.91-.33-1.45-.48s-1.47-.43-2.12-.54-1.31-.24-1.93-.3-2.05-.18-2.78-.17-2.15.08-2.86.18c-.85.1-1.7.25-2.54.44-.68.17-1.58.39-1.93.51-.3.13-.61.23-.93.3-.17.01-.35.01-.52 0a1.13 1.13 0 0 0-.26 0s-.2.09-.26.07l-.19-.11s.49-.11.78-.24l-.03-.07zm-46.15.15c.18-.2.4-.49.49-.51.24-.03.48-.03.72 0l2 .18c.29 0 1.55.06 1.88.07s1.94 0 2.47 0h2.7c.5 0 1.89-.15 2.32-.17s1.77-.12 2.39-.14 1.92 0 2.33 0h2.6c.6 0 2.16.07 2.69.07l3.46.18 4.26.15h2.16c.52 0 3-.14 3.8-.16s2.77 0 3.59 0 2.76.21 3.42.29 1.31.24 1.51.26c.2-.01.4.03.58.13.1.09.21.31.4.43s.48.17.58.3.11.4.17.51c.15.23.25.48.31.74.05.34-.01.69-.16 1-.21.33-.45.63-.72.9-.3.31-.76.63-1.15 1-.51.39-.99.84-1.41 1.33-.32.36-.54.8-.64 1.27-.07.48 0 .76-.06.84-.04.15-.11.29-.21.4-.11.13-.61.69-.77.93s-.48.67-.54.79c-.05.07-.1.15-.14.23l-.12-.21c.1-.11.19-.23.28-.36.09-.12 0-.46.09-1 .13-1.49 2-3.15 1.73-4.67-.22-1.19-1.7-2.21-3.19-2.44-.85-.14-3.67-.35-4.27-.37l-3.43-.07h-2.81c-.64 0-1.28-.05-1.92-.15-.74-.13-1.46-.32-2.17-.55-.8-.24-1.43-.43-2.06-.56-.66-.15-1.33-.26-2-.32-.56-.05-1.62-.13-2.45-.15s-2.82 0-3.46 0-2.64.08-3.16.08H67.2c-.26 0-.18.13-.29.16s-.73 0-1.08 0H64.8c-.01.07.03.13.1.15.12 0 .43.06.53.07l1.21.07h6.85c.49 0 1.71.06 2.65.17.9.09 1.78.24 2.66.44.9.22 2 .56 2.5.72s1.25.35 1.62.44c.28.02.55.08.81.18.08.08.08.2 0 .28-.05.12-.1.17-.15.28l-.07.21h-.34c.04-.04.06-.09.07-.15 0-.07-.19-.18-.4-.24l-1.42-.16c-.57-.07-1.14-.1-1.71-.11H62.74c-.46 0-2.07-.07-2.51-.07-.39.01-.77-.02-1.15-.09-.17 0-1.08-.52-1.46-.7s-1.07-.54-1.26-.65-.39-.23-.44-.25-.31.23-.39.33-.2 0-.2 0 .98-1.06 1.16-1.27l-.04-.06z"/><path d="M125.79.01c0-5.28-5.78-10.58-14.28-10.58S97.24-5.27 97.24.01s5.77 10.59 14.27 10.59S125.79 5.29 125.79.01zm-22.94 5.17c0-.5 1-1 1-1.47V-3.7c0-.38-1.06-.55-1.06-1.26a.43.43 0 0 1 0-.16c.25-.59 1.82-1.87 4.35-2.66 1.38-.41 2.8-.62 4.24-.64.79 0 1.58.05 2.37.16 3.24.48 5.51 2 5.74 4 .01.17.01.33 0 .5 0 1.15-.54 2.17-2.31 3.17 1.64.73 2.71 2.34 2.75 4.13 0 2.51-2.91 4.63-7.95 4.65h-1c-5.09-.25-8.12-2.51-8.12-3.01h-.01z"/><path d="M115.26 3.65c0-2.77-1.89-3.42-3.66-3.43s-3.83.58-3.83 3.43 2 3.33 3.76 3.33h.13c1.85.03 3.6-.84 3.6-3.33zM111.52-.9c2 0 3.39-.77 3.39-3.11s-1.36-3.08-3.39-3.09c-1.87 0-3.41.93-3.41 3.09 0 2.42 1.53 3.09 3.41 3.11z"/></g></svg>