<svg xmlns="http://www.w3.org/2000/svg" width="64.81" height="51.17" viewBox="30 -24.17 64.81 51.17"><title>Car-logos_Mazda</title><path fill="#333" d="M62.2-19.9c15.52 0 20.13 6.57 21 8a23.01 23.01 0 0 0 4.49-3.16l-2.33.81c-.11.04-.24 0-.32-.09-6.44-8-22.63-7.34-22.8-7.32-.17 0-16.36-.67-22.8 7.32-.08.1-.21.13-.33.09l-1.82-.67a21.16 21.16 0 0 0 4.1 3c.78-1.46 5.32-7.98 20.81-7.98z"/><path fill="#333" d="M89.25-15.41a.739.739 0 0 0-.21 0v-.06c.01-.04.01-.09 0-.13v-.05c.01-.06.01-.12 0-.18l-.05-.1c-.23-.33-5.79-8.21-26.83-8.21s-26.24 8-26.44 8.29c-.11.15-.13.34-.05.51a.428.428 0 0 0-.22-.06c-.17.01-.33.1-.43.24-1.89 2.7-5.07 8.59-5.07 17.73 0 7.86 3.78 17.42 12.22 21.1a46.39 46.39 0 0 0 18.51 3.36h3.35c7.18 0 13.4-1.13 18.51-3.36 8.45-3.68 12.22-13.24 12.22-21.1 0-9.14-3.18-15-5.07-17.73a.52.52 0 0 0-.44-.25zM64.08 26.52h-3.35c-6.27.16-12.5-.97-18.31-3.32-8.25-3.59-11.94-13-11.94-20.66 0-9 3.13-14.8 5-17.49h.06c2.81 2.62 6.06 4.71 9.61 6.18l1.56.64c5.73 2.38 12.22 5.08 15.42 12.24l.22.5.22-.5c1.33-2.99 3.45-5.57 6.12-7.46 2.9-1.95 6.01-3.55 9.29-4.77l1.56-.65c3.24-1.35 6.25-3.22 8.9-5.52l.1-.09c.38-.34.6-.56.65-.59h.1c1.86 2.65 5 8.44 5 17.46 0 7.69-3.69 17.07-11.92 20.66a45.833 45.833 0 0 1-18.29 3.37zM62.2-23.69c20.78 0 26.21 7.68 26.43 8h.18-.24c-1.38 2-5.39 4.11-5.56 4.2 0-.08-3.93-8.1-20.8-8.1s-20.66 8-20.7 8.06h-.07a19.68 19.68 0 0 1-5.26-4.08v-.06c.19-.27 5.23-8.02 26.02-8.02zm20.76 12.73c-1.18.67-2.4 1.27-3.65 1.79l-1.55.64a44.439 44.439 0 0 0-9.4 4.83 18.781 18.781 0 0 0-6 7.17c-3.33-7-9.77-9.65-15.45-12l-1.6-.64c-1.27-.54-2.51-1.16-3.71-1.85.13-.05.23-.14.29-.27 0-.08 3.83-7.78 20.27-7.78s20.33 7.75 20.36 7.83c.03.05.07.1.11.15.09.08.21.13.33.13z"/><path fill="#333" d="M44.47-4.78c.69.25 1.47.49 2.3.74C51.63-2.56 58.24-.54 62.36 8.2 66.47-.54 73.09-2.56 77.94-4.04c.84-.25 1.62-.49 2.3-.74 2.69-1.09 5.28-2.43 7.72-4 .51-1.75.82-3.56.92-5.38l-.1.1-1.75 5.39c-.03.07-.08.12-.14.16a45.292 45.292 0 0 1-9.64 4.31C70.96-2.46 68.39.11 68.37.14c-.11.09-.28.09-.39 0a.295.295 0 0 1-.08-.38c1.31-1.97 2.94-3.71 4.84-5.13a28.81 28.81 0 0 0-3.84 2.32c-.86 1.25-1.47 2.65-1.78 4.14 0 .07-.04.14-.09.19-.29.25-.56.53-.8.84-.05.12-.19.19-.32.15a.289.289 0 0 1-.23-.28c.03-.89.18-1.77.45-2.62-1.51 1.6-2.71 3.47-3.52 5.52-.01.03-.03.05-.05.07l-.07.05h-.14a.18.18 0 0 1-.07-.05v-.07c-2.12-5.25-6-8.18-10.16-10.29 1.3 1.03 2.36 2.31 3.13 3.78.04.12.01.25-.08.33a.27.27 0 0 1-.34 0c-2.39-1.26-4.9-2.28-7.48-3.07-3.14-1-9.94-3.22-11.52-9.47.08 1.72.46 3.41 1.11 5 2.38 1.58 4.9 2.93 7.53 4.05z"/><path fill="#333" d="M45.31-1.17c3.45.79 6.75 2.14 9.77 4 4.14 2.77 6.55 7.49 7.33 9.19.77-1.7 3.19-6.42 7.32-9.19 3.01-1.86 6.31-3.21 9.76-4 2.71-.75 5-1.41 6.65-2.7a27.96 27.96 0 0 0 1.62-4.12c-2.3 1.47-4.74 2.71-7.27 3.73-.69.25-1.49.5-2.32.75C73.31-2.03 66.67 0 62.68 8.99v.05h-.48v-.05c-4-9-10.64-11-15.5-12.5-.83-.25-1.62-.49-2.32-.75a44.92 44.92 0 0 1-7.27-3.73c.43 1.42.97 2.79 1.62 4.12 1.49 1.32 3.83 1.98 6.58 2.7z"/><path fill="#333" d="M61.68 22.42h1.46c3.76 0 13.14-.59 18.7-6 6-5.88 4.89-17.34 4.59-19.58l-.05-.41-.32.24c-1.64 1.21-3.9 1.83-6.51 2.56-3.42.78-6.68 2.11-9.67 3.94-4.89 3.27-7.45 9.6-7.46 9.64-.02.04-.04.07-.06.11v-.09c0-.06-2.57-6.38-7.47-9.66a32.301 32.301 0 0 0-9.68-3.94c-2.26-.47-4.43-1.32-6.41-2.5l-.33-.23-.05.4c-.28 2.23-1.37 13.67 4.61 19.53 5.51 5.4 14.88 5.99 18.65 5.99zM38.8-2.7c1.96 1.08 4.06 1.87 6.24 2.35 3.37.77 6.59 2.08 9.53 3.88 4.77 3.19 7.27 9.38 7.29 9.43s.16.45.49.45c.29 0 .45-.31.51-.44s2.52-6.25 7.29-9.44a31.83 31.83 0 0 1 9.53-3.88C81.9-.83 84.03-1.64 86-2.76c.33 2.92 1.05 13.36-4.5 18.79s-14.65 5.9-18.37 5.9h-1.46c-3.72 0-12.94-.57-18.37-5.9S38.48.2 38.8-2.7z"/><path fill="#333" d="M41.54 15.28C36.37 8.59 37.89-2.39 38.08-3.6c-.79-1.66-1.43-3.39-1.92-5.16a23.212 23.212 0 0 0 .19 19.78 11.62 11.62 0 0 0 5.19 4.26z"/><path fill="#333" d="M89.46-14.12c-.1 1.69-.38 3.37-.82 5v.07c3.84 10.09.49 20.31.46 20.42-2 6.13-7.32 10.4-15.28 12.35-3.46.7-6.97 1.07-10.5 1.11h-2c-3.53-.04-7.04-.41-10.5-1.11-7.92-1.94-13.19-6.17-15.25-12.26-.48-.38-3.08-2.61-4.83-7.81.34 7.34 4 15.9 11.69 19.22 8.19 3.52 18.3 3.36 19.86 3.36s12.6-.07 19.86-3.36c8-3.64 11.72-12.76 11.72-20.35.11-8.26-2.56-13.79-4.41-16.64z"/></svg>