<svg xmlns="http://www.w3.org/2000/svg" width="45.09" height="61.01" viewBox="42 -58 45.09 61.01"><title>Car-logos_Ferrari</title><g fill="#333"><path d="M42-54.02v1.19l22.55-3.98 22.54 3.98v-1.19L64.55-58z"/><path d="M42-51.67v16c.03 6.59 1.56 13.09 4.48 19 7 14.49 17.79 19.56 17.9 19.61l.17.07.16-.07c.11 0 10.92-5.12 17.9-19.61a43.48 43.48 0 0 0 4.48-19v-16l-22.54-4-22.55 4zm44.32 16a42.737 42.737 0 0 1-4.41 18.64c-6.39 13.27-16 18.48-17.36 19.16-1.34-.67-11-5.88-17.37-19.16a42.737 42.737 0 0 1-4.41-18.64V-47.2c1.24-.64 8.88-4.28 21.81-4.28s20.51 3.64 21.73 4.28l.01 11.53z"/><path d="M72.45-12.19c-.76-.22-1.57-.27-2.35-.14-.69.07-1.25.59-1.36 1.28-.08.49.5.8 1 .67.34-.13.6-.41.69-.77a2 2 0 0 1-.69.33c-.36.06-.54-.18-.44-.43.12-.35.43-.59.79-.63.45-.05.9-.05 1.35 0 .67.06 1 .18.84.5-.33.38-.59.82-.79 1.28-.14.36-.1.54-.35.54a.942.942 0 0 0-.69.16c-.17.15-.27.37-.25.6.17-.26.47-.4.77-.36.13 0 0 .34-.08.6s-.79 2-2.16 2c-.85.03-1.57-.63-1.6-1.48v-.14c.14-.35.38 0 .67-.11s.56-.53.18-.79c-.88-.6-1.7.87-.79 2.16.71.9 2 1.07 2.93.4.6-.39 1.07-.96 1.34-1.62.24-.48.45-1 .45-1 .25 0 .51-.04.75-.11.25-.11.45-.3.57-.54-.36.15-.76.21-1.15.16-.09 0 .14-.5.37-1 .16-.39.42-.74.75-1 .26-.1 1.07 0 2-.24.56-.16 1.09-.43 1.55-.78-.76.25-1.54.39-2.34.42-.65.13-1.31.14-1.96.04zm-13.42 1.9c-1.06-.41-1.67-.64-1.69-1.15 0-.85 1.07-.64 1.31-.56.8.24 1.47.77 1.89 1.49 0 0-.23-1.36-.28-1.62s-.2-.22-.28-.22-.17.3-.17.3-3.44-1.44-3.44.81c0 1.06 1.13 1.24 1.63 1.5 1 .54 2.3.86 2.41 1.66s-.55 1.54-1.94 1.54c-.96.02-1.8-.65-2-1.59.06-.26.32-.1.53-.1.25-.01.44-.21.44-.46 0-.07-.02-.13-.05-.19-.13-.33-1.21-.36-1.21.74a2.146 2.146 0 0 0 2.22 2c1.08.09 2.07-.6 2.36-1.64.4-1.45-.32-1.96-1.73-2.51zm5.77-7.08l.57.27c.19.08.41.08.6 0 .21-.16.36-.38.44-.63a.28.28 0 0 0 0-.28 8.2 8.2 0 0 1-.74-2.1c-.03-.48-.01-.96.06-1.43.02-.27.02-.54 0-.81 0-.11-.21-.22-.4-.35l-.31-.21a.639.639 0 0 1-.17-.51v-.31a7.01 7.01 0 0 0-1.74-1.78c-.32 0-.41.34-.43.55.06.4.14.79.26 1.18l.15.59c.36 1.17.89 2.29 1.57 3.31l.21.34c.09.14.05.34-.09.43-.01 0-.01.01-.02.01-.69.03-1.39-.03-2.06-.19-.32-.08-.62-.19-.92-.33-.29-.14-.6-.24-.92-.3a.95.95 0 0 0-.44.07h-.14l-.14-.05c-.43-.18-.89-.27-1.36-.29-1.28-.12-1.38.13-1.43.28s.72 1 .86 1.12c.33.22.72.33 1.11.31.38-.07.76-.11 1.14-.13l.12.08.12.09c.33.05.67.09 1 .1.47.06.93.14 1.39.25l.53.11c.41.16.81.37 1.18.61zm.52-1.53c.1.01.18.09.19.19 0 .1-.09.19-.19.19-.11.01-.2-.08-.21-.19.01-.11.1-.19.21-.19zm-6.85-.34c-.17 0-.3-.09-.3-.21s.13-.21.3-.21.3.1.3.21c0 .11-.14.21-.31.21h.01zm2.44 0c-.12 0-.21-.06-.21-.14 0-.08.1-.15.21-.15s.2.07.2.15c0 .08-.1.18-.21.18l.01-.04zm1.86.58c-.37-.1-1.08-.31-1-.45.37-.03.75.02 1.1.14.38.09 1.09.31 1.05.45-.39.05-.78.01-1.15-.1v-.04z"/><path d="M64.37-49.45l-.15.32-.14.22v.25c.04.06.1.12.15.17-.03.07-.05.14-.06.22h-.59l-.47-.22-.37-.13h-.86l-.17.24.37.06.09.06-.1.08h-.52l-.38.15.18.12h.79l.58.15.1.17.11.15-.24.13-.71.3-1.46.82-1 .14-.38.21-.31.41-.17.52v.89c.14.09.31.12.47.06.3-.13.62-.23.94-.29.11 0 .17 0 .18.06.01.06 0 .11-.12.14h-.05c-.42.12-.86.26-.84.42l.07.13c.31.1.64.1.95 0l.27-.08c.23-.09.48-.13.73-.12.14.02.27.07.39.13.22.13.47.2.72.22.31.01.62.06.92.17.05.17.05.36 0 .53v.16c-.15 1.35-1.66 2.87-2.37 3.6-.13.11-.25.24-.36.38l-.08.2c-.04.19-.18.35-.36.42-.28.16-.55.35-.8.55-.4.35-.85.64-1.34.85a9.69 9.69 0 0 1-1.74-1c-1.34-1.3-1.92-1-2.25-.88h-.06c-.4.18-.82 1.32-.86 1.57l-.17.7-.12.51c0 .18-.21.61-.36 1l-.32.9c-.08.26-.18.5-.3.74l-.14.35c-.12.95-.1 1.92.07 2.87.18 0 .55-.41.73-.59.17-.21.28-.47.32-.74-.02-.21-.06-.41-.11-.61-.18-.58-.21-1.2-.11-1.8v-.15c.05-.2.17-.37.32-.5l.2-.22c.08-.11.2-.19.33-.23l.16-.1c.17-.16.3-.35.39-.57l.16-.71v-.19c0-.03.03-.06.06-.06.08 0 .16.03.21.1l1.2 1.38c.24.18.45.4.62.64-.39-.04-.77-.1-1.15-.2-1.14-.34-1.67-.28-2.07.23-.33.8-.41 1.69-.22 2.54.09.18.5 2.33.53 2.62.01.32.1.62.25.9.27.24.47.54.58.88.25.63.69 1.18 1.25 1.57.04.02.1.02.14 0 .25-.18.37-1 .38-1.39.02-.33-.1-.66-.32-.91l-.07-.09a.842.842 0 0 0-.5-.28c-.07 0-.15 0-.15-.06s0-.67-.23-.8c-.2-.3-.32-.64-.35-1-.03-.37-.11-.73-.23-1.08-.16-.34-.22-.72-.19-1.1.01-.12.11-.21.23-.22.13-.02.26.01.37.09.52.4 1.08.74 1.68 1 .32.17.62.39.89.64.16.14.33.27.51.39.33.08.66.11 1 .09.14-.01.27-.01.41 0-.14.06-.14.31-.13.39.15 1 3.94 3.9 4.23 4.06.61.48 1.17 1.03 1.66 1.63.12.14.19.32.2.5-.02.24.06.48.23.65.14.18.35.28.57.3.17 0 .28-.15.37-.26.34-.4.55-.9.6-1.42 0-.7.37-1 .48-1h.09c.01 0 0 .08-.06.13-.17.21-.28.47-.32.74v.33c.02.3-.08.59-.27.82-.55.73-.87 1.61-.92 2.53.05 1.09.4 2.15 1 3.06v.09l.2.32c.21.29.38.6.5.94-.03.25-.15.49-.33.67-.5.63-1.04 1.23-1.61 1.79a.567.567 0 0 0-.46.17l-.2.15c-.14.08-.24.21-.29.37-.03.09-.08.16-.15.22l-.08.06s-.06.07-.52.54c-.5.43-.76 1.08-.7 1.74 0 .19.19.25.66.27.65-.13 1.22-.48 1.63-1v-.1c0-.22.12-.6.24-.66.23-.16.43-.36.6-.58.07-.1.12-.22.14-.34.02-.09.05-.17.1-.25.05-.06.12-.1.19-.13.22-.09.39-.27.46-.49.42-.52.93-.96 1.5-1.3.2-.14.4-.29.58-.45.09-.15.13-.32.12-.49a.85.85 0 0 0-.21-.63c-.22-.3-.38-.64-.48-1v-.49c0-.71 1-1.4 1.51-1.7l.2-.14c.95-.71 1.65-1.71 2-2.85v-.37c0-.25 0-.49.17-.52.09 0 .17.04.23.1.04.07.04.15 0 .22-.07.2-.11 2.23-.11 2.32l.19.22s.09-.58.09-.78c.16-.41.39-.79.68-1.12.06.26.09.52.09.79.02.31-.05.61-.2.88-.24.34-.43.71-.57 1.1l-.12.27c-.01.04-.01.07 0 .11.01.31.09.62.22.91.02.01.03.01.05 0 0 0 .05-.05.05-.27.03-.55.28-1.07.7-1.43.54-.55.81-1.31.74-2.07 0-.31-.02-.62-.08-.92l-.3-.43s.1-.06.12-.08l.3.4c.08.1.14.21.18.33 0 .31.04.62.1.93.1.34.23.67.37 1v.07-.08c.02-.23.02-.47 0-.7-.03-.21-.03-.43 0-.64l.06-.55c.03-.35-.05-.7-.23-1l-.08-.12c0-.05-.06-.1-.06-.11h.06c.95-.31 1.72-1 2.14-1.91.19-.51.28-1.04.27-1.58.01-.64-.05-1.28-.19-1.9-.08-.36-.08-.73 0-1.09v-.67c.03-.42.19-.81.47-1.13l.28-.43a.74.74 0 0 0 0-.76h-.06c-.01 0 0 0 0 .06-.06.28-.21.53-.43.71-.36.14-.54.56-.68.87-.07.16-.14.31-.19.31s0 0-.07-.07c-.17-.47-.17-.97 0-1.44v-.11c.19-.48.47-.92.83-1.29l.11-.14c.17-.34.24-.72.21-1.1v.05c-.32.57-.76 1.06-1.29 1.44-.18.18-.34.38-.49.59-.09.14-.21.29-.24.29a2.49 2.49 0 0 1 .33-1.9l.07-.14c.27-.62.68-1.16 1.2-1.59.01-.02.01-.05 0-.07h-.19c-.74.34-1.36.91-1.74 1.63-.35.69-.54 1.46-.54 2.24-.01.26.03.52.11.77.25.75.46 1.52.63 2.29.07.66.09 1.33.08 2v.56l-.17.54c-.15.44-.42.84-.77 1.14-.42.42-.92.74-1.48.94-.2.05-.41.05-.61 0 0-.81-1.4-2.71-2.1-3.33-.71-.64-1.48-1.2-2.3-1.69-1-.61-2.12-3.18-2.14-3.2l-.09-.35s-.06-.69-.07-.88l.09.06.35.2.39.15.52.1.29.15.27.17.41.3.43.22h.5l-.58-.27-.21-.37-.24-.35-.3-.18-.37-.06-.11-.1.09-.06.4.05.36.25.39.3.37.15-.16-.41-.3-.28-.43-.37-.35-.18-.37-.12-.39-.24v-.05l.54.21.46.13.38.15.57.27.46.1.57-.1.55-.38.09-.23v-.05l-.17.07-.49.25-.34.08-.38-.08-.31-.29-.44-.42-.39-.2-.47-.08-.29-.15c.01-.05.01-.1 0-.15l.59.05.64-.05.37.07.36.15h.44l-.42-.4-.42-.3-.35-.13-.59-.06v-.11h.27l.44.1.41.25.44.15.65-.1-.19-.25-.33-.11-.26-.2-.39-.27-.3-.1-.46-.08-.23-.22v-.11l.25.07.31.15.45.14-.1-.2-.17-.18-.15-.19h.06l.47.25.37.12.28.27.55.31h.05l-.1-.26-.3-.38-.24-.42-.44-.45-.57-.3-.22-.25-.38-.4-.07-.21.38.12.45.13.31.2.26.32.42.18 1.06.14h.06l-.28-.31-.58-.26-.33-.24-.19-.34-.2-.35-.32-.31-.4-.23-.38-.32s-.09-.2-.14-.33l.27.26.51.45.39.18.34.27.39.39.63.1h.07l-.61-.53-.14-.44-.32-.31-.17-.2-.17-.51-.35-.36-.56-.52v-.14l.1.05.52.3.61.18.63.15.73.12-.17-.35-.37-.16-.35-.2-.41-.17-.36-.15-.37-.48.32.22h1.32l.41.22.33.38h.06l-.05-.42-.22-.28-.59-.33-.46-.17-.71-.13-.12-.16-.52-.48-.25-.12-.13-.14h.27l.4.25.54.18.69.1.26.29.38.23.42.07h.05l-.87-1.06-.42-.23-.49-.15-.44-.49-.53-.33-.4-.1.1-.17.43-.2.63-.12c.03-.05.05-.1.07-.16-.09-.07-.18-.14-.28-.2l-.32-.1-.19.1h-.52l-.63-.15-.65-.54-.29-.16-1.08-.12-.26-.39-.34-.38-.44-.4v.27zm-4.84 4.86l-.09.08c-.12.11-.18.17-.3.09-.12-.08-.08-.15-.08-.21-.02-.15.02-.31.11-.43l.06-.06c.04-.08.13-.13.22-.13.11-.01.22.03.3.1.04.05.06.12.05.18-.04.16-.13.29-.27.38zm.77-.38v.05c0 .07 0 .08-.12.08h-.1c-.01 0 0-.05 0-.07v-.26c0-.03 0 0 .07 0 .07.01.13.05.17.1 0 .02 0 .05-.01.07l-.01.03zm.48.84c-.09 0-.16-.07-.16-.16s.07-.16.16-.16.17.07.17.16-.07.16-.17.16zm1.39-2.1l-.6.39-.41.16h-.05c-.23.07-.38.06-.42 0s.25-.28.61-.43h.11l.23-.12c.16-.08.33-.15.5-.19h.16c.02 0-.11.18-.12.2l-.01-.01zm-10 15.81c-.1.02-.19-.04-.22-.13-.02-.1.04-.19.13-.22.03-.01.06-.01.08 0 .1-.01.19.07.2.18 0 .1-.09.19-.2.18h-.01l.02-.01zm1.55-5.64c-.06.25-.18.47-.36.65h-.06c-.11 0-.05-.42.07-.78.06-.24.18-.47.35-.65h.07c.1.04.04.43-.08.78h.01zm.75-1.38c-.18 0-.33-.08-.33-.19s.15-.2.33-.2.33.09.33.2c0 .11-.16.19-.33.19zm1.6 2.08a.862.862 0 0 1-.42-.25c-.16-.14-.29-.31-.29-.41.16.03.31.12.42.25.21.12.35.33.28.41h.01zm-.65 8.75c.12.01.22.11.21.23-.01.12-.11.22-.23.21s-.21-.1-.21-.22.1-.22.23-.22zm-2.07-7.13c.04-.08.12-.14.21-.16h.08c.07.05.06.2 0 .33-.05.08-.12.13-.21.16h-.08c-.12-.06-.11-.2-.01-.34l.01.01zm.49 3.94a1.88 1.88 0 0 1-.32-.82c-.07-.3-.16-.87 0-.9.17.24.28.52.32.81.02.29.12.87-.01.9l.01.01zm2.86-1.9c-.17.13-.71-.19-.83-.29l-.73-.55c.35.08.68.2 1 .37.34.21.52.34.53.44l.02.02.01.01zm1.12-2.82c-.1.33-.29.63-.54.87h-.07s-.07-.09-.07-.19c.03-.31.1-.61.22-.89.1-.34.29-.64.55-.87h.08s.06.09.06.19c-.03.3-.12.6-.23.89zm8.67 13.71h-.06c-.07-.16-.1-.34-.1-.51-.01-.14.03-.29.1-.41l.37-.62s.15-.06.22 0 0 .11 0 .22l-.14.31-.15.41-.24.6zm.83 3v.06-.05s-.64-1-.48-1.29c0-.05.08-.08.16-.07.09.01.17.05.22.12.21.32.09 1.17.09 1.21l.01.02zm-3.16 6.6c-.08.1-.2.16-.32.17h-.07a.11.11 0 0 1 0-.08c.01-.12.08-.24.17-.32.08-.1.19-.16.32-.18h.07c.04.06-.02.23-.18.39l.01.02zm1.1-1.65c-.07.09-.16.15-.27.17h-.07c-.05-.07 0-.23.14-.35.07-.08.17-.14.28-.16h.06c.05.04-.04.2-.15.32l.01.02zm9.65-12.81l.38-.56c.32-.41.58-.85.8-1.32.1-.59.14-1.19.12-1.79v-.76c.32.86.43 1.78.32 2.69-.18.6-.53 1.15-1 1.57l-.24.25c-.18.23-.32.16-.35.13a.16.16 0 0 1-.08-.14s.03-.08.04-.1l.01.03zm-3.62 1.64a.35.35 0 0 1 .17-.19s.29.09.29.3c0 .18-.01.36-.05.54-.01.08-.08.14-.16.15-.06 0-.11-.04-.12-.09v-.49a.266.266 0 0 1-.14-.25l.01.03zm-2.51 7.91c.12 0 .22.1.23.22-.01.12-.11.22-.23.22-.12.01-.22-.09-.23-.21v-.01c-.01-.13.08-.24.21-.25h.01l.01.03zm-1 .57c.11.12-.73 1-.76 1-.28.32-.62.59-1 .79-.11-.12.73-1 .77-1 .29-.33.63-.61 1.02-.81l-.03.02zm-4-31.27c.08-.03.17-.03.25 0l.06.06c0 .08 0 .19-.18.25-.08.03-.17.03-.25 0l-.06-.06c0-.14.12-.26.26-.27l-.08.02zm-1.24.78a.47.47 0 0 1 .33-.25h.28c.17.02.32.13.39.29.09.16.09.36 0 .52a.19.19 0 0 1-.15.08c-.33-.05-.62-.22-.84-.47-.04-.06-.03-.14.03-.18.01-.01.03-.01.04-.02l-.08.03zm.56 2.24h-.3v-.11l.26-.18c.19-.14.46-.32.51-.37.04-.02.08-.02.12 0 0 0 .06 0 .07.05s0 .08-.05.15l-.14.22-.09.16c-.09.04-.2.06-.3.06l-.08.02zm-2.71 6.89c.29-.35.72-.56 1.18-.56.92 0 1.19.47 1.25.62.02.03.02.07 0 .1 0 0-.14 0-.36-.06-.27-.11-.57-.16-.86-.17-.32.01-.64.05-.95.13h-.26c0-.04.04-.08.08-.09l-.08.03zm3 10.74s-1.71-1.31-2.28-1.86c-.41-.39-.88-.93-.85-1.15.01-.03.03-.06.06-.08.2-.11.4-.07.81.48.41.55 2.28 2.57 2.3 2.59l-.04.02zm.34-8.93c-.12.06-.26.06-.38 0-.15-.07-.22-.16-.22-.26.03-.17.18-.3.36-.31.21 0 .3 0 .33.41.03.04.04.09.03.14l-.12.02zm.38-5.76v.1c-.12.28-.28.55-.48.78l-.27.37c-.21.32-.47.6-.76.85-.05.04-.12.04-.17 0a.105.105 0 0 1 0-.13l.23-.43.71-1.34v-.08c.24-.43.58-1 .77-1.07h.08c.31.11.31.22.01.93l-.12.02zm2.6 13.26c-.1.12-.17.26-.2.42-.02.08-.07.14-.14.17-.04.02-.09.02-.13 0a.415.415 0 0 1 0-.31s.14-.74.15-.75c.04-.05.1-.08.17-.09l.15.06c.16.1.21.31.12.48l-.12.02zm-.48-10.17c-.1 0-.18-.08-.18-.18s.08-.18.18-.18c.1 0 .18.08.18.18s-.08.18-.18.18zm.14-.54a.18.18 0 0 1-.18-.18c0-.1.08-.18.18-.18.1 0 .18.08.18.18 0 .1-.08.18-.18.18zm.16-.56a.227.227 0 0 1-.25-.21c.04-.14.18-.22.32-.18.09.02.15.09.18.18-.01.08-.06.15-.13.19l-.12.02zm.13-.63c-.13 0-.24-.08-.24-.18.04-.13.18-.21.31-.17.08.02.15.09.17.17a.22.22 0 0 1-.12.16l-.12.02zm.12-.49c-.18 0-.33-.08-.33-.18 0-.1.15-.18.33-.18s.33.08.33.18c0 .1-.03.17-.21.17l-.12.01zm.07-1.35c.08-.03.18-.03.26 0v.07c0 .1-.1.18-.26.21-.08.03-.18.03-.26 0v-.07c.09-.12.21-.2.37-.22l-.11.01zm-.22-.39c0-.08.1-.16.24-.17.08-.01.16.01.22.05v.08c0 .09-.09.16-.23.18a.329.329 0 0 1-.22-.05l-.01-.09zm.26 1.15c-.15 0-.27-.08-.27-.17s.12-.18.27-.18.27.08.27.18 0 .16-.15.16l-.12.01zm.08-1.57c-.13 0-.23-.07-.23-.17s.11-.17.23-.17.22.08.22.17.03.17-.1.17h-.12zm0-.55c-.09.03-.19-.01-.22-.1s.01-.19.1-.22c.04-.01.08-.01.11 0 .09-.03.19.01.22.1.03.09-.01.19-.1.22-.03.01-.07.01-.11 0zm0-.46a.175.175 0 0 1-.19-.14.17.17 0 0 1 .19-.15c.09-.01.16.06.17.15.01.05-.01.1-.05.14h-.12zm.16-.62c0 .08-.07.15-.15.15-.08.01-.15-.06-.16-.14v-.01c0-.08.07-.15.15-.15h.01c.04-.07.14-.1.21-.06.07.04.1.14.06.21h-.12zm-.23-.33c-.09.01-.16-.06-.17-.15.01-.09.08-.16.17-.15.08-.01.15.06.16.14v.01c.02.05 0 .11-.03.15h-.13zm-.18-1.48a.28.28 0 0 1 .22 0c.06 0 .13.08.11.14s-.06.08-.14.11h-.07c-.18.05-.44.12-.48.2-.08.1-.2.15-.33.13 0 0-.08 0-.07-.14v-.07c0-.22.09-.52.38-.63h.16c.03 0 0 .09 0 .15v.15c.11.03.24.02.34-.04h-.12zm-.21-1.52c.08.05.07.11 0 .14-.07.1-.2.16-.32.13h-.08c-.05 0-.05 0-.07-.07-.01-.06.02-.11.07-.14.1-.16.31-.2.47-.1.02.01.03.02.05.04h-.12zm-.37-.62c.1 0 .19.1.23.2.03.04.03.09 0 .13a.17.17 0 0 1-.14 0 .142.142 0 0 1-.09-.08l-.11-.06c-.06 0-.13 0-.13-.1s.22-.09.36-.09h-.12zm-.08 10.14c.1-.01.19.06.2.16 0 .09-.09.16-.2.16s-.2-.07-.2-.16c-.03-.09.01-.2.11-.23.08-.03.17 0 .21.07h-.12zm-.19.44c.1 0 .19.06.19.13s-.09.14-.19.14-.19-.06-.19-.14c0-.08.21-.13.31-.13h-.12zm-.18.37c.09-.01.16.05.18.14 0 .08-.08.14-.18.14-.1 0-.18-.06-.18-.14 0-.08.2-.15.3-.15l-.12.01zm-.33 3.32c.37 1.08.92 2.09 1.62 3l-.44-.2s-.38-.2-1.14-1.43c-.27-.53-.45-1.1-.55-1.69a.17.17 0 0 1 0-.1v-.05c.08-.04.17-.04.25 0 .22.06.39.24.43.46l-.17.01zm-.38-10.29c.05-.03.12-.01.15.05.05.09.02.21-.07.27-.17.16-.36.29-.58.37-.16.06-.38.11-.47 0a.075.075 0 0 1 0-.09c0-.17.34-.27.57-.33.12-.04.22-.11.31-.19l.09-.08zm-.49-.5c.07-.05.16-.05.23 0 0 0 .07.1 0 .22-.09.11-.19.2-.31.27l-.18.16c-.04.07-.13.1-.2.07a.143.143 0 0 1-.06-.12.244.244 0 0 1 0-.12c.07-.22.36-.4.48-.48h.04z"/><path d="M63.61-48.33c.1-.04.2-.08.3-.13.01-.1.01-.19 0-.29l-.6-.7-.07.28-.18.45.4.2.15.19z"/></g></svg>