<svg xmlns="http://www.w3.org/2000/svg" width="96.66" height="43.3" viewBox="92 -40.58 96.66 43.3"><title>Car-logos_Jaguar</title><g fill="#333"><path d="M110.51-38.42c.45-.01.88-.13 1.28-.33.13-.05.25-.12.37-.2h-1c-.46-.03-.91.15-1.23.49h.28l.3.04z"/><path d="M101.87-33.23c.14.3.3.59.49.87.37.54 1 .84 1.65.78.35-.06.36-.16.36-.16.29.25.66.39 1.05.39-.16-.34-.29-.69-.4-1.05-.02-.22 0-.44.06-.65.11-.4.31-.77.58-1.09.32-.33.82-.39 1.22-.16.58.6.75 1.48.43 2.25 0 .08-.41.92-.83 1h-.12a2.33 2.33 0 0 1-.81-.3c0 .13.02.26.06.39 0 .17.12.36.16.51l-.17.29c-.1.11-.19.52 0 .69.55.36 1.18.59 1.83.68.33.04.67-.1.86-.38.37-.57.8-1.11 1.28-1.6.91-.77 2-1.3 3.17-1.53.12 0 2.15-.58 5.59 2.17-1 .07-2.16.31-3 .47a7.157 7.157 0 0 0-4.67 3.85 2.333 2.333 0 0 0 1.29 3.42 4.672 4.672 0 0 0 3.57-2.74c.22-.63.9-.98 1.54-.77.74.24 7.21 2.5 8.67 2.88 0 0 4.34 1.13 6-.86 2.61.85 5.05 1.27 11.47.44.66-.09 1.33-.13 2-.11 1.29.12 2.48.76 3.28 1.78 1.69 2.69 3.83 8 11.27 7.39l3.37-.3c2.05-.12 3.71-.21 5.42.68.9.41 1.71.99 2.39 1.71 1.72 1.63 3.29 3.39 5.39 2.43.64-.44 1.18-1.01 1.58-1.67a2.41 2.41 0 0 0-1-1.68c1.91.45 6.2.74 7.86-2.16.36-.46.48-1.08.31-1.64-.46-1-1.72-.68-1.72-.68-.6.13-1.27.81-2.28 1.11-1.28.38-2.64.35-3.9-.1-3.34-1.45-14.08-7.56-19.54-10.24 0 0-6.34-2.93-15.54-6.56 0 0-18.09-7.68-30.15-7.06 0 0-6.44.17-8.46 3a.82.82 0 0 0-.15.81c.04.06.04.14 0 .2-.61.55-1.16 1.17-1.64 1.84-.26.35-.26.84 0 1.19.07.08.13.17.18.27zm.6-1c.33-.87 1.09-1.51 2-1.7l.73-.1c1-.25 1.84-.94 2.29-1.87-.52-.01-1.04.01-1.56.06-1 .18-1.38 1.39-1.38 1.38-.87.2-.85-.55-.69-.77s.65-1.11 4-1.88c1.7-.37 3.45-.49 5.18-.34l-.15.26a3.252 3.252 0 0 1-3.6 1.36s0 .91 2.24 1.22c0 0 2 .36 5.41 3.08 0 0-1.62-3.22-4.38-4.05 0 0-.34-.07-.18-.29a6.793 6.793 0 0 1 3.9-1.64s7.43-.72 11.55 4.94a22.05 22.05 0 0 0-2.18-3.45s4.31 1.22 11 3.52c0 0 4.52 1.59 7.42 2.73 3.91 1.53 13.69 5.33 19.94 8.72 1.11.6 12.39 6.46 12.39 6.46 1.63.85 3.52 1.05 5.29.56.71-.27 2-1.25 2.54-.69.24.27.31.66.19 1-.41.8-1.1 1.41-1.94 1.74-1.42.45-2.93.58-4.41.37a8.002 8.002 0 0 1-4.5-2.43c-.67-.68-1.48-1.47-2.23-2.25a4.255 4.255 0 0 0-2.5-1.34c-1.4-.2-4.85-.28-6.14-.71-.87-.29-1.91-.87-3.3-2.92a5.417 5.417 0 0 0-2.06-1.83c.43.35.8.78 1.09 1.25.57 1 .86 1.75 1.17 2.29.3.56.7 1.05 1.19 1.45.5.43 1.12.69 1.78.74 1.66.1 3.33.12 5 .06 1.26-.11 2.5.3 3.45 1.14.59.5 1.61 1.92 2.23 2.54a8.9 8.9 0 0 0 2.76 2.23c.51.26 1.34.89 1.3 1.5-.66.65-1.48.83-3.44.31.76.78 1.9 1.05 2.93.71-.44.4-1.01.61-1.6.6-1.84-.1-3.65-2.36-4.66-3.2-.68-.61-1.41-1.18-2.17-1.7-2-1.37-6.44-1-6.44-1l-3.27.17c-6.36.47-9-5.15-9.75-6.32-.2-.35-.42-.68-.67-1-1.01-1.4-2.32-2.57-3.83-3.42 0 0 1.73 1.49 1.63 2.47-.87-.24-1.79-.25-2.67-.05-8.38 1.19-11.24-.9-11.24-.9.16-1.19-.11-2.4-.78-3.4 2.79.96 5.77 1.23 8.69.8 0 0-6.37 0-10.84-3.51 0 0 2.78 3.47 2.11 5.74 0 0-.45 2.42-5.3 1.45-.52-.11-1.12-.27-8.38-2.29-1.71-.51-2.29.31-2.6.79-.16.75-.63 1.4-1.28 1.81a1.69 1.69 0 0 1-1.54-1.85c.02-.22.08-.43.18-.62-1.41 2 .06 2.9.53 3-.25.12-.5.23-.76.32a2.101 2.101 0 0 1-.82-2.85c0-.01.01-.01.01-.02a6.132 6.132 0 0 1 5.56-3.53c.95-.13 1.91-.16 2.87-.09 1.94.26 3.16 1.36 6.05 1.64-6.15-1.82-6.16-5.36-6.18-5.43-.28.99-.24 2.04.14 3-.08 0-1.43-.91-1.95-1.23-1.22-.78-2.58-1.31-4-1.57-.72-.1-1.07-1-1.07-1a.539.539 0 0 0-.07-.13c-1-1.74-2-1.77-2-1.77.37.55.57 1.2.59 1.86.3 2.15-2.15 2.82-2.15 2.82-1.5 1.9-1.42 1.94-1.75 2-.37-.04-.74-.15-1.07-.33a.32.32 0 0 1 .05-.36c.29-.22.51-.44.51-.44 1.59-1.62 1.78-2.41 1.58-3.45-.4-2.11-1.91-1.86-1.91-1.86-.42.04-.79.29-1 .66-.25.39-.78 1.58-.78 1.58-.33.7-.67.86-.84.89-.09.01-.17.01-.26 0-.35-.04-.67-.21-.9-.48l-.06-.07c-.27-.28-.36-.68-.24-1.05v-.04zm2.44-2.25l.08-.25s.21-.55.67-.59h.68c-.17.42-.55.72-1 .78-.14.04-.28.08-.43.1v-.04zm-1.5 37.54c.63-.68.94-1.6.85-2.52V-5.2h-2.86v3.5c.07.8-.19 1.6-.73 2.2-.66.65-1.76.92-3.38.92H92v1h5.75c2.73.05 4.65-.32 5.66-1.36zm63.71-.22l1.41 1.63h3.21l-6.66-7.66h-2.82l-6.67 7.66h1.66l1.41-1.63h8.46zm-4.25-4.91l3.39 3.92h-6.77l3.38-3.92zm-44.36 6.54h3.2l-6.66-7.66h-2.82l-6.67 7.66h1.66l1.4-1.63h8.48l1.41 1.63zm-9-2.62l3.38-3.92 3.39 3.92h-6.77zm77.34-.66c.69-.38 1.1-1.12 1.07-1.9.06-.88-.47-1.69-1.29-2a8.794 8.794 0 0 0-3.49-.44h-8.86v7.66h2.86V-.14h3.75l4.29 2.65h3.48L184.17-.2c.93 0 1.84-.21 2.68-.61zm-9.72-.34v-3.08h5.63c.64-.09 1.3.03 1.87.34.32.29.48.71.42 1.14v.14c.05.44-.13.88-.48 1.15-.55.27-1.16.37-1.77.3l-5.67.01zm-36.96-4.04v3.82c-.08.85.13 1.7.6 2.41.82 1.07 2.31 1.68 6.44 1.68h.05c4.15 0 5.64-.61 6.45-1.68.48-.71.69-1.57.61-2.42v-3.81h-2.86v3.71c.06.73-.11 1.46-.5 2.08-.62.87-1.6 1.19-3.61 1.19h-.24c-1.92 0-3-.32-3.61-1.19-.39-.62-.56-1.36-.49-2.09v-3.7h-2.84zm-10.59 1.02h7.14v-1h-8c-1.43-.11-2.86.17-4.15.8a3.31 3.31 0 0 0-1.74 3c-.08 1.48.84 2.84 2.25 3.3 1.19.41 2.44.6 3.7.55h8.27v-3.52h-2.89v2.5h-4.56a4.66 4.66 0 0 1-3-.7c-.63-.51-.98-1.3-.92-2.11-.05-.78.27-1.54.86-2.05.89-.62 1.97-.89 3.04-.77z"/></g></svg>