<svg id="Слой_1" xmlns="http://www.w3.org/2000/svg" width="60.7" height="60" viewBox="28 -29 60.7 60"><style>.st0{fill:#000333}</style><title>Car-logos_Mercedes-Benz</title><path class="st0" d="M58.2-19c0-.4-.1-.4-.1 0L56.8-.2l1.2.7.2-19.5zM52.3 4.1l5.3-2.9-1.2-.7L52.2 4c-.2.2-.1.3.1.1z"/><path class="st0" d="M58.3-29c-16.5.2-29.8 13.8-29.6 30.3S42.5 31.2 59 31c16.4-.2 29.7-13.6 29.7-30-.1-16.7-13.7-30.1-30.4-30 .1 0 0 0 0 0zm0 58.9C46.9 29.9 38 24 33.7 15.8l.6-.2c1.3 2 2.8 3.8 4.5 5.5 2.4 2.6 10 7.7 19.4 7.7 9.7 0 18.8-5 23.9-13.2.4-.1.5-.3.4-.6 2.4-4.3 3.7-9.1 3.8-14 0-2.7-.4-5.3-1.2-7.9-.4-1.4-1-2.7-1.6-4.1-.1-.1-.1-.3-.1-.4l.3.3c.7 1.3 1.3 2.7 1.9 4 1.1 2.5 1.7 5.2 1.7 7.9.1 16.2-12.9 29.1-29 29.1zM34 15.1L55.3-.2l-1.8-1-19 15.8c-2.3-4.1-3.5-8.8-3.6-13.5-.1-14.9 11.9-27 26.8-27.1h.1L53.9-1.9l1.8 1L58.1-26c0-.3.3-.3.3 0L58.5.5 62.9-2l-4.1-24c14.8.4 27 12.3 27 27-.1 4.8-1.3 9.4-3.6 13.6l-19-15.8-1.8 1 20.3 14.7c.5.4.3.5-.2.2L58.7 1.6v4.9l22.9 8.7c-8.1 12.9-25.2 16.7-38 8.6-3.4-2.2-6.4-5.1-8.6-8.6l22.9-8.8V1.6L34.2 15.3c-.6.4-.7.2-.2-.2zm-.5.3c-1.1-2.3-2-4.8-2.5-7.3v-.4c0 .1.1.2.1.3.7 2.4 1.7 4.7 2.9 6.9l-.5.5zM87.3-4.1c-.1-.1-.1-.2-.2-.3-2.2-6.8-4.1-9.5-7.7-13.5-5.4-5.8-13-9.2-21-9.3-15.9 0-28.8 12.9-28.8 28.8 0 3.7.6 7.4 1.9 10.9 1 2.4 2.7 5.6 2.7 5.7.1.1.1.2.1.4l-.3-.3c-1.2-1.9-2.2-3.8-3.1-5.8-6.3-14.9.6-32 15.5-38.3 3.8-1.6 7.8-2.4 11.9-2.3 14.2-.2 26.4 9.9 29 23.8.1 0 .1.1 0 .2z"/><path class="st0" d="M75.9 11L60.3.5l-1.3.7 16.8 9.9c.3.2.4.1.1-.1z"/></svg>