<svg xmlns="http://www.w3.org/2000/svg" width="84.36" height="51.71" viewBox="79.96 -49.53 84.36 51.71"><title>Car-logos_Audi</title><g fill="#333"><path d="M134.33-13.55l3.49 3.88h-.88c-4.85 0-8.8 1.85-8.8 5.83 0 3.21 3.95 5.83 8.8 5.83s8.8-2.62 8.8-5.83-4-7.18-6-9.69l-5.41-.02zm6.8 9.58c0 1.66-1.88 3-4.19 3-2.31 0-4.2-1.35-4.2-3s1.9-3 4.2-3c2.3 0 4.14 1.34 4.14 3h.05zm-18.58.82c0 3.19-5.23 3.19-5.23 0v-6.26h-4.5v6.68c0 6.52 14.12 6.58 14.12 0v-6.68h-4.39v6.26zm24.19-6.21h4.84V1.93h-4.84z"/><path d="M97.41-13.15l1.56 1.9-8.64 13.18h5.21L96.96-.4h9.92l1.48 2.33h5.45l-10.48-15.08h-5.92zm1.38 9.68l3-4.94 3.12 4.94h-6.12zm50.79-46.06c-3.36-.05-6.64 1.05-9.3 3.11a14.872 14.872 0 0 0-18.17 0c-5.35-4.1-12.79-4.1-18.14 0-6.56-5.01-15.93-3.76-20.94 2.8s-3.76 15.93 2.8 20.94a14.943 14.943 0 0 0 18.14 0c5.35 4.12 12.8 4.12 18.15 0a14.872 14.872 0 0 0 18.17 0c6.55 5.02 15.93 3.77 20.95-2.78s3.77-15.93-2.78-20.95a14.943 14.943 0 0 0-8.9-3.08l.02-.04zm-.38 28.17c-3.31-.05-6.49-1.33-8.9-3.61-2.5 2.37-5.83 3.67-9.27 3.63-3.31-.03-6.48-1.32-8.88-3.59a13.471 13.471 0 0 1-9.3 3.62c-3.3-.05-6.46-1.32-8.87-3.56-.42.38-.86.74-1.32 1.07-2.3 1.67-5.08 2.55-7.92 2.51-5.25-.09-9.96-3.26-12-8.1-.46-.04-.92-.13-1.36-.26-2.7-7.48 1.17-15.73 8.65-18.43 1.4-.5 2.86-.79 4.35-.85.25.36.46.75.63 1.16h.06c3.4.05 6.65 1.41 9.08 3.8l-.11-1.87c2.41-1.91 5.37-3 8.44-3.11.27.36.49.75.68 1.16 3.39.1 6.63 1.44 9.09 3.77l-.1-1.78a14.2 14.2 0 0 1 8.5-3.17c.25.36.46.75.63 1.16h.06c3.41.12 6.65 1.5 9.1 3.87l-.12-1.88c2.42-1.95 5.4-3.07 8.51-3.18.2.4.43.79.69 1.16 7.1.33 12.77 4.59 13.06 13.42.27 7.27-6.09 13.16-13.38 13.06z"/><path d="M99.49-29.66c-.6-1.63-.88-3.35-.85-5.08.04-3.17 1.13-6.24 3.1-8.72h1.9c-4.94-4.81-12.85-4.7-17.66.24s-4.7 12.85.24 17.66c1.66 1.61 3.73 2.73 5.98 3.24l.62-.78c.66.12 1.33.18 2 .19 2.56.03 5.07-.79 7.11-2.34h1.73c-1.18-1.2-2.13-2.62-2.79-4.17-.47-.03-.93-.11-1.38-.24zm-4.7 6.13c-6.07-.09-10.93-5.08-10.84-11.16.09-6.07 5.08-10.93 11.16-10.84 2.17.03 4.28.7 6.06 1.93a14.899 14.899 0 0 0 0 18.11 11.53 11.53 0 0 1-6.38 1.96z"/><path d="M105.98-38.15c.14-.37.37-.7.67-.95-.56-1.54-1.46-2.93-2.64-4.06a12.427 12.427 0 0 0-1 16c.3.42.64.81 1 1.17v-1.59c1.59-1.94 2.46-4.38 2.47-6.89.03-1.25-.14-2.49-.5-3.68zm-2 9.82c-2.6-3.76-2.6-8.74 0-12.5 2.6 3.76 2.6 8.74 0 12.5zm20.08-9.82c.13-.39.37-.73.68-1-.58-1.5-1.47-2.86-2.61-4-4.56 4.83-4.53 12.39.07 17.18v-1.48c1.46-2.05 2.29-4.48 2.39-7 .03-1.25-.15-2.5-.53-3.7zm-1.93 9.76a11.01 11.01 0 0 1 0-12.38 11.01 11.01 0 0 1 0 12.38z"/><path d="M135.82-29.71c-1.68-4.68-.83-9.89 2.25-13.79h1.87c-2.3-2.23-5.36-3.51-8.56-3.57-3.25-.04-6.39 1.19-8.75 3.43 2.38 2.49 3.68 5.82 3.63 9.26-.05 3.31-1.33 6.48-3.58 8.91 1.62 1.52 3.61 2.58 5.78 3.07l.62-.79c.66.12 1.33.18 2 .19 2.6-.01 5.13-.83 7.24-2.35h1.59a13.694 13.694 0 0 1-2.71-4.09c-.47-.04-.93-.13-1.38-.27zm-4.75 6.14c-2.2-.04-4.34-.73-6.14-2a14.881 14.881 0 0 0 0-18c3.78-2.63 8.78-2.63 12.56 0a14.897 14.897 0 0 0 0 18.05c-1.9 1.27-4.13 1.95-6.42 1.95zm30.03-15.58c-1-3.53-6-8-11.54-8-3.25-.04-6.39 1.19-8.75 3.42 4.85 5.1 4.85 13.1 0 18.2 1.63 1.51 3.62 2.57 5.79 3.06l.62-.79c.66.13 1.33.19 2 .2 6.38.1 11.64-4.99 11.74-11.38.02-1.26-.17-2.51-.55-3.71.13-.39.37-.74.69-1zM149.23-23.6c-2.19-.04-4.33-.73-6.12-2a14.868 14.868 0 0 0 0-18.05c4.97-3.49 11.83-2.29 15.32 2.68 3.49 4.97 2.29 11.83-2.68 15.32-1.9 1.34-4.18 2.04-6.5 2l-.02.05z"/><path d="M142.24-38.15c.14-.37.38-.7.68-.95a10.58 10.58 0 0 0-2.59-4.05c-4.58 4.86-4.52 12.46.14 17.25v-1.53a11.02 11.02 0 0 0 2.37-7 11.5 11.5 0 0 0-.6-3.72zm-1.91 9.78a11.006 11.006 0 0 1 0-12.4c2.57 3.73 2.57 8.67 0 12.4zm-22.67-1.31c-.58-1.63-.87-3.35-.85-5.08.04-3.17 1.14-6.24 3.11-8.72h1.79c-4.77-4.64-12.36-4.69-17.19-.11a13.1 13.1 0 0 1 3.66 9.28c-.05 3.33-1.36 6.53-3.66 8.94 1.63 1.49 3.62 2.52 5.78 3 .19-.26.39-.52.62-.79.66.12 1.33.19 2 .19 2.59.06 5.13-.77 7.17-2.37h1.68a13.582 13.582 0 0 1-2.72-4.1c-.47-.03-.94-.11-1.39-.24zm-4.77 6.13c-2.17-.02-4.29-.69-6.08-1.92 4.1-5.34 4.1-12.78 0-18.12 3.77-2.61 8.75-2.61 12.52 0a14.881 14.881 0 0 0 0 18 11.46 11.46 0 0 1-6.43 2.04h-.01z"/></g></svg>