<svg xmlns="http://www.w3.org/2000/svg" width="59.78" height="59.78" viewBox="56 -57.56 59.78 59.78"><title>Car-logos_BMW</title><g fill="#333"><path d="M85.89-57.56C69.38-57.56 56-44.18 56-27.67S69.38 2.22 85.89 2.22s29.89-13.38 29.89-29.89c-.02-16.5-13.39-29.87-29.89-29.89zm0 59c-16.05 0-29.06-13.01-29.06-29.06s13.01-29.06 29.06-29.06 29.05 13 29.06 29.05c-.02 16.04-13.02 29.05-29.06 29.07z"/><path d="M68.85-39.4l.09.07 1.75-2.18.64-.8a.92.92 0 0 0 .13-.93.898.898 0 0 0-.84-.53 1 1 0 0 0-.73.4l-.77 1-1.58 2 .82.66.49.31z"/><path d="M85.89-56.21c-15.76.01-28.54 12.79-28.53 28.55S70.15.88 85.91.87s28.53-12.78 28.53-28.54-12.78-28.54-28.54-28.54h-.01zm-4.61 1.78l2.68-.3 1.93 5.65 1.93-5.65 2.67.3.29 8-2.08-.3-.2-5.35-1.88 5.35h-1.49l-1.88-5.35-.2 5.35-2.08.3.31-8zm-18 13.22l-.64-.52-.08-.06.11-.14 1.66-2.08 1.94-2.42.37-.46c.22-.27.5-.48.83-.61 1.01-.37 2.12.15 2.49 1.16.02.07.05.13.06.2.09.35.09.72 0 1.07l.14-.12a2.157 2.157 0 0 1 3.36 2.33c-.21.51-.51.97-.89 1.36l-2 2.49-1.66 2.07-.12.15h-.06l-.62-.49-2.42-1.94-2.47-1.99zM85.91-9.82c-9.85 0-17.84-7.99-17.84-17.84S76.06-45.5 85.91-45.5s17.84 7.99 17.84 17.84c-.01 9.85-8 17.84-17.84 17.84-.01-.01-.02-.01-.02-.01l.02.01zm17-27.07l-1-1.75 3.53-4.63-5.29 2.43-1.49-1.38 4.83-6.34 1.49 1.38-2.84 3.62 4.46-2 1.3 1.62-3 3.9 4.18-1.92 1 1.75-7.17 3.32z"/><path d="M68.78-44.5a.888.888 0 0 0-1.21-1c-.23.13-.42.31-.56.53l-1.88 2.34c-.05.06-.1.12-.14.18l.38.31 1 .81 1-1.24 1-1.23c.18-.2.32-.44.41-.7zm.17 16.83h16.94v-16.89c-9.23.25-16.67 7.66-16.94 16.89zm16.94 16.94c9.23-.27 16.64-7.71 16.89-16.94H85.89v16.94z"/></g></svg>