<svg xmlns="http://www.w3.org/2000/svg" width="462.13" height="462.13" viewBox="80.98 143.73 462.13 462.13"><path fill="#A31214" d="M498 345.9c-7.5 0-13.9-5.3-16-12.8-18.2-80.2-88.7-136.8-172.1-136.8S156 252.9 137.8 333.1c-2.1 8.6-10.7 13.9-19.2 11.8-8.5-2.1-13.9-10.7-11.8-19.2 21.4-95.1 105.8-161.4 203.1-161.4S491.6 230.4 513 325.6c2.1 8.6-3.2 17.1-11.8 19.2-1 0-2.1 1.1-3.2 1.1z"/><path fill="#A31214" d="M503.4 350.2c-2.1 0-4.3 0-6.4-1.1l-55.6-23.5c-8.6-3.2-11.8-12.8-8.6-21.4 3.2-8.6 12.8-11.8 21.4-8.6l40.6 17.1 17.1-40.6c3.2-8.6 12.8-11.8 21.4-8.6 8.6 3.2 11.8 12.8 8.6 21.4l-23.5 55.6c-2.1 4.3-4.3 7.5-8.6 8.6-2.1 1.1-4.3 1.1-6.4 1.1zM313.1 585.3c-97.3 0-181.7-66.3-203.1-161.4-2.1-8.6 3.2-17.1 11.8-19.2s17.1 3.2 19.2 11.8c18.2 80.2 88.7 136.8 172.1 136.8S467 496.6 485.2 416.4c2.1-8.6 10.7-13.9 19.2-11.8s13.9 10.7 11.8 19.2c-21.4 95.3-104.7 161.5-203.1 161.5z"/><path fill="#A31214" d="M97.2 487c-2.1 0-4.3 0-6.4-1.1-8.6-3.2-11.8-12.8-8.6-21.4l23.5-55.6c3.2-8.6 12.8-11.8 21.4-8.6l55.6 23.5c8.6 3.2 11.8 12.8 8.6 21.4-3.2 8.6-12.8 11.8-21.4 8.6l-40.6-17-17.1 39.5c-2.2 6.4-8.6 10.7-15 10.7z"/></svg>