<svg xmlns="http://www.w3.org/2000/svg" width="44" height="44" viewBox="0 0 44 44"><path fill="#B20503" d="M22 0C9.85 0 0 9.85 0 22s9.85 22 22 22 22-9.85 22-22S34.15 0 22 0m10.98 5.29c0 .24.02.47.02.71 0 2.08-.22 4.11-.62 6.07a2.993 2.993 0 0 0-1.52 5.03c-.65 1.64-1.44 3.22-2.36 4.7-3.73-4.24-6.31-9.53-7.18-15.38 2.28-1.4 4.78-2.48 7.41-3.23 1.51.54 2.93 1.24 4.25 2.1m-4.22 19.69c1.76 1.7 3.73 3.17 5.84 4.44-2.14.37-4.35.58-6.6.58-1.02 0-2.02-.05-3.02-.13-.01-.19-.03-.38-.07-.57 1.41-1.32 2.7-2.76 3.85-4.32M22 2c1.11 0 2.2.11 3.27.29-1.44.56-2.85 1.19-4.17 1.95-.06-.72-.1-1.45-.1-2.19.34-.02.66-.05 1-.05m5.35 21.51a30.866 30.866 0 0 1-3.57 4.09c-.5-.37-1.11-.6-1.78-.6-1.29 0-2.38.82-2.8 1.96-4.01-.95-7.77-2.54-11.18-4.65.9-3.4 2.37-6.58 4.33-9.39.21.05.42.08.65.08a2.996 2.996 0 0 0 2.76-4.17c1.16-1.16 2.41-2.23 3.74-3.19 1.08 6.05 3.88 11.5 7.85 15.87M5.02 32.54A19.848 19.848 0 0 1 2.01 22.4c1.18 1.01 2.43 1.96 3.73 2.83C5.27 27.41 5 29.67 5 32c0 .18.02.36.02.54m1.24-9.38a37.914 37.914 0 0 1-4.13-3.34c.98-9.02 7.96-16.23 16.88-17.57.01 1.07.07 2.13.18 3.17a32.303 32.303 0 0 0-4.78 3.94C13.98 9.14 13.51 9 13 9c-1.66 0-3 1.34-3 3 0 .7.25 1.34.66 1.85a31.993 31.993 0 0 0-4.4 9.31m.95 12.27C7.08 34.3 7 33.16 7 32c0-1.93.2-3.8.55-5.63 3.56 2.12 7.48 3.71 11.64 4.65.02.06.03.11.05.17a29.799 29.799 0 0 1-11.82 4.48l-.21-.24M22 42c-4.88 0-9.34-1.75-12.81-4.65 4.16-.82 8.03-2.44 11.44-4.69.41.21.87.34 1.37.34.96 0 1.81-.46 2.36-1.17 1.2.11 2.41.17 3.64.17 3.21 0 6.33-.41 9.32-1.13.69.33 1.38.66 2.09.94C35.98 37.89 29.48 42 22 42m15.54-13.22c-2.83-1.42-5.4-3.27-7.63-5.48 1.08-1.68 2-3.47 2.75-5.34.11.02.22.04.34.04 1.66 0 3-1.34 3-3 0-1.17-.68-2.18-1.66-2.67.36-1.8.59-3.64.63-5.53C39.27 10.46 42 15.91 42 22c0 1.96-.31 3.85-.83 5.64-1.19.44-2.4.82-3.63 1.14"/></svg>