<svg xmlns="http://www.w3.org/2000/svg" width="44" height="44" viewBox="0 0 44 44"><path fill="#B20503" d="M25 8H11c-.55 0-1 .45-1 1s.45 1 1 1h14c.55 0 1-.45 1-1s-.45-1-1-1M5 21c.55 0 1-.45 1-1s-.45-1-1-1-1 .45-1 1 .45 1 1 1m37-7h-2V8l-2-2-6-6H6C4.9 0 4 .9 4 2v12H2c-1.1 0-2 .9-2 2v8c0 1.1.9 2 2 2h2v17c0 .55.45 1 1 1s1-.45 1-1V26h2v11c0 .55.45 1 1 1s1-.45 1-1V26h2v5c0 .55.45 1 1 1s1-.45 1-1v-5h2v15c0 .55.45 1 1 1s1-.45 1-1V26h3v13c0 .55.45 1 1 1s1-.45 1-1V26h3v7c0 .55.45 1 1 1s1-.45 1-1v-7h2v9c0 .55.45 1 1 1s1-.45 1-1v-9h2v15c0 .55.45 1 1 1s1-.45 1-1V26h2v13c0 .55.45 1 1 1s1-.45 1-1V26h2c1.1 0 2-.9 2-2v-8c0-1.1-.9-2-2-2M32 3l5 5h-5V3zM6 2h24v7c0 .55.45 1 1 1h7v4H6V2zm36 22H2v-8h40v8zM9 21c.55 0 1-.45 1-1s-.45-1-1-1-1 .45-1 1 .45 1 1 1"/></svg>