<svg xmlns="http://www.w3.org/2000/svg" width="43.97" height="43.97" viewBox="0 0 43.97 43.97"><path fill="#B20503" d="M13 0C5.82 0 0 5.86 0 13.09 0 23.73 13 34 13 34s13-10.27 13-20.91C26 5.86 20.18 0 13 0m0 31.37a48.984 48.984 0 0 1-4.96-5.12C5.28 22.95 2 17.99 2 13.09 2 6.98 6.93 2 13 2c6.06 0 11 4.98 11 11.09 0 7.69-7.89 15.5-11 18.28m0-25.35c-3.87 0-7 3.13-7 7 0 3.86 3.13 7 7 7s7-3.13 7-7-3.13-7-7-7M13 18c-2.76 0-5-2.24-5-5s2.24-5 5-5 5 2.24 5 5-2.24 5-5 5m19.18 3.98a1.002 1.002 0 0 0 1.37-.35c.3-.51.67-1.03 1.12-1.56.35-.42.3-1.05-.12-1.41a1 1 0 0 0-1.41.12c-.51.61-.95 1.22-1.31 1.82-.28.49-.12 1.1.35 1.38m-8.18 20c-.69-.04-1.36-.09-2-.17a.98.98 0 0 0-1.11.87c-.07.55.32 1.05.87 1.12.68.08 1.4.15 2.14.19h.05a1 1 0 0 0 1-.95c.02-.57-.4-1.04-.95-1.06m-10.03-4.97c-.01-.54-.45-.99-1-.99s-1 .45-1 1c0 .09.01.6.28 1.32.15.4.53.65.94.65a.993.993 0 0 0 .94-1.34c-.14-.36-.16-.61-.16-.64m4.19 3.93c-.64-.23-1.21-.49-1.72-.79a.998.998 0 0 0-1.37.36.998.998 0 0 0 .36 1.37c.61.36 1.3.68 2.06.95.11.04.23.06.34.06.41 0 .8-.25.94-.66.18-.53-.09-1.1-.61-1.29m19.95-6.56c-.54.11-.89.64-.78 1.18.07.32.1.64.1.94 0 .25-.02.49-.07.73a1.001 1.001 0 0 0 .98 1.19c.47 0 .89-.33.98-.81.07-.36.1-.73.1-1.11 0-.44-.05-.89-.14-1.35-.1-.54-.64-.88-1.17-.77m-.15-19.91c-.56.4-1.13.84-1.7 1.3a1 1 0 0 0-.14 1.41c.2.24.49.37.78.37.22 0 .45-.07.63-.22.54-.44 1.08-.85 1.61-1.23.45-.32.55-.95.23-1.4a1.02 1.02 0 0 0-1.41-.23m5.9-2.4c-.25-.49-.86-.68-1.35-.43 0 0-.34.18-.91.5-.48.27-.65.88-.37 1.36a1.006 1.006 0 0 0 1.36.37c.51-.29.83-.45.84-.46.49-.25.68-.85.43-1.34M30.03 41.76c-.64.09-1.31.16-1.99.2-.55.04-.97.51-.93 1.06.03.53.47.94 1 .94h.07c.74-.05 1.46-.12 2.14-.22.55-.08.93-.58.85-1.13a1.01 1.01 0 0 0-1.14-.85m3.15-15.21c-.29-.51-.46-1.04-.52-1.58a.994.994 0 0 0-1.1-.89 1 1 0 0 0-.89 1.1c.09.81.34 1.6.76 2.35.18.33.52.51.87.51.17 0 .33-.04.49-.13.49-.27.66-.88.39-1.36m4.09 4.51c-.42-.56-.91-1.11-1.45-1.66a.999.999 0 0 0-1.42-.01c-.39.39-.4 1.02-.01 1.42.48.49.91.98 1.29 1.47.2.26.49.39.79.39a1.004 1.004 0 0 0 .8-1.61m-1.82 8.85c-.47.33-1.02.62-1.64.88a1 1 0 0 0-.54 1.31c.16.38.53.62.92.62.13 0 .26-.02.38-.08.75-.31 1.43-.67 2.02-1.08.45-.32.57-.94.25-1.39a1 1 0 0 0-1.39-.26"/></svg>