<svg xmlns="http://www.w3.org/2000/svg" width="284.56" height="284.56" viewBox="140 -141.56 284.56 284.56"><path d="M144.39 96.18l42.43 42.43a15.01 15.01 0 0 0 10.61 4.39c3.98 0 7.79-1.58 10.61-4.39l74.25-74.25 74.25 74.25a15.01 15.01 0 0 0 10.61 4.39c3.98 0 7.79-1.58 10.61-4.39l42.43-42.43c5.86-5.86 5.86-15.35 0-21.21L345.92.72l74.25-74.25a15.01 15.01 0 0 0 4.39-10.61c0-3.98-1.58-7.79-4.39-10.61l-42.43-42.43c-5.86-5.86-15.36-5.86-21.21 0l-74.25 74.25-74.25-74.25c-5.86-5.86-15.36-5.86-21.21 0l-42.43 42.43A15.01 15.01 0 0 0 140-84.14c0 3.98 1.58 7.79 4.39 10.61L218.64.72l-74.25 74.25c-5.85 5.86-5.85 15.35 0 21.21z"/></svg>