<svg xmlns="http://www.w3.org/2000/svg" width="107.73" height="107.73" viewBox="53 -52.73 107.73 107.73"><title>i_Icon</title><path d="M106.79-9.86c4.15 0 7.51 3.37 7.51 7.52v26.3c0 4.15-3.36 7.52-7.51 7.52s-7.51-3.37-7.51-7.52v-26.3c0-4.15 3.36-7.52 7.51-7.52zm0-19.52c4.15 0 7.51 3.36 7.51 7.51s-3.36 7.51-7.51 7.51-7.51-3.36-7.51-7.51 3.36-7.51 7.51-7.51z"/><path d="M106.87 55C77.12 55 53 30.89 53 1.13s24.11-53.87 53.87-53.87c29.75 0 53.87 24.11 53.87 53.87 0 14.29-5.67 27.99-15.78 38.09A53.5 53.5 0 0 1 106.87 55zm0-95.21c-22.83 0-41.34 18.51-41.34 41.34s18.51 41.34 41.34 41.34 41.34-18.51 41.34-41.34c-.03-22.82-18.52-41.3-41.34-41.33v-.01z"/></svg>