<svg id="Capa_1" xmlns="http://www.w3.org/2000/svg" width="462.1" height="421" viewBox="-148 373.3 462.1 421"><style>.st0{fill:#231f20}</style><path class="st0" d="M269 554.9c-7.5 0-13.9-5.3-16-12.8-18.2-80.2-88.7-136.8-172.1-136.8S-73 461.9-91.2 542.1c-2.1 8.6-10.7 13.9-19.2 11.8-8.5-2.1-13.9-10.7-11.8-19.2 21.4-95.1 105.8-161.4 203.1-161.4S262.6 439.4 284 534.6c2.1 8.6-3.2 17.1-11.8 19.2-1 0-2.1 1.1-3.2 1.1z"/><path class="st0" d="M274.4 559.2c-2.1 0-4.3 0-6.4-1.1l-55.6-23.5c-8.6-3.2-11.8-12.8-8.6-21.4 3.2-8.6 12.8-11.8 21.4-8.6l40.6 17.1 17.1-40.6c3.2-8.6 12.8-11.8 21.4-8.6 8.6 3.2 11.8 12.8 8.6 21.4l-23.5 55.6c-2.1 4.3-4.3 7.5-8.6 8.6-2.1 1.1-4.3 1.1-6.4 1.1zM84.1 794.3c-97.3 0-181.7-66.3-203.1-161.4-2.1-8.6 3.2-17.1 11.8-19.2s17.1 3.2 19.2 11.8C-69.8 705.7.7 762.3 84.1 762.3S238 705.6 256.2 625.4c2.1-8.6 10.7-13.9 19.2-11.8s13.9 10.7 11.8 19.2c-21.4 95.3-104.7 161.5-203.1 161.5z"/><path class="st0" d="M-131.8 696c-2.1 0-4.3 0-6.4-1.1-8.6-3.2-11.8-12.8-8.6-21.4l23.5-55.6c3.2-8.6 12.8-11.8 21.4-8.6l55.6 23.5c8.6 3.2 11.8 12.8 8.6 21.4s-12.8 11.8-21.4 8.6l-40.6-17-17.1 39.5c-2.2 6.4-8.6 10.7-15 10.7z"/></svg>