<svg xmlns="http://www.w3.org/2000/svg" width="370.85" height="512" viewBox="324.57 -255 370.85 512"><path d="M510-255c-102.24 0-185.43 83.18-185.43 185.43 0 126.89 165.94 313.17 173 321.04 6.64 7.39 18.22 7.38 24.85 0 7.07-7.87 173-194.15 173-321.04C695.42-171.82 612.24-255 510-255zm0 469.73c-55.85-66.34-152.04-197.22-152.04-284.3 0-83.83 68.2-152.04 152.04-152.04s152.04 68.2 152.04 152.04c-.01 87.09-96.18 217.94-152.04 284.3z"/><path d="M510-162.87c-51.44 0-93.29 41.85-93.29 93.29s41.85 93.3 93.29 93.3 93.29-41.85 93.29-93.29-41.85-93.3-93.29-93.3zm0 153.2c-33.03 0-59.9-26.87-59.9-59.9s26.87-59.9 59.9-59.9 59.9 26.87 59.9 59.9-26.87 59.9-59.9 59.9z"/></svg>