<svg xmlns="http://www.w3.org/2000/svg" width="582" height="582" viewBox="509 -580 582 582"><path d="M800 2c-77.73 0-150.81-30.27-205.77-85.23C539.27-138.19 509-211.27 509-289s30.27-150.81 85.23-205.77C649.19-549.73 722.27-580 800-580s150.81 30.27 205.77 85.23C1060.73-439.81 1091-366.73 1091-289s-30.27 150.81-85.23 205.77C950.81-28.27 877.73 2 800 2zm0-512c-59.03 0-114.53 22.99-156.27 64.73S579-348.03 579-289s22.99 114.53 64.73 156.27S740.97-68 800-68s114.53-22.99 156.27-64.73S1021-229.97 1021-289s-22.99-114.53-64.73-156.27S859.03-510 800-510z"/><path d="M649.6-324.07h300.79v70.13H649.6z"/></svg>