<svg xmlns="http://www.w3.org/2000/svg" width="612" height="612" viewBox="0 0 612 612"><path d="M605.217 501.568l-255-442C341.394 44.302 324.887 34 306 34s-35.394 10.302-44.217 25.568l-255 442A50.882 50.882 0 0 0 0 527c0 28.152 22.848 51 51 51h510c28.152 0 51-22.848 51-51 0-9.265-2.465-17.952-6.783-25.432zM50.966 527.051L305.949 85H306l.034.051L561 527l-510.034.051zM306 408c-18.768 0-34 15.232-34 34 0 18.785 15.215 34 34 34s34-15.232 34-34-15.215-34-34-34zm-34-153c0 1.938.17 3.859.476 5.712l16.745 99.145C290.598 367.897 297.585 374 306 374s15.402-6.103 16.762-14.144l16.745-99.145c.323-1.852.493-3.773.493-5.711 0-18.768-15.215-34-34-34-18.768 0-34 15.232-34 34z"/></svg>