<svg xmlns="http://www.w3.org/2000/svg" width="36" height="40.9" viewBox="16 -19.9 36 40.9"><path fill="#E6E6E6" d="M36.3 8.3h-9.4c-.7 0-1.3.6-1.3 1.4 0 .7.6 1.4 1.3 1.4h9.5c.6-.1 1.1-.6 1.2-1.2v-.3c-.2-.7-.7-1.3-1.3-1.3zm3.8-17.5h-13c-.4 0-.7.2-.9.4s-.4.6-.4 1c0 .7.6 1.3 1.3 1.4h13c.6-.1 1.1-.6 1.2-1.2 0-.4-.1-.7-.3-1-.2-.4-.5-.6-.9-.6zM27.2 2h13c.6-.1 1.1-.6 1.2-1.2 0-.4-.1-.7-.3-1s-.6-.5-.9-.5h-13c-.7 0-1.3.6-1.3 1.4-.1.7.5 1.3 1.3 1.3zM41 8.8c-.3-.3-.6-.4-.9-.4-.3 0-.7.1-.9.4-.5.5-.5 1.4 0 1.9.3.3.6.4.9.4.3 0 .7-.1.9-.4.3-.3.4-.6.4-1 0-.3-.1-.6-.4-.9z"/><path fill="#E6E6E6" d="M52-18.2v-.3c-.2-.8-.8-1.4-1.6-1.4H17.6c-.9 0-1.6.8-1.6 1.6v37.6c0 .9.7 1.6 1.6 1.7h32.8c.8 0 1.4-.6 1.6-1.3v-37.9zm-3.2 35.9H19.2v-34.3h29.6v34.3z"/></svg>