<svg xmlns="http://www.w3.org/2000/svg" width="18.2" height="13" viewBox="7 -5 18.2 13"><g fill="#B20503"><path d="M12.4 3.5H9.6c-.2 0-.3.1-.4.3-.1.1-.2.3-.1.5 0 .2.1.3.3.4.1.1.3.1.4.1h2.9c.2 0 .3-.1.4-.3-.1-.1 0-.2 0-.4s-.1-.3-.3-.4c-.1-.1-.3-.2-.4-.2zm-2.7-.7s.1 0 0 0h6.2c.4 0 .6-.4.6-.7 0-.2-.1-.3-.3-.4-.2-.2-.4-.3-.5-.2H9.6c-.2 0-.3.1-.4.3-.1.2-.2.2-.1.4 0 .2.1.3.3.4 0 .1.2.2.3.2z"/><path d="M22.8-5c-.1 0-.1 0 0 0H9.5C8.2-5 7.1-3.9 7-2.6v8.2C7.1 6.9 8.2 8 9.5 8h13.3c1.3 0 2.4-1.1 2.5-2.4v-8.2C25.2-3.9 24.1-5 22.8-5zM8.4.1h15.4v5.5c0 .3-.1.6-.4.8-.2.2-.5.3-.8.3H9.5c-.3 0-.5-.1-.7-.3s-.3-.5-.4-.8V.1zm1.2-3.7h13.1c.6 0 1.1.5 1.1 1.1v1.3H8.4v-1.4c0-.6.6-1.1 1.2-1z"/><path d="M19.3 4.2H22c.4 0 .7-.3.7-.7V2.1c0-.2-.1-.4-.2-.5-.1-.1-.3-.2-.5-.2h-2.6c-.4 0-.7.3-.7.7v1.4c0 .4.3.7.6.7z"/></g></svg>