<svg xmlns="http://www.w3.org/2000/svg" width="96.88" height="67.52" viewBox="46 -33.2 96.88 67.52"><path d="M141.2-22.34c-1.19-5.15-5.4-8.95-10.47-9.52-12.01-1.34-24.17-1.35-36.28-1.34-12.11-.01-24.27 0-36.28 1.34-5.07.57-9.28 4.37-10.47 9.52C46.02-15 46-6.99 46 .56s0 15.56 1.69 22.9c1.18 5.15 5.4 8.95 10.47 9.52 12.01 1.34 24.17 1.35 36.28 1.34 12.11.01 24.26 0 36.28-1.34 5.07-.57 9.29-4.37 10.47-9.52 1.69-7.34 1.7-15.35 1.7-22.9-.01-7.55 0-15.56-1.69-22.9zM81.94 15.6v-32.04c10.27 5.36 20.47 10.68 30.8 16.07-10.31 5.34-20.51 10.63-30.8 15.97z"/></svg>