<svg xmlns="http://www.w3.org/2000/svg" width="92.5" height="58.8" viewBox="-259 367.2 92.5 58.8"><path d="M-258.9 395.1c.2-15.1 14.1-28.4 29.3-27.9 7.2-.3 14.1 2.8 19.6 7.3-2.4 2.7-4.8 5.3-7.4 7.7-6.7-4.6-16.2-5.9-22.9-.6-9.6 6.6-10 22.2-.8 29.3 8.9 8.1 25.8 4.1 28.3-8.3-5.6-.1-11.2 0-16.8-.2v-10h28.1c.6 7.9-.5 16.2-5.3 22.7-7.3 10.3-22 13.3-33.4 8.9-11.6-4.4-19.7-16.5-18.7-28.9zm75.6-11.2h8.3c0 2.8 0 5.6.1 8.4 2.8 0 5.6 0 8.4.1v8.3c-2.8 0-5.6 0-8.4.1 0 2.8 0 5.6-.1 8.4h-8.4c0-2.8 0-5.6-.1-8.4-2.8 0-5.6-.1-8.4-.1v-8.3c2.8 0 5.6 0 8.4-.1.2-2.8.2-5.6.2-8.4z"/></svg>