<svg xmlns="http://www.w3.org/2000/svg" width="385.94" height="385.94" viewBox="182.84 -219.79 385.94 385.94"><path fill="#E6E6E6" d="M436.85 44.01c10.6 11.3 21 22.5 31.4 33.6-38.4 34.8-102.2 47.8-158.3 17.5-56.5-30.5-85.1-96.5-69-159.3 15.8-62 72.4-105.8 136.5-105.4 36.6.2 68.7 12.7 95.4 37.9 26.7 25.1 40.7 56.5 43.9 93.2h48.3c-23.8 27.1-46.9 53.5-70.4 80.1-26.2-26.6-52.1-53-78.8-80.1h53.6c2.2-29.6-28.1-68.1-62.2-79.7-40.8-13.8-85.4 1.5-109 37.5-23.7 36.1-20 83.9 9.3 115.7 16.9 18.3 37.8 28.6 62.7 30.4 24.9 1.7 46.9-5.9 66.6-21.4z"/></svg>