<svg class="flag" xmlns="http://www.w3.org/2000/svg" width="640" height="480" viewBox="0 0 640 480"><path fill="#F31930" d="M0 0h640v480H0V0z"/><path fill="#FFF" d="M406.98 247.47c0 66.21-54.61 119.89-121.97 119.89s-121.97-53.68-121.97-119.89 54.61-119.89 121.97-119.89 121.97 53.68 121.97 119.89z"/><path fill="#F31830" d="M413.08 247.47c0 52.97-43.69 95.91-97.57 95.91s-97.57-42.94-97.57-95.91 43.69-95.91 97.57-95.91 97.57 42.94 97.57 95.91z"/><path fill="#FFF" d="M430.73 191.46l-.98 44.32-41.35 11.23 40.76 14.51-.98 40.64 26.58-31.74 40.16 13.93-23.23-34.06 28.35-33.87-43.51 12-25.8-36.96z"/></svg>